<svg width="60" height="60" viewBox="0 0 60 60" fill="none" xmlns="http://www.w3.org/2000/svg">
<circle cx="30" cy="30" r="28.5" stroke="#8BBCCE" stroke-opacity="0.5" stroke-width="3"/>
<path d="M37.1272 29.9539L25.5458 18.7995C25.1908 18.4576 25.009 18.0942 25.0003 17.7091C24.9915 17.3241 25.1731 16.9458 25.545 16.5742C25.9168 16.2026 26.3017 16.0114 26.6998 16.0005C27.0978 15.9895 27.5017 16.1772 27.9116 16.5636L40.3716 28.5642C40.5584 28.7701 40.7098 28.9884 40.8259 29.2192C40.942 29.4501 41 29.6993 41 29.967C41 30.2347 40.9418 30.4844 40.8254 30.7161C40.709 30.9477 40.557 31.1538 40.3695 31.3344L27.9137 43.3296C27.5199 43.7089 27.1309 43.8863 26.7469 43.862C26.3628 43.8376 25.9849 43.6396 25.6131 43.268C25.2412 42.8964 25.0552 42.5223 25.0552 42.1457C25.0552 41.7691 25.2415 41.4014 25.6139 41.0427L37.1272 29.9539Z" fill="#8BBCCE" fill-opacity="0.5"/>
</svg>
