<svg width="60" height="60" viewBox="0 0 60 60" fill="none" xmlns="http://www.w3.org/2000/svg">
<circle cx="30" cy="30" r="28.5" stroke="#8BBCCE" stroke-opacity="0.5" stroke-width="3"/>
<path d="M23.8598 29.9411L35.4422 41.0965C35.7966 41.4378 35.9781 41.801 35.9869 42.186C35.9956 42.571 35.8141 42.9493 35.4422 43.3209C35.0703 43.6925 34.6854 43.8838 34.2874 43.8947C33.8894 43.9057 33.4898 43.7137 33.0886 43.3189L20.6285 31.3182C20.433 31.1207 20.2793 30.9066 20.1676 30.6758C20.0559 30.4449 20 30.1956 20 29.928C20 29.6603 20.0559 29.411 20.1676 29.1801C20.2793 28.9493 20.433 28.7397 20.6285 28.5514L33.0886 16.5506C33.4723 16.1811 33.8676 15.9975 34.2743 16C34.681 16.0026 35.0703 16.1896 35.4422 16.5612C35.8141 16.9328 36 17.3069 36 17.6835C36 18.0602 35.8141 18.4275 35.4422 18.7857L23.8598 29.9411Z" fill="#8BBCCE" fill-opacity="0.5"/>
</svg>
