<svg width="28" height="29" viewBox="0 0 28 29" fill="none" xmlns="http://www.w3.org/2000/svg">
<path d="M12.2263 5.98057L3.08848 14.9495C2.72665 15.3046 2.30834 15.4865 1.83354 15.4951C1.35875 15.5037 0.928301 15.3268 0.542205 14.9644C0.172147 14.6019 -0.00848641 14.1877 0.000306088 13.7217C0.00909858 13.2556 0.195007 12.8447 0.558032 12.4888L12.749 0.538717C12.9217 0.369431 13.1147 0.237324 13.3279 0.142394C13.5411 0.0474648 13.7658 0 14.002 0C14.2381 0 14.4628 0.0474648 14.6761 0.142394C14.8893 0.237324 15.075 0.362459 15.2333 0.517798L27.4197 12.4789C27.8066 12.8587 28 13.2686 28 13.7087C28 14.1488 27.815 14.5501 27.4449 14.9126C27.0588 15.275 26.6298 15.4563 26.158 15.4563C25.6861 15.4563 25.2714 15.275 24.9138 14.9126L15.7608 5.98057V26.3572C15.7608 26.8332 15.5887 27.2411 15.2444 27.5809C14.9001 27.9207 14.4869 28.0905 14.0047 28.0905C13.5225 28.0905 13.1055 27.9207 12.7538 27.5809C12.4021 27.2411 12.2263 26.8332 12.2263 26.3572V5.98057Z" fill="white"/>
</svg>
