<svg width="76" height="35" viewBox="0 0 76 35" fill="none" xmlns="http://www.w3.org/2000/svg">
<path d="M10.89 8.13988C10.89 8.13988 8.26 8.13988 5.88 10.4599V1.12988H0V25.6599H5.95V23.7399C5.95 23.7399 7.35 26.2699 10.89 26.2699C10.89 26.2699 19.19 25.9599 19.19 17.1199C19.19 17.1199 18.88 8.14988 10.89 8.14988M9.6 21.0899C7.51 21.0899 5.82 19.3999 5.82 17.3099C5.82 15.2199 7.52 13.5299 9.6 13.5299C11.68 13.5299 13.38 15.2199 13.38 17.3099C13.38 19.3999 11.69 21.0899 9.6 21.0899Z" fill="#C6C6C6"/>
<path d="M21.0801 0.580078V6.26008C21.0801 6.26008 23.7701 6.14008 23.7701 11.1401V25.6601H29.4501V9.80008C29.4501 9.80008 29.6901 0.580078 21.0901 0.580078" fill="#C6C6C6"/>
<path d="M43.3199 8.22021C43.3199 8.22021 33.5899 8.22021 33.5899 17.3002C33.5899 17.3002 33.2799 26.2602 43.3199 26.2602C43.3199 26.2602 53.2699 26.2502 53.2699 17.3002C53.2699 17.3002 53.5899 8.22021 43.3199 8.22021ZM43.3199 21.0902C41.2299 21.0902 39.5399 19.4002 39.5399 17.3102C39.5399 15.2202 41.2399 13.5302 43.3199 13.5302C45.3999 13.5302 47.0999 15.2202 47.0999 17.3102C47.0999 19.4002 45.4099 21.0902 43.3199 21.0902Z" fill="#C6C6C6"/>
<path d="M69.52 8.82021V10.4702C69.52 10.4702 67.83 8.23021 64.58 8.23021C64.58 8.23021 56.25 7.88021 56.25 17.2502C56.25 17.2502 56.16 25.9802 64.35 25.9802C64.35 25.9802 67.69 26.1202 69.52 23.7402V25.1102C69.52 25.1102 69.93 29.4102 65.77 29.4102H64.35V34.6302H66.64C66.64 34.6302 75.24 34.7202 75.24 25.4302V8.82021H69.52ZM66 21.0902C63.91 21.0902 62.22 19.4002 62.22 17.3102C62.22 15.2202 63.91 13.5302 66 13.5302C68.09 13.5302 69.78 15.2202 69.78 17.3102C69.78 19.4002 68.09 21.0902 66 21.0902Z" fill="#C6C6C6"/>
</svg>
