<svg width="36" height="36" viewBox="0 0 36 36" fill="none" xmlns="http://www.w3.org/2000/svg">
<path d="M27.2404 6.35986C26.0904 6.35986 25.1504 7.29986 25.1504 8.44986C25.1504 9.59986 26.0904 10.5399 27.2404 10.5399C28.3904 10.5399 29.3304 9.59986 29.3304 8.44986C29.3304 7.29986 28.3904 6.35986 27.2404 6.35986Z" fill="#C6C6C6"/>
<path d="M17.9595 9.03955C13.1195 9.03955 9.18945 12.9796 9.18945 17.8096C9.18945 22.6396 13.1295 26.5796 17.9595 26.5796C22.7895 26.5796 26.7295 22.6396 26.7295 17.8096C26.7295 12.9796 22.7895 9.03955 17.9595 9.03955ZM17.9595 23.4296C14.8595 23.4296 12.3395 20.9096 12.3395 17.8096C12.3395 14.7096 14.8595 12.1896 17.9595 12.1896C21.0595 12.1896 23.5795 14.7096 23.5795 17.8096C23.5795 20.9096 21.0595 23.4296 17.9595 23.4296Z" fill="#C6C6C6"/>
<path d="M24.92 35.6298H10.7C4.80001 35.6298 0 30.8298 0 24.9298V10.7098C0 4.80977 4.80001 0.00976562 10.7 0.00976562H24.92C30.82 0.00976562 35.62 4.80977 35.62 10.7098V24.9298C35.62 30.8298 30.82 35.6298 24.92 35.6298ZM10.7 3.34977C6.65001 3.34977 3.35001 6.64977 3.35001 10.6998V24.9198C3.35001 28.9698 6.65001 32.2698 10.7 32.2698H24.92C28.97 32.2698 32.27 28.9698 32.27 24.9198V10.6998C32.27 6.64977 28.97 3.34977 24.92 3.34977H10.7Z" fill="#C6C6C6"/>
</svg>
