<?xml version="1.0" encoding="utf-8"?>
<!-- Generator: Adobe Illustrator 28.2.0, SVG Export Plug-In . SVG Version: 6.00 Build 0)  -->
<svg version="1.1" id="Layer_1" xmlns="http://www.w3.org/2000/svg" xmlns:xlink="http://www.w3.org/1999/xlink" x="0px" y="0px"
	 viewBox="0 0 108 108" style="enable-background:new 0 0 108 108;" xml:space="preserve">
<style type="text/css">
	.st0{fill:#231F20;}
</style>
<g>
	<g>
		<path class="st0" d="M56.91,8.95l-1.09,0.02l-4.03-5.62l-0.07,0l0.09,5.69l-1.18,0.02L50.5,1.28l1.1-0.02l4.03,5.63l0.07,0
			L55.6,1.19l1.18-0.02L56.91,8.95z"/>
		<path class="st0" d="M59.31,9.01c-0.38-0.3-0.65-0.69-0.81-1.17c-0.16-0.48-0.2-1.01-0.12-1.61c0.08-0.59,0.27-1.1,0.56-1.52
			c0.29-0.43,0.65-0.74,1.09-0.93s0.92-0.25,1.45-0.18c0.46,0.07,0.88,0.23,1.24,0.48c0.36,0.26,0.63,0.62,0.8,1.08
			s0.21,1.03,0.12,1.7l-0.06,0.4l-4.6-0.65l0.12-0.85l3.49,0.49c0.04-0.29,0.02-0.56-0.07-0.8s-0.23-0.45-0.43-0.62
			c-0.2-0.16-0.44-0.26-0.73-0.3c-0.31-0.04-0.59-0.01-0.85,0.11c-0.25,0.12-0.46,0.29-0.63,0.52c-0.17,0.23-0.27,0.49-0.31,0.78
			l-0.09,0.66c-0.05,0.38-0.03,0.71,0.07,1.01c0.1,0.29,0.26,0.52,0.49,0.7c0.22,0.18,0.5,0.29,0.82,0.33
			c0.21,0.03,0.4,0.02,0.57-0.01s0.33-0.09,0.45-0.16c0.13-0.08,0.23-0.17,0.32-0.28l1.15,0.16c-0.13,0.3-0.32,0.56-0.58,0.76
			c-0.25,0.2-0.55,0.35-0.91,0.43c-0.35,0.08-0.74,0.09-1.15,0.04C60.16,9.51,59.69,9.32,59.31,9.01z"/>
		<path class="st0" d="M65.47,4.24l1.13,0.35l-0.17,4.43l0.05,0.02l2.35-3.76l1.13,0.35l-0.17,4.4l0.06,0.02l2.33-3.73l1.12,0.35
			l-3.35,5.07l-1.12-0.34l0.11-4.36L68.88,7l-2.36,3.67l-1.12-0.35L65.47,4.24z"/>
		<path class="st0" d="M77.02,9.63c-0.11-0.2-0.3-0.37-0.58-0.51c-0.19-0.09-0.38-0.15-0.56-0.16s-0.34,0.01-0.49,0.08
			c-0.14,0.06-0.24,0.16-0.31,0.3c-0.07,0.16-0.07,0.32,0.01,0.5c0.08,0.17,0.24,0.36,0.5,0.57l0.74,0.6
			c0.43,0.34,0.7,0.69,0.83,1.04c0.12,0.35,0.1,0.71-0.08,1.08c-0.16,0.32-0.38,0.56-0.67,0.72c-0.29,0.16-0.63,0.23-1.02,0.21
			s-0.81-0.14-1.25-0.35c-0.42-0.2-0.75-0.44-0.99-0.7c-0.24-0.27-0.4-0.56-0.47-0.88c-0.07-0.32-0.05-0.65,0.07-0.99l1.06,0.51
			c-0.07,0.26-0.04,0.49,0.08,0.69c0.12,0.21,0.34,0.38,0.65,0.53c0.22,0.11,0.43,0.17,0.63,0.2c0.19,0.02,0.36,0,0.5-0.06
			c0.14-0.06,0.25-0.17,0.32-0.32c0.08-0.17,0.08-0.34,0.01-0.51c-0.08-0.17-0.24-0.36-0.49-0.56l-0.73-0.58
			c-0.42-0.33-0.69-0.68-0.82-1.04s-0.1-0.73,0.08-1.09c0.15-0.31,0.37-0.54,0.65-0.7c0.29-0.16,0.61-0.23,0.98-0.21
			c0.37,0.02,0.76,0.12,1.16,0.32c0.38,0.18,0.68,0.41,0.91,0.67c0.23,0.26,0.37,0.55,0.43,0.86c0.06,0.31,0.03,0.62-0.09,0.93
			l-0.99-0.48C77.16,10.05,77.13,9.83,77.02,9.63z"/>
		<path class="st0" d="M82.9,11.85l0.9,0.64l-0.54,0.76l0.05,0.04c0.27-0.2,0.56-0.29,0.89-0.29c0.32,0.01,0.62,0.1,0.9,0.29
			c0.22,0.16,0.35,0.27,0.39,0.31l-0.63,0.9c-0.05-0.05-0.11-0.12-0.19-0.2s-0.17-0.15-0.26-0.21c-0.21-0.15-0.44-0.24-0.68-0.27
			c-0.24-0.03-0.46,0.01-0.68,0.1s-0.39,0.24-0.54,0.45l-2.05,2.91l-0.94-0.66L82.9,11.85z"/>
		<path class="st0" d="M83.69,19.38c-0.14-0.46-0.15-0.94-0.02-1.42s0.39-0.96,0.79-1.41c0.4-0.45,0.83-0.77,1.3-0.96
			c0.47-0.19,0.94-0.24,1.42-0.16s0.92,0.31,1.33,0.67c0.41,0.36,0.68,0.77,0.82,1.23s0.15,0.93,0.01,1.42s-0.4,0.96-0.8,1.41
			c-0.4,0.45-0.83,0.77-1.29,0.96c-0.47,0.19-0.94,0.25-1.41,0.16s-0.91-0.31-1.32-0.66C84.11,20.25,83.83,19.84,83.69,19.38z
			 M85.98,20.27c0.3,0.02,0.59-0.05,0.88-0.21c0.29-0.16,0.57-0.38,0.82-0.67s0.44-0.58,0.56-0.89c0.12-0.31,0.15-0.61,0.1-0.9
			s-0.21-0.55-0.46-0.78c-0.26-0.23-0.54-0.35-0.83-0.37c-0.3-0.02-0.6,0.05-0.89,0.21c-0.29,0.16-0.57,0.38-0.83,0.66
			c-0.25,0.29-0.44,0.59-0.55,0.9c-0.12,0.31-0.15,0.61-0.09,0.91c0.06,0.29,0.21,0.55,0.47,0.78
			C85.41,20.13,85.68,20.25,85.98,20.27z"/>
		<path class="st0" d="M88.2,23.67c-0.08-0.48-0.02-0.95,0.17-1.41c0.2-0.47,0.52-0.9,0.97-1.29c0.46-0.39,0.93-0.65,1.42-0.78
			c0.49-0.13,0.97-0.12,1.43,0.03s0.87,0.43,1.23,0.84c0.35,0.41,0.57,0.85,0.65,1.33c0.08,0.48,0.02,0.95-0.18,1.41
			c-0.2,0.47-0.53,0.9-0.98,1.29c-0.45,0.39-0.92,0.65-1.41,0.78c-0.49,0.13-0.96,0.12-1.42-0.03c-0.46-0.15-0.87-0.43-1.22-0.83
			C88.5,24.59,88.28,24.15,88.2,23.67z M90.35,24.85c0.29,0.06,0.59,0.03,0.9-0.09c0.31-0.12,0.61-0.3,0.9-0.55
			c0.29-0.25,0.52-0.52,0.68-0.81c0.16-0.29,0.23-0.58,0.22-0.88c-0.01-0.3-0.13-0.58-0.36-0.83c-0.22-0.26-0.48-0.42-0.78-0.48
			c-0.29-0.06-0.6-0.03-0.91,0.09c-0.31,0.12-0.61,0.3-0.91,0.55c-0.29,0.25-0.51,0.53-0.67,0.82c-0.16,0.29-0.23,0.59-0.21,0.88
			c0.02,0.3,0.14,0.58,0.36,0.84C89.8,24.64,90.06,24.8,90.35,24.85z"/>
		<path class="st0" d="M96.36,24.66l0.57,0.94l-0.81,0.49l0.04,0.06c0.34-0.06,0.66-0.02,0.96,0.12c0.3,0.14,0.55,0.38,0.75,0.7
			c0.13,0.22,0.22,0.43,0.26,0.65s0.03,0.43-0.02,0.63c-0.06,0.21-0.15,0.4-0.29,0.59l0.03,0.05c0.23-0.03,0.45-0.01,0.67,0.06
			c0.22,0.06,0.42,0.17,0.62,0.32c0.19,0.15,0.36,0.35,0.5,0.59c0.19,0.31,0.29,0.61,0.3,0.92c0.01,0.31-0.07,0.61-0.25,0.89
			c-0.18,0.29-0.45,0.54-0.82,0.77l-3.33,2.03l-0.6-0.98l3.24-1.98c0.32-0.2,0.51-0.43,0.56-0.7s0-0.54-0.17-0.81
			c-0.13-0.21-0.28-0.36-0.46-0.45s-0.37-0.14-0.57-0.12c-0.2,0.01-0.41,0.08-0.61,0.2l-3.17,1.93l-0.59-0.97l3.31-2.02
			c0.17-0.11,0.31-0.24,0.4-0.39c0.09-0.16,0.13-0.33,0.12-0.51c-0.01-0.18-0.07-0.36-0.18-0.54c-0.11-0.18-0.26-0.32-0.45-0.42
			c-0.19-0.1-0.4-0.14-0.63-0.13s-0.45,0.08-0.67,0.22l-3.07,1.87l-0.6-0.98L96.36,24.66z"/>
		<path class="st0" d="M102.68,36.36l0.31,1.05l-0.91,0.27l0.02,0.07c0.34,0.02,0.64,0.14,0.89,0.36c0.25,0.21,0.43,0.5,0.54,0.87
			c0.07,0.24,0.1,0.48,0.08,0.7s-0.08,0.42-0.18,0.61c-0.11,0.19-0.25,0.35-0.44,0.49l0.02,0.06c0.23,0.03,0.44,0.11,0.64,0.22
			s0.37,0.27,0.51,0.47c0.14,0.2,0.26,0.43,0.34,0.7c0.1,0.34,0.12,0.67,0.05,0.97c-0.07,0.3-0.22,0.57-0.47,0.8
			c-0.25,0.23-0.58,0.41-0.99,0.53l-3.74,1.12l-0.33-1.1l3.64-1.09c0.36-0.11,0.6-0.29,0.72-0.53c0.12-0.25,0.14-0.52,0.04-0.83
			c-0.07-0.23-0.18-0.42-0.33-0.56s-0.32-0.22-0.52-0.26c-0.2-0.04-0.41-0.02-0.64,0.04l-3.56,1.06l-0.33-1.09l3.72-1.11
			c0.2-0.06,0.36-0.15,0.49-0.28s0.21-0.28,0.25-0.46s0.02-0.37-0.04-0.57c-0.06-0.21-0.17-0.38-0.33-0.52
			c-0.16-0.14-0.35-0.24-0.58-0.28c-0.22-0.05-0.46-0.03-0.7,0.04l-3.45,1.03l-0.33-1.1L102.68,36.36z"/>
		<path class="st0" d="M99.87,47.87c0.2-0.44,0.51-0.8,0.93-1.08c0.42-0.28,0.93-0.46,1.52-0.53c0.6-0.07,1.14-0.03,1.61,0.14
			c0.48,0.17,0.87,0.44,1.17,0.82c0.3,0.38,0.48,0.84,0.55,1.38c0.07,0.54,0,1.02-0.2,1.46c-0.2,0.44-0.51,0.8-0.93,1.07
			c-0.42,0.28-0.93,0.45-1.53,0.52c-0.59,0.07-1.13,0.03-1.61-0.14s-0.87-0.44-1.16-0.81s-0.48-0.84-0.55-1.37
			C99.6,48.8,99.67,48.31,99.87,47.87z M101,50.05c0.21,0.21,0.48,0.35,0.8,0.43c0.32,0.08,0.67,0.09,1.06,0.04
			c0.38-0.05,0.72-0.15,1.01-0.3s0.52-0.36,0.67-0.61c0.15-0.26,0.21-0.55,0.17-0.89c-0.04-0.34-0.17-0.62-0.38-0.83
			c-0.21-0.21-0.48-0.36-0.8-0.43c-0.32-0.08-0.68-0.09-1.06-0.05c-0.38,0.05-0.72,0.15-1.01,0.31c-0.29,0.15-0.52,0.36-0.67,0.62
			c-0.15,0.26-0.21,0.56-0.17,0.9C100.66,49.56,100.79,49.84,101,50.05z"/>
		<path class="st0" d="M105.94,52.98l0.02,1.11l-0.93,0.02l0,0.06c0.32,0.1,0.57,0.28,0.76,0.55c0.19,0.27,0.29,0.57,0.29,0.9
			c0,0.27-0.01,0.44-0.02,0.5l-1.1,0.02c0.02-0.07,0.03-0.16,0.05-0.27c0.01-0.11,0.02-0.22,0.02-0.33c0-0.26-0.06-0.5-0.18-0.7
			s-0.28-0.37-0.48-0.49c-0.2-0.12-0.43-0.18-0.68-0.17l-3.55,0.06l-0.02-1.14L105.94,52.98z"/>
		<path class="st0" d="M100.31,58.07c0.29-0.39,0.66-0.68,1.13-0.86c0.47-0.18,1-0.25,1.6-0.19c0.59,0.06,1.11,0.22,1.54,0.49
			c0.44,0.27,0.76,0.62,0.98,1.04c0.21,0.43,0.29,0.91,0.24,1.44c-0.04,0.47-0.18,0.89-0.42,1.26s-0.59,0.65-1.05,0.85
			c-0.46,0.19-1.02,0.26-1.69,0.2l-0.4-0.04l0.44-4.62l0.85,0.08l-0.33,3.51c0.29,0.03,0.56-0.01,0.8-0.11
			c0.24-0.1,0.44-0.25,0.6-0.46c0.15-0.21,0.24-0.46,0.27-0.74c0.03-0.31-0.02-0.59-0.15-0.84c-0.13-0.25-0.31-0.45-0.55-0.6
			c-0.24-0.15-0.5-0.25-0.79-0.28l-0.66-0.06c-0.38-0.04-0.72,0-1,0.12c-0.29,0.11-0.51,0.29-0.68,0.52
			c-0.17,0.23-0.27,0.51-0.3,0.83c-0.02,0.21,0,0.4,0.04,0.57c0.04,0.17,0.1,0.32,0.18,0.45c0.08,0.12,0.18,0.23,0.29,0.31
			l-0.11,1.16c-0.31-0.12-0.57-0.3-0.79-0.54c-0.21-0.24-0.37-0.54-0.47-0.89c-0.1-0.35-0.13-0.73-0.09-1.15
			C99.85,58.94,100.02,58.46,100.31,58.07z"/>
		<path class="st0" d="M100.99,70.14c0.1-0.09,0.22-0.15,0.35-0.17c0.13-0.03,0.26-0.02,0.39,0.03c0.13,0.04,0.24,0.11,0.33,0.21
			c0.09,0.1,0.15,0.22,0.17,0.35c0.03,0.13,0.02,0.26-0.03,0.4c-0.04,0.13-0.11,0.24-0.21,0.33c-0.1,0.09-0.22,0.15-0.35,0.18
			c-0.13,0.03-0.26,0.02-0.39-0.02c-0.13-0.04-0.24-0.12-0.33-0.22c-0.09-0.1-0.15-0.22-0.18-0.35c-0.03-0.13-0.02-0.26,0.02-0.39
			C100.81,70.34,100.89,70.23,100.99,70.14z"/>
		<path class="st0" d="M92.9,79.98l0.53-0.95l6.89-0.7l0.03-0.06l-4.98-2.75l0.57-1.03l6.81,3.76l-0.53,0.96l-6.89,0.69l-0.03,0.06
			l4.98,2.76l-0.57,1.03L92.9,79.98z"/>
		<path class="st0" d="M91.68,82.05c0.45-0.18,0.92-0.22,1.42-0.13c0.5,0.1,0.98,0.33,1.46,0.69c0.47,0.36,0.82,0.77,1.05,1.23
			s0.32,0.93,0.27,1.4s-0.23,0.93-0.56,1.35c-0.29,0.37-0.63,0.65-1.03,0.84c-0.4,0.19-0.84,0.24-1.34,0.16s-1-0.32-1.54-0.73
			l-0.32-0.25l2.83-3.69l0.68,0.52l-2.14,2.8c0.23,0.18,0.48,0.29,0.73,0.34s0.51,0.02,0.75-0.07s0.45-0.26,0.62-0.48
			c0.19-0.25,0.3-0.51,0.32-0.79s-0.02-0.55-0.15-0.81c-0.12-0.26-0.3-0.48-0.53-0.66l-0.53-0.41c-0.3-0.23-0.61-0.38-0.91-0.43
			c-0.3-0.06-0.59-0.03-0.85,0.08s-0.5,0.29-0.7,0.55c-0.12,0.17-0.21,0.33-0.27,0.5c-0.06,0.17-0.08,0.33-0.08,0.48
			c0,0.15,0.03,0.29,0.09,0.42l-0.71,0.92c-0.2-0.26-0.33-0.56-0.38-0.88c-0.05-0.32-0.03-0.65,0.07-1c0.1-0.35,0.28-0.69,0.54-1.02
			C90.83,82.55,91.23,82.24,91.68,82.05z"/>
		<path class="st0" d="M92.82,89.75l-0.86,0.82l-3.77-2.32l-0.04,0.04l2.12,3.89l-0.86,0.82l-3.75-2.3l-0.04,0.04l2.11,3.86
			l-0.85,0.81L84.09,90l0.85-0.81l3.75,2.23l0.06-0.06l-2.04-3.85l0.85-0.81L92.82,89.75z"/>
		<path class="st0" d="M82.48,97.17c0.23,0,0.47-0.08,0.72-0.26c0.18-0.12,0.31-0.26,0.42-0.41s0.16-0.31,0.17-0.46
			c0.01-0.15-0.02-0.29-0.11-0.41c-0.1-0.14-0.25-0.22-0.44-0.23c-0.19-0.02-0.44,0.03-0.74,0.16l-0.88,0.35
			c-0.51,0.21-0.94,0.28-1.31,0.21c-0.37-0.06-0.67-0.26-0.9-0.59c-0.2-0.29-0.3-0.61-0.3-0.94c0-0.33,0.1-0.66,0.31-1
			s0.51-0.64,0.92-0.92c0.38-0.26,0.74-0.44,1.1-0.52c0.35-0.08,0.68-0.08,0.99,0.02c0.31,0.1,0.59,0.28,0.83,0.54l-0.96,0.67
			c-0.19-0.19-0.41-0.28-0.64-0.27c-0.24,0-0.5,0.11-0.78,0.31c-0.2,0.14-0.36,0.29-0.48,0.45c-0.12,0.16-0.18,0.31-0.19,0.47
			c-0.01,0.15,0.03,0.3,0.12,0.43c0.11,0.15,0.25,0.24,0.44,0.26S81.2,95,81.5,94.88l0.86-0.35c0.5-0.21,0.93-0.27,1.31-0.21
			c0.38,0.07,0.68,0.27,0.92,0.6c0.19,0.28,0.29,0.58,0.29,0.91c0,0.33-0.1,0.65-0.3,0.96c-0.2,0.32-0.48,0.6-0.85,0.86
			c-0.35,0.24-0.69,0.4-1.03,0.47c-0.34,0.07-0.66,0.06-0.96-0.04s-0.55-0.28-0.77-0.53l0.9-0.63
			C82.05,97.08,82.25,97.17,82.48,97.17z"/>
		<path class="st0" d="M77.65,101.22l-1,0.48l-0.4-0.84l-0.06,0.03c0.04,0.33-0.02,0.63-0.18,0.92c-0.16,0.28-0.4,0.5-0.7,0.64
			c-0.25,0.11-0.4,0.17-0.46,0.18l-0.47-0.99c0.07-0.01,0.16-0.04,0.26-0.07c0.11-0.03,0.21-0.07,0.31-0.12
			c0.24-0.11,0.42-0.27,0.56-0.46s0.22-0.41,0.25-0.64c0.02-0.23-0.02-0.46-0.13-0.69l-1.54-3.21l1.03-0.49L77.65,101.22z"/>
		<path class="st0" d="M70.71,98.22c0.47,0.1,0.89,0.33,1.25,0.68c0.36,0.35,0.64,0.81,0.84,1.38c0.2,0.57,0.26,1.1,0.2,1.61
			s-0.25,0.94-0.55,1.31s-0.72,0.65-1.24,0.83c-0.51,0.18-1,0.22-1.47,0.11c-0.47-0.1-0.89-0.33-1.25-0.69s-0.64-0.82-0.84-1.39
			c-0.2-0.56-0.26-1.1-0.2-1.6s0.24-0.94,0.55-1.31s0.71-0.65,1.23-0.83C69.74,98.16,70.24,98.12,70.71,98.22z M68.82,99.79
			c-0.16,0.25-0.24,0.54-0.25,0.87s0.05,0.68,0.18,1.04c0.13,0.36,0.29,0.67,0.51,0.93c0.21,0.26,0.46,0.43,0.74,0.53
			c0.28,0.1,0.58,0.09,0.9-0.02c0.33-0.11,0.57-0.29,0.73-0.55c0.16-0.25,0.25-0.54,0.25-0.88c0.01-0.33-0.05-0.68-0.17-1.04
			c-0.13-0.36-0.3-0.67-0.51-0.92c-0.21-0.26-0.46-0.43-0.74-0.53c-0.28-0.09-0.59-0.08-0.91,0.03
			C69.22,99.36,68.98,99.54,68.82,99.79z"/>
		<path class="st0" d="M64.76,100.06c0.45,0.16,0.84,0.45,1.15,0.84s0.53,0.89,0.64,1.48c0.12,0.59,0.11,1.13-0.02,1.62
			c-0.13,0.49-0.37,0.9-0.73,1.23c-0.35,0.33-0.8,0.54-1.34,0.65c-0.53,0.11-1.02,0.08-1.47-0.08s-0.83-0.45-1.14-0.85
			c-0.31-0.4-0.52-0.9-0.64-1.49c-0.12-0.59-0.11-1.12,0.01-1.61s0.37-0.9,0.72-1.22c0.35-0.33,0.8-0.54,1.33-0.65
			C63.81,99.86,64.3,99.89,64.76,100.06z M62.67,101.35c-0.19,0.23-0.32,0.5-0.37,0.83c-0.05,0.33-0.04,0.68,0.04,1.06
			c0.08,0.38,0.2,0.7,0.38,0.99c0.17,0.28,0.39,0.49,0.66,0.62c0.27,0.13,0.57,0.17,0.9,0.1c0.34-0.07,0.6-0.22,0.8-0.44
			c0.2-0.23,0.32-0.51,0.37-0.83c0.05-0.33,0.04-0.68-0.03-1.06c-0.08-0.38-0.21-0.7-0.38-0.99s-0.4-0.49-0.67-0.62
			c-0.27-0.13-0.57-0.16-0.91-0.1C63.13,100.98,62.86,101.12,62.67,101.35z"/>
		<path class="st0" d="M59.89,106.67l-1.09,0.04l-0.03-0.95l-0.08,0c-0.11,0.33-0.3,0.58-0.57,0.77s-0.6,0.29-0.98,0.3
			c-0.25,0.01-0.49-0.02-0.69-0.09c-0.21-0.07-0.39-0.18-0.54-0.33c-0.15-0.15-0.27-0.33-0.37-0.55l-0.06,0
			c-0.09,0.21-0.22,0.4-0.38,0.56c-0.16,0.16-0.36,0.29-0.58,0.38c-0.23,0.09-0.48,0.14-0.76,0.15c-0.36,0.01-0.67-0.05-0.95-0.19
			c-0.28-0.14-0.49-0.36-0.66-0.65c-0.16-0.3-0.25-0.66-0.27-1.09l-0.13-3.9l1.15-0.04l0.13,3.8c0.02,0.38,0.13,0.65,0.33,0.83
			c0.21,0.18,0.47,0.26,0.79,0.25c0.24-0.01,0.45-0.07,0.62-0.17c0.17-0.11,0.3-0.25,0.39-0.44c0.09-0.18,0.13-0.39,0.12-0.63
			l-0.13-3.71l1.14-0.04l0.13,3.88c0.01,0.2,0.06,0.38,0.15,0.54c0.09,0.16,0.22,0.27,0.39,0.36c0.17,0.08,0.35,0.12,0.56,0.11
			c0.21-0.01,0.41-0.07,0.59-0.19s0.32-0.28,0.42-0.48s0.15-0.44,0.14-0.69l-0.12-3.6l1.14-0.04L59.89,106.67z"/>
		<path class="st0" d="M46.58,106.44l-1.07-0.24l0.21-0.93l-0.07-0.02c-0.19,0.29-0.44,0.49-0.75,0.61
			c-0.31,0.12-0.65,0.13-1.02,0.05c-0.25-0.06-0.46-0.15-0.65-0.27s-0.33-0.27-0.44-0.46c-0.11-0.18-0.18-0.39-0.22-0.62l-0.06-0.01
			c-0.14,0.18-0.31,0.33-0.51,0.44c-0.2,0.12-0.42,0.19-0.66,0.22c-0.24,0.03-0.5,0.01-0.77-0.05c-0.35-0.08-0.64-0.22-0.87-0.43
			c-0.23-0.21-0.39-0.47-0.47-0.8c-0.08-0.33-0.08-0.7,0.02-1.12L40.11,99l1.12,0.25l-0.83,3.71c-0.08,0.37-0.04,0.66,0.11,0.89
			c0.16,0.23,0.39,0.37,0.7,0.44c0.24,0.05,0.45,0.05,0.64-0.01s0.35-0.17,0.48-0.33c0.13-0.16,0.22-0.35,0.28-0.58l0.82-3.63
			l1.11,0.25l-0.85,3.78c-0.04,0.2-0.04,0.39,0.01,0.56c0.05,0.17,0.14,0.32,0.28,0.44c0.14,0.12,0.31,0.2,0.51,0.25
			c0.21,0.05,0.42,0.04,0.62-0.03c0.2-0.07,0.38-0.19,0.53-0.36c0.15-0.17,0.25-0.38,0.31-0.63l0.79-3.51l1.12,0.25L46.58,106.44z"
			/>
		<path class="st0" d="M37.94,98.37c0.29,0.39,0.45,0.83,0.48,1.34c0.04,0.5-0.06,1.03-0.28,1.59c-0.23,0.56-0.53,1-0.91,1.34
			c-0.38,0.33-0.81,0.54-1.29,0.62c-0.48,0.08-0.97,0.01-1.47-0.2c-0.5-0.21-0.89-0.5-1.18-0.89c-0.29-0.39-0.45-0.83-0.48-1.34
			s0.06-1.04,0.29-1.59c0.23-0.55,0.53-1,0.91-1.33c0.38-0.33,0.8-0.54,1.28-0.62s0.96-0.01,1.46,0.19
			C37.26,97.68,37.66,97.98,37.94,98.37z M35.49,98.29c-0.29,0.08-0.54,0.24-0.77,0.49c-0.22,0.24-0.41,0.54-0.55,0.9
			c-0.15,0.35-0.22,0.7-0.24,1.03c-0.01,0.33,0.06,0.63,0.2,0.89c0.15,0.26,0.38,0.45,0.69,0.58c0.32,0.13,0.62,0.16,0.91,0.07
			s0.55-0.24,0.77-0.49c0.23-0.24,0.41-0.54,0.56-0.9c0.14-0.36,0.22-0.7,0.23-1.03c0.01-0.33-0.06-0.63-0.21-0.89
			c-0.15-0.26-0.38-0.45-0.7-0.58C36.08,98.23,35.77,98.21,35.49,98.29z"/>
		<path class="st0" d="M30.49,101.16l-0.97-0.53l0.45-0.82l-0.06-0.03c-0.24,0.23-0.52,0.36-0.85,0.39
			c-0.32,0.03-0.63-0.03-0.93-0.19c-0.24-0.14-0.38-0.22-0.42-0.26l0.52-0.96c0.05,0.05,0.12,0.11,0.21,0.17s0.18,0.13,0.28,0.18
			c0.23,0.12,0.46,0.19,0.7,0.19c0.24,0,0.46-0.06,0.66-0.17s0.36-0.29,0.48-0.5l1.7-3.12l1,0.55L30.49,101.16z"/>
		<path class="st0" d="M28.83,93.75c0.2,0.44,0.27,0.91,0.19,1.41c-0.07,0.5-0.28,0.99-0.62,1.48c-0.34,0.49-0.73,0.86-1.18,1.11
			s-0.91,0.36-1.39,0.34c-0.48-0.03-0.94-0.19-1.38-0.5c-0.38-0.27-0.68-0.6-0.89-0.99c-0.21-0.39-0.28-0.83-0.22-1.33
			c0.06-0.5,0.28-1.02,0.66-1.57l0.23-0.33l3.81,2.66l-0.49,0.7l-2.89-2.01c-0.17,0.24-0.27,0.49-0.3,0.75
			c-0.04,0.26,0,0.51,0.11,0.75s0.28,0.44,0.51,0.6c0.26,0.18,0.52,0.27,0.8,0.28s0.55-0.05,0.8-0.18s0.46-0.32,0.63-0.55l0.38-0.55
			c0.22-0.31,0.35-0.62,0.39-0.93s0-0.59-0.12-0.85c-0.12-0.26-0.31-0.48-0.58-0.67c-0.17-0.12-0.34-0.2-0.51-0.25
			s-0.33-0.07-0.48-0.06c-0.15,0.01-0.29,0.04-0.41,0.11l-0.96-0.67c0.26-0.21,0.54-0.35,0.86-0.42c0.32-0.07,0.65-0.06,1,0.03
			c0.35,0.09,0.7,0.25,1.04,0.49C28.29,92.92,28.63,93.3,28.83,93.75z"/>
		<path class="st0" d="M17.98,88.41c0.03,0.13,0.02,0.26-0.02,0.39c-0.04,0.13-0.11,0.24-0.22,0.33c-0.1,0.09-0.21,0.16-0.35,0.18
			s-0.26,0.02-0.39-0.02c-0.13-0.04-0.24-0.11-0.33-0.22c-0.09-0.1-0.15-0.22-0.18-0.35s-0.02-0.26,0.02-0.39
			c0.04-0.13,0.11-0.24,0.21-0.33c0.1-0.09,0.22-0.15,0.35-0.18s0.26-0.02,0.39,0.02s0.24,0.11,0.33,0.21
			C17.89,88.16,17.95,88.27,17.98,88.41z"/>
		<path class="st0" d="M13.37,76.55l0.57,0.92l-2.75,6.35l0.04,0.06l4.83-3l0.62,1l-6.61,4.1l-0.58-0.93l2.76-6.35l-0.04-0.06
			l-4.84,3l-0.62-1L13.37,76.55z"/>
		<path class="st0" d="M12.15,74.48c-0.06,0.48-0.26,0.92-0.58,1.3c-0.33,0.39-0.76,0.7-1.31,0.93c-0.55,0.24-1.08,0.34-1.59,0.32
			C8.15,77,7.7,76.85,7.31,76.58c-0.39-0.27-0.69-0.66-0.91-1.15C6.22,75,6.14,74.56,6.17,74.12c0.03-0.44,0.2-0.86,0.51-1.25
			s0.77-0.72,1.39-0.98l0.37-0.16L10.27,76l-0.78,0.34L8.1,73.1c-0.27,0.11-0.48,0.27-0.65,0.48c-0.17,0.2-0.27,0.43-0.3,0.69
			c-0.03,0.26,0.01,0.52,0.12,0.78c0.12,0.29,0.3,0.51,0.53,0.67c0.23,0.16,0.49,0.25,0.77,0.27s0.56-0.03,0.83-0.14l0.61-0.26
			c0.35-0.15,0.63-0.34,0.82-0.58c0.2-0.24,0.31-0.5,0.35-0.78c0.04-0.28-0.01-0.58-0.14-0.88c-0.09-0.19-0.19-0.35-0.31-0.48
			s-0.24-0.23-0.38-0.3c-0.13-0.07-0.27-0.11-0.41-0.13l-0.46-1.07c0.33-0.04,0.64-0.01,0.95,0.1c0.3,0.11,0.58,0.29,0.84,0.55
			c0.25,0.26,0.46,0.58,0.63,0.97C12.13,73.49,12.21,74,12.15,74.48z"/>
		<path class="st0" d="M4.88,71.7l-0.29-1.15l3.87-2.15l-0.01-0.05l-4.43-0.06l-0.29-1.15l3.85-2.14l-0.01-0.06l-4.4-0.06
			l-0.29-1.14l6.07,0.23l0.29,1.13l-3.78,2.17l0.02,0.08l4.36,0.11l0.29,1.14L4.88,71.7z"/>
		<path class="st0" d="M3.49,59.05c-0.12,0.2-0.16,0.45-0.13,0.76c0.02,0.21,0.07,0.4,0.16,0.57c0.08,0.16,0.19,0.29,0.32,0.37
			s0.27,0.12,0.41,0.11c0.17-0.02,0.31-0.11,0.42-0.27c0.11-0.16,0.18-0.4,0.23-0.72l0.13-0.95c0.07-0.54,0.22-0.96,0.46-1.25
			s0.56-0.45,0.96-0.5c0.35-0.03,0.67,0.04,0.96,0.2c0.29,0.16,0.53,0.42,0.71,0.76c0.19,0.34,0.3,0.76,0.35,1.25
			c0.04,0.46,0.01,0.86-0.09,1.21s-0.27,0.63-0.5,0.85s-0.53,0.38-0.88,0.46l-0.11-1.17c0.26-0.07,0.44-0.22,0.55-0.43
			c0.11-0.21,0.15-0.49,0.12-0.83c-0.02-0.25-0.08-0.46-0.16-0.64c-0.08-0.18-0.18-0.31-0.31-0.4c-0.13-0.09-0.27-0.12-0.44-0.11
			c-0.19,0.02-0.33,0.1-0.44,0.26S6.01,59,5.97,59.32l-0.12,0.92c-0.06,0.53-0.22,0.95-0.46,1.24c-0.25,0.3-0.57,0.46-0.97,0.5
			c-0.34,0.03-0.65-0.03-0.93-0.19s-0.51-0.41-0.69-0.73c-0.18-0.32-0.29-0.71-0.33-1.16c-0.04-0.42-0.01-0.8,0.1-1.13
			c0.11-0.33,0.28-0.6,0.51-0.81c0.23-0.21,0.51-0.34,0.84-0.41l0.1,1.09C3.78,58.71,3.6,58.85,3.49,59.05z"/>
		<path class="st0" d="M2.33,52.84l0.07-1.1l0.93,0.06l0-0.06c-0.31-0.12-0.54-0.33-0.71-0.61s-0.24-0.59-0.22-0.92
			c0.03-0.27,0.05-0.43,0.06-0.49l1.09,0.07c-0.02,0.07-0.05,0.16-0.07,0.26c-0.02,0.11-0.04,0.22-0.05,0.33
			c-0.02,0.26,0.02,0.5,0.12,0.72c0.1,0.22,0.25,0.39,0.44,0.53c0.19,0.13,0.41,0.21,0.66,0.23l3.55,0.23l-0.07,1.14L2.33,52.84z"/>
		<path class="st0" d="M8.34,48.26c-0.32,0.36-0.72,0.61-1.21,0.76c-0.49,0.14-1.02,0.16-1.61,0.06c-0.59-0.11-1.09-0.31-1.5-0.61
			s-0.7-0.68-0.87-1.13s-0.21-0.94-0.12-1.48c0.09-0.53,0.3-0.98,0.62-1.34s0.72-0.61,1.21-0.75c0.49-0.14,1.03-0.16,1.62-0.05
			c0.59,0.1,1.09,0.31,1.49,0.6c0.41,0.3,0.7,0.67,0.87,1.12c0.17,0.45,0.21,0.94,0.12,1.47C8.87,47.44,8.66,47.9,8.34,48.26z
			 M7.91,45.84c-0.14-0.26-0.35-0.48-0.64-0.65s-0.62-0.28-1-0.35c-0.38-0.07-0.73-0.07-1.06-0.01c-0.33,0.06-0.6,0.19-0.82,0.39
			s-0.36,0.47-0.42,0.8c-0.06,0.34-0.02,0.64,0.12,0.9c0.14,0.27,0.35,0.48,0.64,0.65s0.62,0.29,0.99,0.36
			C6.1,48,6.45,48,6.78,47.94s0.6-0.19,0.82-0.39s0.36-0.47,0.42-0.81C8.08,46.4,8.04,46.1,7.91,45.84z"/>
		<path class="st0" d="M9.65,42.18c-0.36,0.32-0.8,0.51-1.3,0.59c-0.5,0.08-1.04,0.02-1.6-0.16c-0.57-0.18-1.04-0.45-1.4-0.81
			s-0.6-0.77-0.71-1.23s-0.08-0.96,0.08-1.49c0.17-0.51,0.43-0.93,0.8-1.24s0.8-0.51,1.3-0.58s1.04-0.02,1.61,0.17
			c0.57,0.18,1.04,0.45,1.4,0.8s0.6,0.76,0.71,1.23c0.11,0.47,0.09,0.96-0.08,1.48C10.28,41.45,10.02,41.87,9.65,42.18z M9.54,39.73
			c-0.1-0.28-0.28-0.52-0.54-0.73c-0.26-0.2-0.57-0.37-0.94-0.48c-0.36-0.12-0.71-0.17-1.04-0.16s-0.62,0.1-0.87,0.27
			c-0.25,0.17-0.42,0.41-0.53,0.74c-0.1,0.33-0.11,0.63,0,0.91c0.1,0.28,0.29,0.52,0.55,0.73c0.26,0.21,0.57,0.37,0.94,0.49
			c0.37,0.11,0.71,0.16,1.05,0.15c0.33-0.02,0.62-0.11,0.87-0.28s0.42-0.42,0.53-0.74C9.65,40.31,9.65,40.01,9.54,39.73z"/>
		<path class="st0" d="M6.27,34.69l0.5-0.97l0.84,0.44l0.03-0.07c-0.23-0.26-0.36-0.55-0.4-0.88c-0.03-0.33,0.04-0.66,0.21-1
			c0.12-0.23,0.26-0.41,0.42-0.56c0.16-0.15,0.35-0.25,0.55-0.31c0.2-0.06,0.42-0.08,0.66-0.05l0.03-0.05
			c-0.14-0.18-0.24-0.38-0.3-0.6c-0.06-0.22-0.08-0.45-0.04-0.69c0.03-0.24,0.11-0.49,0.24-0.73c0.16-0.32,0.38-0.56,0.63-0.73
			c0.26-0.17,0.56-0.25,0.89-0.25c0.34,0,0.7,0.1,1.08,0.3l3.47,1.8l-0.53,1.02L11.2,29.6c-0.34-0.17-0.63-0.21-0.89-0.12
			c-0.26,0.09-0.46,0.28-0.61,0.57c-0.11,0.22-0.16,0.42-0.15,0.63s0.08,0.38,0.19,0.55c0.12,0.17,0.28,0.3,0.49,0.42l3.3,1.71
			l-0.52,1.01l-3.44-1.79c-0.18-0.09-0.36-0.14-0.54-0.14c-0.18,0-0.35,0.06-0.5,0.16c-0.15,0.1-0.27,0.25-0.37,0.43
			c-0.1,0.19-0.14,0.39-0.12,0.6c0.02,0.21,0.09,0.41,0.22,0.6c0.13,0.19,0.31,0.34,0.53,0.46l3.19,1.66l-0.53,1.02L6.27,34.69z"/>
		<path class="st0" d="M12.98,23.24l0.73-0.81l0.71,0.64L14.47,23c-0.16-0.31-0.21-0.62-0.16-0.95c0.05-0.33,0.2-0.63,0.46-0.92
			c0.17-0.19,0.35-0.33,0.55-0.43s0.4-0.15,0.61-0.16c0.21-0.01,0.43,0.03,0.65,0.11l0.04-0.04c-0.09-0.21-0.14-0.43-0.14-0.66
			c0-0.23,0.04-0.46,0.13-0.68c0.09-0.23,0.23-0.44,0.42-0.65c0.24-0.27,0.51-0.45,0.8-0.55c0.29-0.1,0.6-0.11,0.93-0.02
			s0.65,0.28,0.97,0.57l2.9,2.62l-0.77,0.85l-2.82-2.54c-0.28-0.25-0.56-0.36-0.83-0.34c-0.27,0.02-0.52,0.16-0.73,0.4
			c-0.16,0.18-0.27,0.37-0.31,0.57s-0.02,0.39,0.05,0.58s0.19,0.37,0.37,0.53l2.76,2.49l-0.76,0.85l-2.88-2.6
			c-0.15-0.14-0.32-0.23-0.49-0.27c-0.18-0.04-0.35-0.03-0.52,0.03c-0.17,0.06-0.33,0.17-0.47,0.33c-0.14,0.16-0.24,0.34-0.27,0.55
			s-0.02,0.42,0.06,0.64c0.08,0.22,0.21,0.41,0.4,0.58l2.67,2.41l-0.77,0.85L12.98,23.24z"/>
		<path class="st0" d="M24.26,19.65c-0.48,0.06-0.95-0.02-1.41-0.23c-0.46-0.21-0.87-0.56-1.25-1.02c-0.37-0.47-0.61-0.95-0.72-1.45
			c-0.11-0.5-0.08-0.97,0.09-1.42c0.17-0.45,0.46-0.85,0.89-1.19c0.42-0.34,0.87-0.53,1.35-0.59c0.48-0.06,0.95,0.02,1.4,0.24
			c0.46,0.22,0.87,0.56,1.25,1.03c0.37,0.47,0.61,0.95,0.72,1.44c0.11,0.49,0.08,0.97-0.09,1.42c-0.17,0.45-0.46,0.85-0.89,1.18
			C25.2,19.39,24.74,19.59,24.26,19.65z M25.54,17.55c0.07-0.29,0.05-0.59-0.05-0.91c-0.1-0.32-0.28-0.62-0.51-0.92
			c-0.24-0.3-0.5-0.54-0.78-0.71c-0.28-0.17-0.57-0.26-0.87-0.26s-0.58,0.11-0.85,0.32c-0.27,0.21-0.44,0.47-0.51,0.76
			s-0.05,0.6,0.05,0.91s0.27,0.63,0.51,0.93c0.24,0.3,0.5,0.53,0.79,0.7c0.28,0.17,0.58,0.26,0.88,0.25c0.3,0,0.58-0.11,0.85-0.33
			C25.3,18.09,25.47,17.84,25.54,17.55z"/>
		<path class="st0" d="M25.49,11.77l0.94-0.59l0.5,0.79l0.05-0.03c-0.08-0.32-0.05-0.63,0.08-0.93c0.13-0.3,0.34-0.54,0.62-0.72
			c0.23-0.14,0.38-0.22,0.44-0.24l0.58,0.93c-0.07,0.02-0.15,0.05-0.25,0.1s-0.2,0.1-0.29,0.16c-0.22,0.14-0.39,0.31-0.51,0.52
			c-0.12,0.21-0.17,0.43-0.17,0.66c0,0.23,0.07,0.46,0.2,0.67l1.89,3.01l-0.97,0.61L25.49,11.77z"/>
		<path class="st0" d="M32.75,13.96c-0.48-0.04-0.93-0.21-1.33-0.52c-0.4-0.31-0.73-0.73-0.99-1.27c-0.26-0.53-0.39-1.06-0.39-1.57
			c0-0.51,0.13-0.97,0.38-1.38c0.25-0.4,0.62-0.72,1.11-0.96c0.42-0.2,0.85-0.3,1.29-0.29c0.44,0.01,0.86,0.16,1.27,0.45
			c0.4,0.29,0.75,0.74,1.04,1.34l0.18,0.36l-4.18,2.03l-0.37-0.77l3.17-1.54c-0.13-0.26-0.3-0.47-0.51-0.63
			c-0.21-0.16-0.44-0.25-0.7-0.27c-0.26-0.02-0.52,0.03-0.77,0.15c-0.28,0.14-0.49,0.32-0.64,0.56c-0.15,0.24-0.22,0.5-0.23,0.79
			c-0.01,0.29,0.05,0.56,0.18,0.82l0.29,0.6c0.17,0.34,0.37,0.61,0.62,0.79c0.25,0.19,0.51,0.29,0.8,0.31s0.58-0.04,0.87-0.18
			c0.19-0.09,0.34-0.2,0.47-0.33c0.13-0.12,0.22-0.25,0.29-0.39s0.1-0.27,0.11-0.41l1.05-0.51c0.06,0.33,0.04,0.64-0.05,0.95
			c-0.09,0.31-0.27,0.6-0.51,0.86c-0.25,0.27-0.56,0.49-0.94,0.67C33.73,13.89,33.24,13.99,32.75,13.96z"/>
		<path class="st0" d="M42.73,7.1c-0.13-0.04-0.24-0.11-0.33-0.21c-0.09-0.1-0.15-0.22-0.18-0.35c-0.03-0.13-0.03-0.26,0.01-0.39
			c0.04-0.13,0.11-0.24,0.21-0.33c0.1-0.09,0.22-0.15,0.35-0.18c0.13-0.03,0.26-0.03,0.39,0.01s0.24,0.11,0.33,0.21
			s0.15,0.21,0.18,0.34c0.03,0.14,0.03,0.27-0.01,0.4c-0.04,0.13-0.11,0.24-0.21,0.33s-0.21,0.16-0.35,0.19
			C42.99,7.15,42.86,7.15,42.73,7.1z"/>
	</g>
</g>
</svg>
