<?xml version="1.0" encoding="utf-8"?>
<!-- Generator: Adobe Illustrator 28.2.0, SVG Export Plug-In . SVG Version: 6.00 Build 0)  -->
<svg version="1.1" id="Layer_1" xmlns="http://www.w3.org/2000/svg" xmlns:xlink="http://www.w3.org/1999/xlink" x="0px" y="0px"
	 viewBox="0 0 16 16" style="enable-background:new 0 0 16 16;" xml:space="preserve">
<style type="text/css">
	.st0{fill:#ED1C24;}
</style>
<path class="st0" d="M7.63,2.72L7.63,2.72c0,0-1.12,0.89-1.14,0.9C6.47,3.62,5.11,3.16,5.11,3.16C5.06,3.14,5,3.14,4.95,3.17
	c-0.06,0.02-0.1,0.05-0.13,0.11c0,0-0.75,1.22-0.76,1.23c-0.02,0-1.45,0.04-1.45,0.04c-0.06,0-0.11,0.02-0.16,0.06
	C2.41,4.64,2.38,4.69,2.37,4.75c0,0-0.29,1.4-0.29,1.42C2.06,6.17,0.73,6.7,0.73,6.7C0.67,6.72,0.63,6.76,0.6,6.81
	C0.58,6.85,0.57,6.89,0.57,6.93c0,0.01,0,0.03,0,0.04l0.25,1.69L5,10.19c0,0,2.22,0.77,2.29,0.8c-0.08,0.03-1.59,0.54-1.59,0.54
	c0,0-0.14,0.04-0.18,0.14c-0.01,0.02-0.02,0.05-0.02,0.07c0,0.02,0,0.05,0.02,0.08C5.7,12.27,6,12.64,6.4,12.91
	c0.41,0.28,0.89,0.42,1.38,0.42c0.5,0,0.98-0.15,1.38-0.42c0.4-0.27,0.7-0.65,0.88-1.09c0.01-0.03,0.02-0.05,0.02-0.08
	c0-0.03-0.01-0.05-0.02-0.07c-0.05-0.1-0.18-0.14-0.18-0.14c0,0-1.51-0.51-1.59-0.54c0.08-0.03,2.29-0.8,2.29-0.8l4.18-1.53L15,6.98
	c0-0.01,0-0.03,0-0.04c0-0.04-0.01-0.08-0.03-0.12c-0.03-0.05-0.07-0.09-0.13-0.11c0,0-1.33-0.53-1.35-0.53
	c0-0.02-0.29-1.42-0.29-1.42c-0.01-0.06-0.04-0.11-0.09-0.14c-0.04-0.04-0.1-0.06-0.16-0.06c0,0-1.43-0.04-1.45-0.04
	c-0.01-0.01-0.76-1.23-0.76-1.23c-0.03-0.05-0.07-0.09-0.13-0.11c-0.06-0.02-0.11-0.02-0.17,0c0,0-1.36,0.45-1.38,0.46
	c-0.01-0.01-1.14-0.9-1.14-0.9c-0.05-0.04-0.1-0.06-0.16-0.06C7.72,2.66,7.67,2.68,7.63,2.72z M2.3,6.39c0.01,0.01,3,2.48,3.03,2.5
	C5.31,8.91,4.93,9.27,4.91,9.28C4.89,9.27,1.12,7.09,1.08,7.07C1.12,7.04,2.29,6.4,2.3,6.39z M4.2,4.79
	C4.21,4.8,6.17,8.15,6.19,8.18C6.16,8.19,5.68,8.39,5.66,8.4C5.64,8.38,2.84,5.05,2.81,5.01C2.86,5,4.18,4.79,4.2,4.79z M5.15,3.67
	C5.2,3.68,6.51,3.93,6.53,3.93c0,0.02,0.7,3.83,0.71,3.87c-0.03,0-0.55,0.03-0.58,0.03C6.65,7.81,5.16,3.72,5.15,3.67z M7.8,3.2
	C7.84,3.23,8.99,3.92,9,3.93C9,3.95,8.35,7.77,8.35,7.8C8.32,7.79,7.82,7.64,7.8,7.63C7.8,7.61,7.8,3.25,7.8,3.2z M5.16,9.53
	C5.17,9.49,5.2,9.43,5.24,9.4c0,0,0.23-0.18,0.25-0.2c0.02,0.01,1.58,1.31,1.7,1.41c-0.15-0.06-2.05-0.76-2.07-0.77
	C5.12,9.83,5.16,9.53,5.16,9.53z M5.81,8.72c0.02-0.04,0.08-0.09,0.12-0.1c0,0,0.28-0.09,0.3-0.1c0.01,0.02,1.03,1.77,1.11,1.91
	C7.22,10.32,5.67,9.02,5.65,9C5.67,8.98,5.81,8.72,5.81,8.72z M6.69,8.18c0.03-0.03,0.1-0.05,0.15-0.05c0,0,0.29,0.01,0.32,0.01
	c0,0.02,0.37,2.02,0.39,2.17c-0.08-0.14-1.08-1.9-1.09-1.92C6.47,8.38,6.69,8.18,6.69,8.18z M7.71,7.97c0.04-0.02,0.11-0.02,0.16,0
	c0,0,0.27,0.11,0.3,0.11c0,0.02-0.35,2.02-0.37,2.18c-0.03-0.16-0.37-2.15-0.37-2.18C7.43,8.08,7.71,7.97,7.71,7.97z M8.73,8.13
	c0.05,0,0.11,0.02,0.15,0.05c0,0,0.22,0.2,0.24,0.21c-0.01,0.02-1.02,1.78-1.1,1.92c0.03-0.16,0.39-2.15,0.39-2.17
	C8.44,8.13,8.73,8.13,8.73,8.13z M10.45,3.68c0.03,0.04,0.87,1.08,0.89,1.09c-0.01,0.02-1.92,3.39-1.94,3.42
	C9.37,8.17,8.95,7.85,8.93,7.84C8.94,7.82,10.43,3.73,10.45,3.68z M9.34,8.52c0.02,0.01,0.3,0.1,0.3,0.1
	c0.04,0.01,0.1,0.06,0.12,0.1c0,0,0.14,0.26,0.15,0.28c-0.02,0.02-1.56,1.32-1.69,1.43C8.31,10.29,9.33,8.54,9.34,8.52z M12.78,5.03
	c0.02,0.05,0.45,1.31,0.46,1.33c-0.01,0.01-2.97,2.53-2.99,2.55c-0.02-0.03-0.3-0.47-0.31-0.48C9.95,8.4,12.75,5.07,12.78,5.03z
	 M10.08,9.2c0.02,0.01,0.25,0.2,0.25,0.2c0.03,0.03,0.07,0.09,0.08,0.13c0,0,0.04,0.29,0.05,0.31c-0.02,0.01-1.92,0.71-2.07,0.77
	C8.51,10.51,10.06,9.22,10.08,9.2z M14.51,7.09c0,0.05-0.02,1.38-0.02,1.4c-0.02,0.01-3.65,1.36-3.68,1.37
	c-0.01-0.03-0.13-0.54-0.13-0.56C10.69,9.3,14.46,7.12,14.51,7.09z M7.21,11.29c-0.13,0.1-1.11,0.91-1.14,0.93
	C6.03,12.15,6,12.1,5.95,12.02l0,0c-0.05-0.08-0.07-0.14-0.1-0.21C5.87,11.8,7.06,11.34,7.21,11.29z M7.36,11.46
	c-0.08,0.14-0.74,1.24-0.75,1.26c-0.07-0.04-0.12-0.08-0.19-0.14l0,0c-0.07-0.06-0.11-0.1-0.17-0.16
	C6.27,12.4,7.24,11.57,7.36,11.46z M7.56,11.58c-0.03,0.16-0.27,1.41-0.28,1.44C7.21,13,7.15,12.98,7.06,12.95l0,0
	c-0.09-0.03-0.14-0.06-0.21-0.09C6.86,12.83,7.48,11.72,7.56,11.58z M7.78,11.62c0.03,0.16,0.23,1.42,0.23,1.45
	c-0.08,0.01-0.14,0.02-0.23,0.02c-0.09,0-0.15-0.01-0.23-0.02C7.56,13.03,7.76,11.77,7.78,11.62z M8.01,11.58
	c0.08,0.14,0.7,1.25,0.71,1.28c-0.07,0.04-0.13,0.06-0.21,0.09C8.42,12.98,8.36,13,8.28,13.02C8.28,12.99,8.04,11.74,8.01,11.58z
	 M8.21,11.46c0.12,0.11,1.09,0.94,1.11,0.96c-0.05,0.06-0.1,0.1-0.17,0.16c-0.07,0.06-0.12,0.1-0.19,0.14
	C8.94,12.7,8.29,11.6,8.21,11.46z M8.35,11.29c0.15,0.06,1.34,0.51,1.37,0.52c-0.03,0.07-0.06,0.13-0.1,0.21
	c-0.05,0.08-0.08,0.13-0.13,0.2C9.47,12.19,8.48,11.39,8.35,11.29z"/>
</svg>
