<svg width="99" height="35" viewBox="0 0 99 35" fill="none" xmlns="http://www.w3.org/2000/svg">
<g clip-path="url(#clip0_82_581)">
<path d="M14.4624 0.673828H2.58688C1.33806 0.673828 0.325684 1.67164 0.325684 2.9025V14.6072C0.325684 15.8381 1.33806 16.8359 2.58688 16.8359H14.4624C15.7112 16.8359 16.7236 15.8381 16.7236 14.6072V2.9025C16.7236 1.67164 15.7112 0.673828 14.4624 0.673828Z" fill="#27265F"/>
<path d="M12.0993 12.9567C11.7933 12.9567 11.4958 12.7892 11.3427 12.5043L8.5715 7.20911L5.70676 12.5127C5.48574 12.9232 4.97569 13.074 4.55916 12.8562C4.14262 12.6384 3.98961 12.1273 4.21063 11.7251L7.84044 5.00558C7.98495 4.72909 8.27398 4.56152 8.58851 4.56152C8.90303 4.56152 9.19206 4.73747 9.33657 5.01396L12.8559 11.7335C13.0684 12.144 12.9069 12.6467 12.4903 12.8646C12.3628 12.9316 12.2353 12.9567 12.0993 12.9567Z" fill="white"/>
<path d="M31.7783 0.673828H19.9028C18.654 0.673828 17.6416 1.67164 17.6416 2.9025V14.6072C17.6416 15.8381 18.654 16.8359 19.9028 16.8359H31.7783C33.0272 16.8359 34.0395 15.8381 34.0395 14.6072V2.9025C34.0395 1.67164 33.0272 0.673828 31.7783 0.673828Z" fill="#348C47"/>
<path d="M29.4152 12.957C29.1092 12.957 28.8117 12.7894 28.6587 12.5045L25.8874 7.20935L23.0227 12.5129C22.8017 12.9235 22.2831 13.0743 21.8751 12.8564C21.4585 12.6386 21.3055 12.1275 21.5265 11.7253L25.1564 5.00581C25.3009 4.72933 25.5984 4.52824 25.9129 4.56176C26.2275 4.56176 26.5165 4.7377 26.661 5.01419L30.1803 11.7337C30.3928 12.1443 30.2313 12.647 29.8148 12.8648C29.6873 12.9318 29.5597 12.957 29.4237 12.957H29.4152Z" fill="white"/>
<path d="M14.4624 17.9082H2.58688C1.33806 17.9082 0.325684 18.906 0.325684 20.1369V31.8416C0.325684 33.0724 1.33806 34.0702 2.58688 34.0702H14.4624C15.7112 34.0702 16.7236 33.0724 16.7236 31.8416V20.1369C16.7236 18.906 15.7112 17.9082 14.4624 17.9082Z" fill="#348C47"/>
<path d="M12.0993 30.1911C11.7933 30.1911 11.4958 30.0235 11.3427 29.7387L8.5715 24.4435L5.70676 29.7471C5.48574 30.1576 4.97569 30.3084 4.55916 30.0906C4.14262 29.8727 3.98961 29.3616 4.21063 28.9595L7.84044 22.24C7.98495 21.9635 8.27398 21.7959 8.58851 21.7959C8.90303 21.7959 9.19206 21.9718 9.33657 22.2483L12.8559 28.9679C13.0684 29.3784 12.9069 29.8811 12.4903 30.0989C12.3628 30.166 12.2353 30.1911 12.0993 30.1911Z" fill="white"/>
<path d="M31.7783 17.9082H19.9028C18.654 17.9082 17.6416 18.906 17.6416 20.1369V31.8416C17.6416 33.0724 18.654 34.0702 19.9028 34.0702H31.7783C33.0272 34.0702 34.0395 33.0724 34.0395 31.8416V20.1369C34.0395 18.906 33.0272 17.9082 31.7783 17.9082Z" fill="#27265F"/>
<path d="M29.4152 30.1911C29.1092 30.1911 28.8117 30.0235 28.6587 29.7387L25.8874 24.4435L23.0227 29.7471C22.8017 30.1576 22.2831 30.3084 21.8751 30.0906C21.4585 29.8727 21.3055 29.3616 21.5265 28.9595L25.1564 22.24C25.3009 21.9635 25.5984 21.8043 25.9129 21.7959C26.2275 21.7959 26.5165 21.9718 26.661 22.2483L30.1803 28.9679C30.3928 29.3784 30.2313 29.8811 29.8148 30.0989C29.6873 30.166 29.5597 30.1911 29.4237 30.1911H29.4152Z" fill="white"/>
<path d="M49.9275 1.09277C45.7451 1.09277 42.3618 4.84632 42.3618 9.47961C42.3618 14.1129 45.7451 17.8581 49.9275 17.8581C54.1098 17.8581 57.5016 14.1045 57.5016 9.47961C57.5016 4.8547 54.1013 1.09277 49.9275 1.09277ZM49.0689 12.7556C47.3688 12.7556 45.9831 11.1134 45.9831 9.08582C45.9831 7.05823 47.3602 5.41606 49.0689 5.41606C50.7775 5.41606 52.1632 7.05823 52.1632 9.08582C52.1632 11.1134 50.786 12.7556 49.0689 12.7556Z" fill="#231F20"/>
<path d="M66.113 32.6294C65.4754 29.5629 60.2985 21.6368 60.2985 21.6368C60.2985 21.6368 59.3464 19.5171 57.9098 19.5171C56.4732 19.5171 55.5211 21.6368 55.5211 21.6368C55.5211 21.6368 50.3441 29.5712 49.7066 32.6294C49.069 35.6959 51.4577 33.8861 51.4577 33.8861L55.4786 29.3031C55.4786 29.3031 55.5466 29.2361 55.5806 29.2026L56.7622 28.0715C57.4082 27.4515 58.4368 27.4515 59.0829 28.0715L60.2645 29.2026C60.2645 29.2026 60.3325 29.2696 60.3665 29.3031L64.3873 33.8861C64.3873 33.8861 66.776 35.6959 66.1385 32.6294H66.113Z" fill="#231F20"/>
<path d="M65.7133 0.0288086H64.4382C63.6025 0.0288086 62.925 0.696515 62.925 1.52017V16.836C62.925 17.6596 63.6025 18.3274 64.4382 18.3274H65.7133C66.549 18.3274 67.2264 17.6596 67.2264 16.836V1.52017C67.2264 0.696515 66.549 0.0288086 65.7133 0.0288086Z" fill="#231F20"/>
<path d="M96.9535 0.322266H95.6784C94.8427 0.322266 94.1653 0.989972 94.1653 1.81363V28.6163C94.1653 29.44 94.8427 30.1077 95.6784 30.1077H96.9535C97.7892 30.1077 98.4667 29.44 98.4667 28.6163V1.81363C98.4667 0.989972 97.7892 0.322266 96.9535 0.322266Z" fill="#231F20"/>
<path d="M88.8777 9.08578C90.1699 9.08578 91.1984 7.95469 91.0029 6.63927C90.8414 5.5752 89.8128 4.8379 88.7247 4.8379H83.8793C83.8793 4.8379 83.8368 4.82114 83.8368 4.79601V3.22086C83.8368 1.77976 82.7912 0.455969 81.3376 0.330292C79.7055 0.187858 78.3453 1.453 78.3453 3.02815V4.79601C78.3453 4.79601 78.3283 4.8379 78.3028 4.8379H73.4574C72.3608 4.8379 71.3407 5.5752 71.1792 6.63927C70.9837 7.95469 72.0123 9.08578 73.3044 9.08578H78.3028C78.3028 9.08578 78.3453 9.10253 78.3453 9.12767V11.8255C78.3453 11.8255 78.3453 11.8423 78.3453 11.8507C77.4868 13.1828 73.2619 19.8437 72.6923 22.5918C72.0548 25.6584 74.4435 23.8486 74.4435 23.8486L78.4558 19.2656L78.5578 19.1567L79.7054 18.0591C80.3685 17.4223 81.4226 17.4223 82.0857 18.0591L83.2333 19.1567L83.3353 19.2656L87.3476 23.8402C87.3476 23.8402 89.7363 25.65 89.0988 22.5835C88.5887 20.1453 85.2054 14.6156 83.8453 12.4707C83.8453 12.4707 83.8453 12.4539 83.8453 12.4455V9.11929C83.8453 9.11929 83.8623 9.0774 83.8878 9.0774H88.8862L88.8777 9.08578Z" fill="#231F20"/>
</g>
<defs>
<clipPath id="clip0_82_581">
<rect width="98.141" height="34.3852" fill="white" transform="translate(0.325684 0.0288086)"/>
</clipPath>
</defs>
</svg>
