<svg width="113" height="27" viewBox="0 0 113 27" fill="none" xmlns="http://www.w3.org/2000/svg">
<g clip-path="url(#clip0_82_595)">
<path d="M0.893555 0.640137H3.73686C6.75718 0.640137 8.7486 2.11203 8.7486 5.56875C8.7486 9.02547 6.75718 10.5977 3.88068 10.5977H0.893555V0.640137ZM3.59303 8.66865C5.18617 8.66865 6.31464 7.9327 6.31464 5.56875C6.31464 3.2048 5.18617 2.54691 3.59303 2.54691H3.27219V8.66865H3.59303Z" fill="#231F20"/>
<path d="M10.0542 0.640137H16.3161V2.63611H12.4328V4.47598H15.7408V6.48311H12.4328V8.60174H16.471V10.6089H10.0653V0.640137H10.0542Z" fill="#231F20"/>
<path d="M17.887 0.640137H21.5048C23.6179 0.640137 25.3659 1.37608 25.3659 3.78464C25.3659 5.24538 24.6911 6.18204 23.6622 6.66152L25.8638 10.6089H23.2086L21.3942 7.10755H20.2546V10.6089H17.876V0.640137H17.887ZM21.3167 5.21193C22.4452 5.21193 23.0537 4.7213 23.0537 3.78464C23.0537 2.84798 22.4452 2.53576 21.3167 2.53576H20.2546V5.21193H21.3167Z" fill="#231F20"/>
<path d="M26.7488 0.640137H29.3044L30.8754 4.94431C31.0746 5.52415 31.2295 6.14859 31.4176 6.75073H31.4839C31.6831 6.14859 31.838 5.52415 32.026 4.94431L33.5417 0.640137H36.1195V10.6089H33.9511V7.19675C33.9511 6.20434 34.1392 4.7213 34.2719 3.75118H34.2055L33.3868 6.13744L32.0592 9.77257H30.7537L29.4151 6.13744L28.6185 3.75118H28.5632C28.6849 4.73245 28.873 6.21549 28.873 7.19675V10.6089H26.7488V0.640137Z" fill="#231F20"/>
<path d="M39.682 0.640137H42.5253L45.5899 10.6089H43.1006L42.5253 8.32298H39.6046L39.0293 10.6089H36.6174L39.682 0.640137ZM40.0582 6.46081H42.0717L41.8615 5.61335C41.596 4.62094 41.3415 3.42781 41.076 2.4131H41.0207C40.7773 3.46127 40.5118 4.62094 40.2684 5.61335L40.0582 6.46081Z" fill="#231F20"/>
<path d="M48.1565 5.68045C48.1565 2.36869 50.3581 0.461914 52.8695 0.461914C54.1529 0.461914 55.1928 1.06405 55.8677 1.7554L54.6286 3.28304C54.1197 2.82586 53.6108 2.50249 52.9027 2.50249C51.6304 2.50249 50.5794 3.65102 50.5794 5.59124C50.5794 7.53146 51.4866 8.72459 52.8806 8.72459C53.6772 8.72459 54.2967 8.32316 54.7614 7.81023L56.0115 9.30443C55.1707 10.2857 54.0754 10.7763 52.7921 10.7763C50.2807 10.7763 48.1565 9.03681 48.1565 5.6693V5.68045Z" fill="#231F20"/>
<path d="M55.9121 5.56894C55.9121 2.30178 57.7376 0.461914 60.4371 0.461914C63.1365 0.461914 64.962 2.32408 64.962 5.56894C64.962 8.81379 63.1365 10.7875 60.4371 10.7875C57.7376 10.7875 55.9121 8.8361 55.9121 5.56894ZM62.5391 5.56894C62.5391 3.63987 61.7315 2.50249 60.426 2.50249C59.1205 2.50249 58.3239 3.63987 58.3239 5.56894C58.3239 7.49801 59.1205 8.72459 60.426 8.72459C61.7315 8.72459 62.5391 7.49801 62.5391 5.56894Z" fill="#231F20"/>
<path d="M65.6368 9.3601L66.9865 7.70979C67.6725 8.31193 68.5907 8.72451 69.3762 8.72451C70.2503 8.72451 70.6596 8.38999 70.6596 7.85475C70.6596 7.27492 70.1175 7.09651 69.2656 6.72853L68.0044 6.1933C66.9644 5.78072 66.0019 4.91097 66.0019 3.46137C66.0019 1.78877 67.4844 0.450684 69.5864 0.450684C70.726 0.450684 71.9319 0.896712 72.7948 1.76647L71.6111 3.26066C70.9583 2.77003 70.3498 2.50241 69.5864 2.50241C68.8231 2.50241 68.4137 2.79233 68.4137 3.31642C68.4137 3.87395 69.0222 4.09697 69.8962 4.44264L71.1353 4.93327C72.3523 5.4239 73.0825 6.2602 73.0825 7.66519C73.0825 9.32665 71.6996 10.7762 69.3099 10.7762C68.0265 10.7762 66.6436 10.2968 65.6257 9.34895L65.6368 9.3601Z" fill="#231F20"/>
<path d="M74.2109 0.640137H76.7666L78.3376 4.94431C78.5367 5.52415 78.6916 6.14859 78.8797 6.75073H78.9461C79.1452 6.14859 79.3001 5.52415 79.4882 4.94431L81.0039 0.640137H83.5817V10.6089H81.4132V7.19675C81.4132 6.20434 81.6013 4.7213 81.7341 3.75118H81.6677L80.849 6.13744L79.5214 9.77257H78.2159L76.8772 6.13744L76.0807 3.75118H76.0253C76.147 4.73245 76.3351 6.21549 76.3351 7.19675V10.6089H74.2109V0.640137Z" fill="#231F20"/>
<path d="M85.3298 0.640137H91.5917V2.63611H87.7085V4.47598H91.0164V6.48311H87.7085V8.60174H91.7466V10.6089H85.3409V0.640137H85.3298Z" fill="#231F20"/>
<path d="M95.0655 2.62496H92.3992V0.640137H100.121V2.63611H97.4441V10.6089H95.0655V2.62496Z" fill="#231F20"/>
<path d="M101.128 0.640137H103.507V10.6089H101.128V0.640137Z" fill="#231F20"/>
<path d="M104.79 5.68045C104.79 2.36869 106.992 0.461914 109.503 0.461914C110.787 0.461914 111.827 1.06405 112.501 1.7554L111.262 3.28304C110.753 2.82586 110.245 2.50249 109.536 2.50249C108.264 2.50249 107.213 3.65102 107.213 5.59124C107.213 7.53146 108.12 8.72459 109.514 8.72459C110.311 8.72459 110.93 8.32316 111.395 7.81023L112.645 9.30443C111.805 10.2857 110.709 10.7763 109.426 10.7763C106.914 10.7763 104.79 9.03681 104.79 5.6693V5.68045Z" fill="#231F20"/>
<path d="M2.26583 22.8636C4.213 22.8524 5.52955 22.7855 7.0563 22.5067L7.18906 23.6218C5.52955 23.9452 4.06917 24.0232 1.84542 24.0232H0.905029V15.9836H6.34824V17.1098H2.26583V22.8747V22.8636ZM10.2647 14.8462V26.967H8.89283V20.2766H5.68443V19.1392H8.89283V14.8462H10.2647Z" fill="#231F20"/>
<path d="M21.0623 16.0395H26.6714V23.9342H21.0623V16.0395ZM22.412 22.8303H25.3217V17.1322H22.412V22.8303ZM31.7938 20.7228H29.9241V26.956H28.5522V14.8687H29.9241V19.5854H31.7938V20.7228Z" fill="#231F20"/>
<path d="M51.8185 24.2909V25.4283H40.9763V24.2909H45.0255V21.2579H46.4085V24.2909H51.8185ZM49.2407 18.8717C49.2628 18.2138 49.2628 17.6117 49.2628 17.0653H42.2486V15.9502H50.6236V17.0653C50.6236 18.5372 50.6347 20.2098 50.1037 22.7633L48.7539 22.6072C48.9641 21.6036 49.0969 20.7227 49.1633 19.931L42.0937 20.3213L41.9056 19.1616L49.2407 18.8828V18.8717Z" fill="#231F20"/>
<path d="M72.1753 24.2465V25.3838H61.322V24.2465H72.1753ZM71.1132 21.8937C69.166 21.4922 67.4733 20.2322 66.6989 18.5819C65.9133 20.2433 64.2317 21.4922 62.2845 21.8937L61.6982 20.7563C64.0547 20.3103 65.9797 18.4592 65.9797 16.5413V15.627H67.429V16.5413C67.429 18.4704 69.3541 20.3214 71.7106 20.7563L71.1132 21.8937Z" fill="#231F20"/>
<path d="M88.1951 15.0916H89.4674V26.365H88.1951V20.4662H86.6794V23.8003H82.0659V16.1955H86.6794V19.3512H88.1951V15.1027V15.0916ZM85.4071 17.2771H83.3382V22.6964H85.4071V17.2771ZM91.8902 14.8574V26.9225H90.5958V14.8574H91.8902Z" fill="#231F20"/>
<path d="M109.437 21.2802C107.722 21.5589 106.251 21.6035 103.673 21.6035H102.677V15.6602H108.408V16.7753H104.027V18.0687H108.065V19.1504H104.027V20.4996C106.339 20.4996 107.7 20.4438 109.293 20.1762L109.426 21.269L109.437 21.2802ZM103.806 22.752H111.871V26.9336H110.499V23.856H103.795V22.7409L103.806 22.752ZM111.871 14.8462V22.1834H110.499V14.8462H111.871Z" fill="#231F20"/>
</g>
<defs>
<clipPath id="clip0_82_595">
<rect width="111.752" height="26.5052" fill="white" transform="translate(0.893555 0.461914)"/>
</clipPath>
</defs>
</svg>
