<svg width="178" height="38" viewBox="0 0 178 38" fill="none" xmlns="http://www.w3.org/2000/svg">
<g clip-path="url(#clip0_82_373)">
<path d="M27.7555 22.6654C28.7904 22.0257 29.3948 21.1131 29.4079 20.1707C29.4209 19.2922 28.9426 18.4863 28.0642 17.902C27.9207 17.8082 27.7772 17.7229 27.625 17.6376C27.5511 17.595 27.4728 17.5566 27.3946 17.5182C27.0989 17.369 26.7858 17.2411 26.464 17.1302C26.451 17.1259 26.4336 17.1217 26.4205 17.1174C25.1291 16.6824 23.6376 16.5204 22.2113 16.5161C22.4027 16.6696 22.5505 16.7933 22.6375 16.8743L23.1462 17.3391C23.9942 17.3988 24.803 17.5225 25.5291 17.7272C25.69 17.7741 25.8466 17.8253 26.0031 17.8765C26.2857 17.9745 26.5553 18.0854 26.8075 18.2133C26.8467 18.2347 26.8858 18.256 26.9293 18.2773C27.0424 18.3413 27.1554 18.4052 27.2641 18.4735C27.7946 18.8189 28.0816 19.2539 28.0773 19.7059C28.0686 20.2304 27.6555 20.7549 26.9815 21.1899C25.477 22.1536 23.2462 21.8807 22.5853 21.8082C22.5853 21.8082 22.4853 21.7869 22.4418 21.8423C22.3983 21.8978 22.4288 21.9489 22.4418 21.9788C22.8897 23.0492 23.0897 24.6355 22.6288 25.4841C22.2853 26.111 21.6895 26.5161 21.0155 26.6611C20.3502 26.8018 19.6545 26.6611 19.0631 26.2517C17.6716 25.3008 16.9629 23.7059 16.6107 22.1281C16.3106 22.2816 16.0149 22.4266 15.7192 22.563C15.8888 23.5182 16.2758 24.5332 16.6107 25.1942C17.089 26.1323 17.7499 26.9852 18.6674 27.6206C19.5371 28.2261 20.5677 28.4394 21.5678 28.2219C22.5722 28.0044 23.4202 27.3818 23.955 26.4649C24.342 25.7997 24.529 25.0406 24.5073 24.273C24.4986 24.03 24.4681 23.7912 24.4203 23.5524C25.6291 23.5438 26.8293 23.2325 27.7555 22.6611V22.6654Z" fill="#FAA61A"/>
<path d="M18.1153 17.5951C18.8893 17.48 20.346 17.3009 21.7375 17.2796C21.7723 17.2369 21.807 17.1985 21.8418 17.1559C21.607 16.9555 21.3505 16.7636 21.0809 16.5845C19.8981 16.5973 18.4805 16.802 18.0283 16.8702C18.0327 16.9086 18.037 16.9512 18.0414 16.9896C18.0631 17.1943 18.0935 17.3947 18.1196 17.5951H18.1153Z" fill="#FAA61A"/>
<path d="M16.2933 19.501C16.2715 18.8443 16.2933 18.2899 16.3194 17.9147C16.4759 17.8805 16.7716 17.8251 16.976 17.7825C16.9368 17.5479 16.902 17.3091 16.8673 17.0703C16.4846 17.1471 16.1846 17.2153 15.9976 17.2579L15.5628 17.3603L15.5193 17.7953C15.4801 18.1577 15.4149 18.968 15.4453 19.9957C15.454 20.3795 15.4801 20.7931 15.528 21.2238C15.8063 21.1044 16.0889 20.9765 16.3715 20.8443C16.3237 20.4136 16.3063 19.7995 16.2976 19.4925L16.2933 19.501Z" fill="#FAA61A"/>
<path d="M27.5425 24.4349C26.8032 24.0639 26.0031 24.1918 25.764 24.7206C25.5205 25.2494 25.9249 25.9829 26.6641 26.3539C27.4033 26.7291 28.2034 26.5969 28.4469 26.0682C28.6904 25.5394 28.286 24.8059 27.5468 24.4349H27.5425Z" fill="#FAA61A"/>
<path d="M9.67068 19.0148C9.63155 18.567 8.87494 18.2472 7.97917 18.3026C7.08341 18.3581 6.38333 18.7632 6.42246 19.2067C6.4616 19.6544 7.21821 19.9743 8.11397 19.9188C9.00973 19.8677 9.70982 19.4625 9.67068 19.0148Z" fill="#EE3D96"/>
<path d="M23.1464 17.3389L22.6376 16.8741C22.5506 16.793 22.4028 16.6651 22.2115 16.5159C22.1332 16.4562 22.0506 16.3922 21.9593 16.324C21.1592 15.7269 19.7764 14.8698 17.9892 14.405C17.9718 14.5713 17.9631 14.7333 17.9544 14.9039C17.9501 15.002 17.9501 15.1001 17.9457 15.1982C18.9111 15.4327 20.0851 15.9316 21.0809 16.5926C21.3505 16.7717 21.607 16.9636 21.8419 17.164C21.8114 17.2024 21.7723 17.2451 21.7375 17.2877C21.7244 17.3048 21.7114 17.3176 21.6984 17.3346C21.0244 18.0894 19.9112 18.9252 18.5458 19.7184C18.2197 19.906 17.8848 20.0937 17.5457 20.2728C17.1587 20.4775 16.763 20.6736 16.3673 20.857C16.0846 20.9892 15.802 21.1171 15.5237 21.2365C13.1321 22.2557 10.971 22.7248 10.6753 21.8335C10.4318 20.9082 11.9667 19.6118 14.5627 18.5713C14.5627 18.5713 14.6714 18.5329 14.6627 18.4562C14.654 18.3794 14.5366 18.3709 14.5366 18.3709C14.5366 18.3709 13.793 18.2984 13.0234 18.0979C12.2363 17.8933 11.7319 17.5393 11.6624 17.0915C11.5536 16.3794 12.5581 15.4071 14.3366 15.1086C15.1802 14.9679 15.9759 14.9551 16.7151 15.0233C16.7151 14.7333 16.7151 14.4476 16.7325 14.1576C15.7976 14.034 14.7801 14.0297 13.6974 14.2173C11.4971 14.5969 9.90561 15.9444 9.90561 17.3687C9.90561 17.4668 9.91431 17.5649 9.92736 17.663C10.023 18.2898 10.4231 18.8186 11.0449 19.1939C10.1491 19.7866 9.42729 20.4689 9.01855 21.1342C8.72721 21.6118 8.6272 22.0169 8.6272 22.3453C8.6272 22.7333 8.76634 23.0148 8.8881 23.1896C9.72733 24.4263 12.532 24.051 15.715 22.5756C16.0107 22.4391 16.3064 22.2941 16.6064 22.1406C17.0326 21.9188 17.4631 21.68 17.8979 21.4284C18.211 21.2451 18.5241 21.0489 18.8328 20.8485C20.346 19.8634 21.8375 18.6822 23.1464 17.3517V17.3389Z" fill="#EE3D96"/>
<path d="M27.7467 14.2174C27.3989 13.4285 26.7292 12.8613 25.8682 12.6097C25.029 12.3667 24.0854 12.4519 23.2027 12.8315C23.0549 11.7867 22.6461 10.8272 22.0417 10.1492C21.372 9.39863 20.5372 9.04895 19.6849 9.16409C18.7891 9.28349 17.9934 9.93168 17.5063 10.9338C17.0324 11.9146 16.8019 13.0276 16.7323 14.1534C16.7149 14.4391 16.7106 14.7291 16.7149 15.0191C16.7149 15.147 16.7149 15.275 16.7193 15.4029C16.7323 15.8379 16.7671 16.2686 16.815 16.6907C16.828 16.8187 16.8454 16.9466 16.8628 17.0745C16.8932 17.3176 16.9324 17.5564 16.9715 17.7867C16.9802 17.8293 16.9845 17.8762 16.9932 17.9189C17.128 18.6822 17.3715 19.6417 17.5455 20.2643C17.8847 20.0852 18.2195 19.9018 18.5456 19.7099C18.4282 19.2494 18.3151 18.7377 18.2151 18.2003C18.1803 17.9999 18.1456 17.7995 18.1151 17.5948C18.0847 17.3944 18.0586 17.1939 18.0368 16.9893C18.0368 16.9509 18.0282 16.9082 18.0238 16.8698C17.9977 16.6396 17.9803 16.4093 17.9629 16.1748C17.9455 15.9146 17.9368 15.6502 17.9368 15.3901C17.9368 15.3219 17.9368 15.2579 17.9368 15.1897C17.9368 15.0916 17.9368 14.9935 17.9455 14.8954C17.9542 14.7291 17.9673 14.5628 17.9803 14.3965C18.0586 13.5394 18.2499 12.7419 18.6065 12.0255C18.9065 11.4242 19.3457 11.0404 19.8153 10.9807C20.2284 10.9253 20.6676 11.1257 21.0459 11.5394C21.6416 12.1875 21.9852 13.5948 21.9373 15.373C21.933 15.5436 22.033 15.5436 22.133 15.4626C22.2504 15.3645 22.5244 15.1342 22.9548 14.8485C23.768 14.3027 24.7029 14.0767 25.4725 14.2942C25.9769 14.4391 26.3509 14.7504 26.5509 15.1982C26.6553 15.4285 26.7031 15.6801 26.7031 15.9487C26.7031 16.324 26.6031 16.7249 26.4031 17.1129C26.4161 17.1172 26.4335 17.1214 26.4466 17.1257C26.7727 17.2366 27.0814 17.3645 27.3771 17.5138C27.438 17.4114 27.4989 17.3048 27.5511 17.1982C28.0598 16.1961 28.125 15.1087 27.7293 14.2089L27.7467 14.2174Z" fill="#72BF44"/>
<path d="M26.003 17.8804C25.229 18.8697 23.9202 19.7311 23.1592 20.1277C21.6112 20.9337 19.9762 21.3388 19.0805 21.5179C19.0196 21.3857 18.9152 21.0872 18.8326 20.8399C18.5195 21.0403 18.2108 21.2364 17.8977 21.4198C17.9847 21.6672 18.0586 21.8761 18.1064 22.004L18.2847 22.4859L18.7978 22.4049C19.4196 22.3068 21.4547 21.923 23.4853 20.9209C24.5898 20.375 25.9856 19.4454 26.9249 18.2855C26.8858 18.2642 26.8466 18.2428 26.8031 18.2215C26.5509 18.0936 26.2813 17.9827 25.9987 17.8846L26.003 17.8804Z" fill="#72BF44"/>
<path d="M23.9115 11.5948C24.442 11.7099 25.1291 11.2323 25.4378 10.5244C25.7509 9.81655 25.5682 9.1513 25.0377 9.03616C24.5073 8.92103 23.8202 9.39864 23.5115 10.1065C23.1984 10.8144 23.381 11.4797 23.9115 11.5948Z" fill="#72BF44"/>
<path d="M38.7482 18.9979C38.7482 29.4883 30.0732 37.9957 19.3763 37.9957C8.67932 37.9957 0 29.4925 0 18.9979C0 8.5032 8.67497 0 19.3719 0C30.0689 0 38.7439 8.50746 38.7439 18.9979H38.7482ZM19.3719 5.3049C11.6579 5.3049 5.40936 11.4371 5.40936 19.0021C5.40936 26.5672 11.6623 32.6951 19.3719 32.6951C27.0816 32.6951 33.3389 26.5629 33.3389 19.0021C33.3389 11.4414 27.0859 5.3049 19.3719 5.3049Z" fill="#BB9642"/>
<path d="M1.66109 21.2065C1.60456 21.2108 1.58282 21.2065 1.56542 21.1596C1.53064 21.0828 1.4915 20.8057 1.47846 20.6521C1.46106 20.4602 1.46106 20.2001 1.56108 20.0125C1.65674 19.8334 1.81763 19.7481 1.98722 19.7353C2.27421 19.714 2.45684 19.9059 2.5525 20.0594C2.5699 20.0807 2.58294 20.1063 2.59164 20.1361C2.59599 20.1106 2.59599 20.085 2.60033 20.0551C2.65686 19.7012 2.89167 19.505 3.19606 19.4794C3.86136 19.4283 3.92658 20.2172 3.94398 20.4688C3.96137 20.699 3.95702 20.9123 3.94398 20.972C3.93528 21.0189 3.91789 21.0274 3.83527 21.0359L1.66109 21.2108V21.2065ZM2.58294 20.8014C2.57859 20.6948 2.5699 20.6138 2.55685 20.5199C2.48728 20.0892 2.19594 20.0551 2.07418 20.0679C1.63065 20.102 1.66544 20.5285 1.67413 20.6351C1.68283 20.7246 1.69588 20.8057 1.71327 20.8739L2.58294 20.8057V20.8014ZM3.7483 20.7076C3.7483 20.6436 3.7483 20.5455 3.7396 20.4261C3.70917 20.0637 3.55697 19.7993 3.21345 19.8248C3.03517 19.8376 2.93081 19.9187 2.87863 19.9741C2.71339 20.1447 2.72209 20.375 2.73948 20.5668C2.74818 20.6564 2.75253 20.7033 2.76557 20.7843L3.74395 20.7076H3.7483Z" fill="white"/>
<path d="M2.90476 18.631C3.38743 18.631 3.62659 18.3965 3.63529 18.1406C3.64398 17.9359 3.53527 17.7782 3.35699 17.6587C3.27437 17.6076 3.26133 17.5948 3.26133 17.5564C3.26133 17.5351 3.27437 17.4882 3.34829 17.4924C3.43961 17.4967 3.94402 17.6715 3.91793 18.1961C3.90923 18.4008 3.80922 18.6694 3.48744 18.8059C3.31351 18.8869 3.11348 18.8954 2.95259 18.8869C2.70474 18.8741 2.52646 18.8187 2.4047 18.7462C2.33513 18.7035 2.03509 18.5202 2.05248 18.1022C2.07857 17.5692 2.55689 17.4754 2.70039 17.4839C2.79605 17.4882 2.8004 17.5479 2.80475 17.5863L2.90911 18.6268L2.90476 18.631ZM2.65256 17.8123C2.43079 17.8208 2.25686 17.9615 2.24816 18.1534C2.23512 18.4263 2.43949 18.5756 2.73952 18.6225L2.65256 17.808V17.8123Z" fill="white"/>
<path d="M3.10031 16.1791C3.21771 16.0213 3.37425 15.8038 3.69168 15.855C3.83518 15.8763 3.96998 15.9573 4.0439 16.0724C4.14391 16.2345 4.12217 16.4136 4.10912 16.4989C4.0352 16.9466 3.72647 17.0319 3.62646 17.0149C3.53079 16.9978 3.49166 16.9211 3.5047 16.8528C3.51775 16.7803 3.58297 16.7505 3.61776 16.7334C3.63515 16.7249 3.66124 16.7164 3.70473 16.7036C3.78735 16.6695 3.89606 16.614 3.92215 16.4435C3.95258 16.2643 3.83083 16.1663 3.70473 16.1449C3.49601 16.1108 3.3873 16.2729 3.29163 16.4051C3.11335 16.6567 2.96116 16.8699 2.64808 16.8187C2.40457 16.7803 2.20454 16.5756 2.26542 16.2132C2.33065 15.8336 2.5872 15.7313 2.69591 15.7484C2.77853 15.7611 2.81331 15.8251 2.80462 15.8933C2.79157 15.9786 2.72635 16 2.66547 16.0213C2.5959 16.0469 2.46545 16.0895 2.43936 16.2473C2.40892 16.4264 2.54806 16.5202 2.64373 16.5373C2.83506 16.5671 2.93507 16.4221 3.00899 16.307L3.10031 16.1748V16.1791Z" fill="white"/>
<path d="M2.8003 14.6479L3.88304 14.9251C4.02219 14.9592 4.06132 14.9678 4.13525 14.9464C4.21352 14.9294 4.27874 14.8782 4.30483 14.7801C4.30483 14.7673 4.32222 14.7076 4.32222 14.6948C4.33962 14.6351 4.38745 14.6437 4.40484 14.6479C4.49181 14.6693 4.46572 14.8569 4.44833 14.9336C4.40484 15.0914 4.30918 15.1938 4.20482 15.2364C4.08306 15.2833 3.97001 15.262 3.86565 15.2364L2.72203 14.9422L2.6742 15.117C2.66115 15.1597 2.6568 15.1639 2.60897 15.1554C2.522 15.1341 2.51766 15.1298 2.52635 15.0829L2.57418 14.9081L2.37416 14.8569C2.31328 14.8398 2.30024 14.827 2.2698 14.7801L2.17414 14.5968C2.15239 14.5584 2.14805 14.5413 2.15239 14.5328C2.16109 14.4987 2.20457 14.5072 2.24371 14.52L2.65246 14.6223L2.72638 14.3366C2.73507 14.2983 2.74377 14.2855 2.78725 14.2983C2.87857 14.3196 2.88727 14.3238 2.87422 14.3707L2.79595 14.6565L2.8003 14.6479Z" fill="white"/>
<path d="M4.07015 12.4773L5.07462 12.9208C5.1355 12.9463 5.1268 12.9677 5.10506 13.0103L5.02244 13.1851C5.0007 13.2363 4.992 13.2491 4.93547 13.2235L2.84391 12.2982C2.79173 12.2726 2.77869 12.2555 2.79608 12.2086L3.28745 11.1468C3.30919 11.1041 3.31788 11.0913 3.35702 11.1084C3.4005 11.1297 3.46573 11.1553 3.47443 11.1638C3.49617 11.1724 3.51791 11.1851 3.48747 11.2363L3.11351 12.0551L3.87013 12.392L4.18756 11.7054C4.2093 11.6628 4.21799 11.65 4.26583 11.6713C4.30496 11.6883 4.36584 11.7139 4.37454 11.7225C4.40497 11.7395 4.40063 11.7566 4.38323 11.7907L4.0658 12.4773H4.07015Z" fill="white"/>
<path d="M5.99194 10.5926C6.12239 10.6736 6.18762 10.7291 6.18327 10.874C6.17457 11.019 6.09195 11.2067 6.01368 11.3303C5.96585 11.4071 5.70495 11.8378 5.3049 11.6075C4.96138 11.4114 5.06139 11.0276 5.20489 10.4817L5.05269 10.3922C4.93529 10.3239 4.73526 10.2088 4.60481 10.4263C4.5048 10.5969 4.60481 10.7248 4.65265 10.7845C4.69613 10.8357 4.75266 10.9039 4.70048 10.9892C4.67439 11.0318 4.60047 11.0873 4.5048 11.0318C4.32652 10.9295 4.28304 10.6096 4.47001 10.2983C4.72657 9.87191 5.04835 10.051 5.20489 10.1406L5.99194 10.5969V10.5926ZM5.34403 10.5585C5.25707 10.938 5.19619 11.1853 5.42665 11.3175C5.45274 11.3303 5.7093 11.4796 5.88758 11.1853C6.02673 10.9593 5.88758 10.8783 5.80931 10.8314L5.34403 10.5627V10.5585Z" fill="white"/>
<path d="M5.49623 9.36032C5.40491 9.28782 5.36143 9.24944 5.36577 9.1471C5.37447 9.01064 5.47883 8.79742 5.60493 8.6439C5.8267 8.37524 6.00933 8.37524 6.09195 8.37951C6.07891 8.2729 6.05716 8.10232 6.27893 7.83366C6.63549 7.40723 6.92249 7.6375 7.06163 7.75264L7.99653 8.49891C8.03567 8.52876 8.03567 8.54582 8.00958 8.58846L7.89217 8.72919C7.86608 8.7633 7.84869 8.77183 7.80085 8.73771L6.92684 8.04262C6.78334 7.93175 6.57897 7.77396 6.37025 8.0213C6.29632 8.11085 6.27893 8.19614 6.28328 8.25157C6.28763 8.37951 6.3572 8.43494 6.43982 8.49891L7.37472 9.24518C7.41385 9.27503 7.42255 9.29209 7.38776 9.33047L7.2747 9.46693C7.24426 9.50531 7.22687 9.5181 7.18339 9.47972L6.28328 8.7633C6.18761 8.68654 5.9528 8.50317 5.74408 8.75477C5.53536 9.00637 5.72669 9.16842 5.818 9.24091L6.7529 9.98718C6.79638 10.0213 6.79638 10.0384 6.7616 10.081L6.64854 10.2132C6.6181 10.2473 6.60071 10.2558 6.55722 10.2217L5.48318 9.36458L5.49623 9.36032Z" fill="white"/>
<path d="M7.18341 6.53267C7.10079 6.6137 6.99208 6.6009 6.92685 6.53267C6.85293 6.45591 6.85728 6.3493 6.93555 6.27681C7.00512 6.21284 7.10948 6.20431 7.18775 6.27681C7.25298 6.34504 7.27037 6.45591 7.18775 6.53694L7.18341 6.53267ZM8.70098 7.86743C8.74012 7.91007 8.73142 7.92286 8.69229 7.95698L8.55749 8.08491C8.51835 8.11903 8.50965 8.1105 8.47487 8.07638L7.3269 6.90367C7.29646 6.87382 7.28342 6.85677 7.3269 6.81839L7.45735 6.69898C7.49649 6.6606 7.51388 6.6606 7.55302 6.69898L8.70098 7.87169V7.86743Z" fill="white"/>
<path d="M7.55754 5.55198C7.52275 5.5136 7.54014 5.49655 7.57493 5.4667L7.70538 5.35582C7.74452 5.32171 7.75756 5.31744 7.79235 5.35582L9.42298 7.24068C9.45777 7.28333 9.44907 7.30039 9.41428 7.33024L9.27949 7.44111C9.236 7.47523 9.2273 7.47949 9.18817 7.43685L7.55754 5.55198Z" fill="white"/>
<path d="M10.6361 6.71206C10.7057 6.97219 10.7666 7.3176 10.4665 7.52656C10.4317 7.54788 10.2708 7.66302 10.1752 7.53509C10.1274 7.47112 10.1361 7.38583 10.21 7.3304C10.2317 7.31334 10.3535 7.26643 10.3796 7.24937C10.5013 7.16409 10.5187 7.0191 10.3796 6.59692L8.86198 5.62464C8.82285 5.60332 8.8185 5.59905 8.8098 5.59052C8.78371 5.55641 8.82285 5.53082 8.83589 5.52229L9.00113 5.40716C9.04896 5.37731 9.05331 5.38157 9.10114 5.41142L10.2622 6.20033L9.8621 4.88264C9.84471 4.83146 9.84906 4.81867 9.8708 4.80161L10.0099 4.7078C10.0317 4.69074 10.0534 4.68647 10.0708 4.7078C10.0752 4.71632 10.0795 4.72059 10.0926 4.7675L10.6318 6.71206H10.6361Z" fill="white"/>
<path d="M12.2667 4.1917L12.7232 5.17251C12.7493 5.23221 12.7319 5.24074 12.6885 5.2578L12.5102 5.33882C12.458 5.36014 12.445 5.36867 12.4189 5.31324L11.4666 3.26206C11.4405 3.21089 11.4492 3.18957 11.4883 3.16825L12.5711 2.68637C12.6145 2.66931 12.6319 2.66505 12.6493 2.70343C12.6711 2.74607 12.6972 2.81004 12.7015 2.82283C12.7102 2.84415 12.7189 2.86548 12.6624 2.8868L11.8318 3.2578L12.1754 3.9998L12.8754 3.6885C12.9189 3.66718 12.9363 3.66292 12.9581 3.71409C12.9755 3.75247 13.0015 3.81217 13.0059 3.82496C13.0189 3.85908 13.0059 3.86761 12.9668 3.88467L12.2667 4.19597V4.1917Z" fill="white"/>
<path d="M14.3017 4.54996C14.3148 4.60114 14.3017 4.60966 14.2626 4.62246L14.0973 4.67789C14.0495 4.69495 14.0321 4.69495 14.0147 4.64378L13.5494 3.30476C13.5103 3.19389 13.5103 3.15124 13.5668 3.08301C13.6451 2.99346 13.8364 2.86979 14.0452 2.7973C14.206 2.74613 14.393 2.72054 14.4452 2.86979C14.4713 2.94229 14.4409 3.02331 14.3582 3.05316C14.2974 3.07448 14.2669 3.05316 14.1887 3.01052C14.1321 2.98493 14.0756 2.95935 13.9799 2.9892C13.7886 3.05316 13.8321 3.19389 13.8582 3.27917L14.293 4.54143L14.3017 4.54996Z" fill="white"/>
<path d="M14.9758 2.27272C14.8628 2.30257 14.7758 2.23861 14.7497 2.14905C14.7236 2.04671 14.7802 1.95716 14.8889 1.9273C14.9845 1.90172 15.0758 1.94863 15.1106 2.04671C15.1324 2.14052 15.0889 2.24287 14.9758 2.27272ZM15.6281 4.16611C15.6411 4.22155 15.6281 4.23008 15.5759 4.24287L15.3976 4.28978C15.3454 4.30257 15.3454 4.28978 15.3324 4.24287L14.9193 2.66931C14.9063 2.62667 14.9019 2.60534 14.9584 2.59255L15.1324 2.54991C15.1845 2.53711 15.2019 2.54138 15.215 2.59681L15.6281 4.17464V4.16611Z" fill="white"/>
<path d="M16.2846 3.13012C16.389 3.59493 16.6673 3.77404 16.9238 3.73139C17.1282 3.69728 17.263 3.56082 17.3456 3.36466C17.3804 3.2751 17.3891 3.25805 17.4282 3.25378C17.45 3.25378 17.4978 3.25378 17.5108 3.32201C17.5239 3.4073 17.4587 3.93182 16.9282 4.01284C16.7238 4.0427 16.4368 4.00858 16.2324 3.72713C16.115 3.57361 16.0628 3.38598 16.0411 3.2282C16.002 2.98939 16.0193 2.80602 16.0672 2.67383C16.0933 2.59707 16.2194 2.26871 16.6368 2.20474C17.176 2.11945 17.3673 2.55869 17.3891 2.69515C17.4065 2.78896 17.3499 2.80602 17.3065 2.81881L16.2889 3.13438L16.2846 3.13012ZM17.0499 2.71221C16.9934 2.50325 16.8194 2.36679 16.6238 2.39664C16.3498 2.43928 16.2411 2.66956 16.2542 2.9638L17.0456 2.71221H17.0499Z" fill="white"/>
<path d="M19.5285 3.70143C19.5285 3.73128 19.5285 3.76113 19.4894 3.76966H19.2981C19.2415 3.77819 19.2241 3.76966 19.2198 3.70996L19.1807 2.57563C19.1763 2.41784 19.1676 2.16198 18.7632 2.17904C18.3936 2.19183 18.3979 2.40932 18.4023 2.49034L18.4458 3.73554C18.4458 3.79524 18.424 3.80377 18.3762 3.80377H18.2066C18.1588 3.8123 18.1414 3.80377 18.137 3.74833L18.0892 2.38799C18.0849 2.26006 18.1023 2.1961 18.2197 2.13639C18.4458 2.00846 18.7719 1.99993 18.8067 1.99993C19.4633 1.97861 19.4763 2.33682 19.485 2.53725L19.5242 3.70143H19.5285Z" fill="white"/>
<path d="M21.6027 3.56059C21.5984 3.62455 21.5897 3.68426 21.5375 3.74396C21.4071 3.89321 21.0635 3.91027 20.8809 3.89321C20.3939 3.8463 20.1025 3.51368 20.1591 2.95931C20.2026 2.49875 20.5287 2.01688 21.0592 2.06805C21.2375 2.08511 21.3375 2.15334 21.4201 2.21304L21.5027 1.38575C21.5071 1.33031 21.5158 1.31325 21.5766 1.31752L21.7506 1.33458C21.8028 1.33884 21.8201 1.34737 21.8114 1.40707L21.6027 3.55632V3.56059ZM21.4027 2.40494C21.3418 2.34524 21.2549 2.26421 21.0853 2.25142C20.7678 2.22157 20.5113 2.50302 20.4722 2.9124C20.4287 3.38148 20.6374 3.6672 20.9679 3.69705C21.2679 3.72264 21.2853 3.55632 21.2983 3.45824L21.3984 2.4092L21.4027 2.40494Z" fill="white"/>
<path d="M22.681 1.54345C22.6897 1.49228 22.7158 1.49228 22.7593 1.50081L22.9289 1.53493C22.9811 1.54345 22.9941 1.55198 22.9811 1.59889L22.5027 4.02533C22.494 4.0765 22.4723 4.08077 22.4288 4.07224L22.2549 4.03812C22.2027 4.0296 22.1897 4.02107 22.2027 3.96563L22.681 1.53919V1.54345Z" fill="white"/>
<path d="M23.6812 4.6265C23.516 4.84398 23.2812 5.10411 22.929 5.00603C22.8898 4.99324 22.6985 4.94207 22.742 4.78855C22.7637 4.71605 22.8376 4.66488 22.9246 4.69047C22.9507 4.69899 23.0638 4.76296 23.0942 4.77149C23.2377 4.80987 23.3638 4.73311 23.6117 4.36211L23.4377 2.59238C23.4334 2.54974 23.429 2.54121 23.4377 2.53268C23.4508 2.49004 23.4943 2.5071 23.5073 2.51136L23.703 2.5668C23.7552 2.58386 23.7595 2.58812 23.7638 2.64782L23.8639 4.02948L24.664 2.89942C24.6944 2.85678 24.7074 2.85251 24.7335 2.85678L24.8944 2.90369C24.9205 2.91221 24.9379 2.92501 24.9292 2.95059C24.9292 2.95912 24.9249 2.96765 24.8944 3.00603L23.6812 4.63503V4.6265Z" fill="white"/>
<path d="M28.5383 4.41764L26.9685 5.65005C26.9076 5.69695 26.8989 5.70122 26.8685 5.68416C26.8337 5.66284 26.8337 5.64578 26.8424 5.58182L27.0729 3.61593L26.1684 5.21508C26.138 5.26625 26.1206 5.25772 26.0858 5.24066L25.9379 5.15964C25.9162 5.13832 25.9162 5.12553 25.9379 5.08715L27.0555 3.11273C27.0816 3.07009 27.0946 3.06156 27.1424 3.08715L27.3468 3.19802C27.3903 3.22361 27.399 3.23214 27.3859 3.29184L27.1859 5.18949L28.6904 4.00399C28.747 3.96561 28.7513 3.96135 28.8035 3.98693L29.0122 4.10207C29.0557 4.12339 29.0731 4.13619 29.047 4.1831L27.9208 6.1703C27.8903 6.21295 27.8817 6.21295 27.8338 6.18736L27.6642 6.09354C27.6164 6.06796 27.6121 6.05943 27.6425 6.00826L28.547 4.41337L28.5383 4.41764Z" fill="white"/>
<path d="M29.5384 7.02337C29.4427 7.14277 29.3731 7.19821 29.2296 7.17689C29.0818 7.1513 28.9035 7.04469 28.7861 6.9594C28.7122 6.90397 28.3078 6.59693 28.5948 6.23446C28.8383 5.92742 29.2123 6.06815 29.7471 6.2771L29.8558 6.14064C29.9384 6.03829 30.0819 5.85493 29.8775 5.70141C29.721 5.582 29.5732 5.66303 29.5123 5.70141C29.4514 5.73552 29.3818 5.7867 29.2992 5.72273C29.2601 5.69288 29.2123 5.61186 29.2775 5.52657C29.4036 5.36452 29.7341 5.36452 30.0254 5.58627C30.4254 5.88904 30.2037 6.17902 30.095 6.32401L29.534 7.0319L29.5384 7.02337ZM29.6558 6.3965C29.2862 6.26431 29.0383 6.17902 28.8774 6.38371C28.86 6.40503 28.6774 6.63957 28.9557 6.84853C29.1688 7.01058 29.2688 6.88691 29.3253 6.81441L29.6558 6.3965Z" fill="white"/>
<path d="M30.8211 8.60548C30.7994 8.6268 30.7733 8.64813 30.7428 8.62254L30.608 8.49034C30.5689 8.45196 30.5602 8.43491 30.6037 8.388L31.4168 7.57776C31.5299 7.46262 31.7125 7.28352 31.4255 7.00633C31.1603 6.75047 31.0037 6.90399 30.9429 6.96369L30.0471 7.85068C30.0036 7.89333 29.9819 7.88053 29.9471 7.85068L29.8253 7.73555C29.7906 7.70569 29.7819 7.68437 29.8253 7.64599L30.8037 6.67798C30.895 6.58842 30.9516 6.55857 31.0777 6.59695C31.3255 6.67371 31.556 6.89546 31.5864 6.92105C32.0517 7.37307 31.7995 7.62894 31.656 7.77392L30.8211 8.60548Z" fill="white"/>
<path d="M32.1779 9.77376C32.0562 9.86758 31.9779 9.90596 31.8431 9.85052C31.7083 9.79082 31.5605 9.64583 31.4692 9.53496C31.4126 9.46246 31.0952 9.07014 31.4605 8.78442C31.7692 8.54135 32.0997 8.77163 32.5693 9.09572L32.7084 8.98911C32.8128 8.90809 32.9954 8.7631 32.8389 8.56694C32.7128 8.41342 32.5562 8.46033 32.4823 8.48165C32.4171 8.50297 32.3345 8.53282 32.2693 8.4518C32.2388 8.41342 32.2127 8.32387 32.2953 8.25564C32.4562 8.12771 32.778 8.20447 33.0085 8.49018C33.3216 8.87824 33.0346 9.10852 32.8954 9.21939L32.1779 9.77803V9.77376ZM32.4432 9.19381C32.1171 8.97632 31.8996 8.8356 31.6909 8.99764C31.6692 9.0147 31.4344 9.19807 31.6518 9.46673C31.817 9.67568 31.9431 9.5776 32.0171 9.52216L32.4432 9.19381Z" fill="white"/>
<path d="M34.165 10.5967C34.1302 10.6735 34.091 10.7801 33.9128 10.8867C33.5562 11.1042 33.2301 10.8995 33.0866 10.6692C33.0431 10.5967 33.0214 10.5413 32.9996 10.4816C32.8909 10.4517 32.7996 10.4432 32.7431 10.4816C32.6474 10.537 32.7213 10.6692 32.817 10.844L32.9953 11.1639C33.0648 11.2961 33.2518 11.6458 32.93 11.8377C32.73 11.9571 32.23 11.9741 31.8299 11.3387C31.756 11.2193 31.7168 11.1298 31.6951 11.053C31.6299 10.8398 31.6821 10.6649 31.8212 10.5797C31.9777 10.4816 32.1995 10.537 32.4126 10.6394C32.3821 10.5498 32.33 10.3835 32.4691 10.2982C32.5952 10.2214 32.8561 10.3067 32.9779 10.3451C32.9779 10.2726 32.9735 10.166 33.0605 10.0253C33.117 9.93573 33.1953 9.86324 33.2779 9.81633C33.5736 9.63722 33.9128 9.72678 34.1041 10.0295C34.1693 10.1319 34.1867 10.2044 34.2041 10.2811C34.2215 10.3622 34.2302 10.4091 34.2737 10.4773C34.2998 10.52 34.4824 10.7204 34.4954 10.7374C34.5172 10.7673 34.4389 10.8227 34.4259 10.8313C34.4041 10.844 34.3954 10.8355 34.378 10.8185L34.165 10.6095V10.5967ZM32.0778 10.7673C31.8951 10.8782 31.956 11.1298 32.0821 11.3345C32.2213 11.5562 32.5213 11.7524 32.7126 11.633C32.8822 11.5306 32.7822 11.3259 32.73 11.2278C32.6909 11.1639 32.5082 10.844 32.4691 10.7716C32.3256 10.7332 32.1952 10.6905 32.0734 10.763L32.0778 10.7673ZM34.0128 10.3067C34.0215 10.247 34.0128 10.1788 33.9649 10.1106C33.8823 9.98264 33.7084 9.87603 33.4605 10.0253C33.1953 10.1873 33.1649 10.4347 33.2562 10.5839C33.3344 10.7119 33.504 10.8014 33.7432 10.6607C33.778 10.6394 33.8128 10.6138 33.8432 10.5882C33.991 10.4517 34.0041 10.3366 34.0128 10.311V10.3067Z" fill="white"/>
<path d="M34.1389 11.8379C33.7128 12.0597 33.6128 12.371 33.7215 12.6055C33.8085 12.7889 33.9781 12.8784 34.1955 12.904C34.2911 12.9125 34.3129 12.9168 34.3303 12.9509C34.339 12.968 34.3477 13.0191 34.2824 13.0447C34.1998 13.0831 33.6693 13.1556 33.4432 12.678C33.3562 12.4946 33.3128 12.2089 33.5389 11.9445C33.6563 11.7953 33.8259 11.6929 33.9737 11.629C34.1998 11.5266 34.3825 11.4968 34.526 11.5053C34.6086 11.5053 34.9651 11.5394 35.1391 11.9147C35.3652 12.4008 34.9869 12.6993 34.8608 12.7548C34.7738 12.7931 34.7434 12.7462 34.7173 12.7121L34.1346 11.8379H34.1389ZM34.7564 12.452C34.9477 12.3411 35.0347 12.1407 34.9521 11.9658C34.8347 11.7185 34.5825 11.6801 34.2955 11.7739L34.7564 12.4562V12.452Z" fill="white"/>
<path d="M35.3869 13.3727C35.5 13.3429 35.5565 13.3301 35.6391 13.3898C35.7522 13.4751 35.8696 13.6798 35.9218 13.8717C36.0175 14.2043 35.9131 14.3493 35.8653 14.4132C35.9609 14.4644 36.1175 14.5412 36.2131 14.8738C36.3653 15.4026 36.0088 15.5007 35.8305 15.5518L34.6695 15.8759C34.6216 15.8887 34.6042 15.8759 34.5912 15.8333L34.5434 15.6627C34.5303 15.6201 34.5347 15.603 34.5912 15.5859L35.6739 15.2832C35.8479 15.232 36.1001 15.1552 36.0088 14.8482C35.974 14.7331 35.9131 14.6734 35.8653 14.6435C35.7565 14.5753 35.6696 14.6009 35.5652 14.6265L34.4042 14.9506C34.3564 14.9633 34.339 14.9633 34.3259 14.9122L34.2781 14.7416C34.2651 14.6947 34.2651 14.6776 34.3172 14.6606L35.4304 14.3493C35.5478 14.3152 35.8392 14.2299 35.7479 13.9228C35.6565 13.6115 35.4087 13.6712 35.2956 13.7054L34.1346 14.0294C34.0824 14.0422 34.0694 14.0337 34.052 13.9825L34.0042 13.8162C33.9911 13.7736 33.9955 13.7565 34.052 13.7395L35.3869 13.3685V13.3727Z" fill="white"/>
<path d="M35.6566 16.5668C35.1826 16.6521 34.9869 16.9165 35.0217 17.1723C35.0478 17.3728 35.1826 17.5092 35.3826 17.5988C35.4696 17.6372 35.487 17.6457 35.4957 17.6841C35.4957 17.7054 35.4957 17.7523 35.4218 17.7608C35.3348 17.7694 34.8043 17.6841 34.7391 17.1595C34.713 16.9591 34.7608 16.6777 35.0565 16.4858C35.2174 16.3792 35.4087 16.3365 35.5696 16.3152C35.8175 16.2853 36.0001 16.3152 36.1349 16.3621C36.2132 16.392 36.5393 16.5241 36.5915 16.9378C36.6567 17.4666 36.2045 17.6372 36.061 17.6542C35.9653 17.667 35.9523 17.6116 35.9392 17.5689L35.6566 16.5625V16.5668ZM36.0523 17.3301C36.2697 17.2832 36.4132 17.1169 36.3915 16.925C36.3567 16.6521 36.1262 16.5412 35.8262 16.5455L36.0523 17.3344V17.3301Z" fill="white"/>
<path d="M34.9477 19.7185C34.9173 19.7185 34.8869 19.7142 34.8782 19.6758V19.4882C34.8782 19.4328 34.8912 19.4157 34.9521 19.4157L36.1088 19.4328C36.2696 19.4328 36.5305 19.4413 36.5349 19.0447C36.5392 18.6822 36.3218 18.678 36.2349 18.6737L34.9608 18.6524C34.8999 18.6524 34.8912 18.6268 34.8912 18.5799V18.4136C34.8912 18.3667 34.8999 18.3496 34.9608 18.3496L36.3523 18.3709C36.4827 18.3709 36.5436 18.3965 36.6045 18.5117C36.7219 18.7419 36.7175 19.0575 36.7175 19.0959C36.7045 19.7398 36.3392 19.7355 36.1392 19.7313L34.9477 19.7142V19.7185Z" fill="white"/>
<path d="M36.4219 20.8614L35.3087 20.7463C35.1652 20.7335 35.1261 20.7292 35.0565 20.7634C34.9782 20.7932 34.9261 20.8529 34.913 20.951C34.913 20.9638 34.9087 21.0235 34.9087 21.0405C34.9043 21.1002 34.8521 21.1045 34.8348 21.1002C34.7478 21.0917 34.7434 20.9041 34.7521 20.8273C34.7695 20.6653 34.8478 20.5501 34.9478 20.4904C35.0609 20.4222 35.1783 20.4307 35.2826 20.4435L36.461 20.5629L36.4784 20.3838C36.4828 20.3412 36.4871 20.3327 36.535 20.3369C36.6263 20.3454 36.6306 20.3455 36.6306 20.3966L36.6132 20.5757L36.8176 20.597C36.8785 20.6013 36.8959 20.6141 36.9307 20.661L37.0524 20.8316C37.0785 20.87 37.0829 20.8828 37.0829 20.8913C37.0829 20.9254 37.035 20.9254 36.9915 20.9211L36.5741 20.8785L36.5437 21.1727C36.5437 21.2154 36.535 21.2282 36.4915 21.2197C36.4002 21.2111 36.3871 21.2069 36.3958 21.1599L36.4262 20.8657L36.4219 20.8614Z" fill="white"/>
<path d="M7.58355 31.0107L7.33569 30.7762L8.35756 29.7101L7.56181 28.9467L7.76618 28.7378L8.85327 29.7826L7.5792 31.0107H7.58355ZM8.63585 31.0917L7.70965 31.9915L7.4618 31.757L9.12722 30.0427L9.4229 30.3284L8.86631 30.87L9.14461 31.1386L8.91415 31.3647L8.6315 31.0917H8.63585Z" fill="white"/>
<path d="M9.3186 32.4351L9.47949 32.1878L10.3013 32.6995L10.5057 32.3371L10.8449 32.5503L10.597 32.8829L11.4189 33.3946L11.258 33.642L9.3186 32.4309V32.4351ZM10.1796 34.401L9.88824 34.2219L10.2492 33.6249L9.37513 33.0791L9.53602 32.8317L10.7492 33.5908L10.1796 34.4053V34.401ZM11.3145 33.0833L10.8144 32.2305L9.81432 32.1494L9.79257 31.8722L10.7797 31.8936L10.8797 31.7145L10.3318 31.3733L10.4927 31.126L11.9668 32.0471L11.8059 32.2944L11.2536 31.949L11.1362 32.1111L11.5841 32.9895L11.3145 33.0833Z" fill="white"/>
<path d="M13.5931 34.4307L13.2061 33.6674L12.4147 34.0512L12.2407 33.8081L13.1321 33.3177L13.2017 33.096L12.6843 32.8998L12.793 32.6226L13.3104 32.8188L13.3887 32.5928L13.7887 32.742L13.6974 32.9595L14.2149 33.1557L14.1062 33.4329L13.5887 33.2367L13.4974 33.4414L13.8714 34.3284L13.5974 34.4265L13.5931 34.4307ZM12.5147 35.5224L12.8669 34.5288L13.2539 34.6738L12.9539 35.3774L13.9018 35.7356L13.7974 36.0043L12.5147 35.5224ZM14.2975 35.0235L13.9757 34.9041L14.6019 33.2068L14.9889 33.3518L14.2975 35.0235Z" fill="white"/>
<path d="M16.1238 34.0173L16.1629 33.7443L16.7456 33.8211L16.7586 33.5908L17.1761 33.6463L17.1283 33.8723L17.7109 33.949L17.6718 34.222L17.5022 34.2006C17.5892 34.32 17.6283 34.4693 17.6109 34.6143C17.5718 34.9085 17.2848 35.126 16.9674 35.1644L16.8934 35.4757L17.5283 35.561L17.4892 35.8552L15.8716 35.6377L15.9107 35.3478L16.5499 35.433L16.5673 35.1132C16.2673 34.9938 16.0499 34.7081 16.0933 34.4138C16.1151 34.2689 16.1977 34.1409 16.3064 34.0428L16.1281 34.0173H16.1238ZM16.8978 34.1623C16.6847 34.1324 16.476 34.2689 16.4499 34.4608C16.4238 34.6527 16.5847 34.836 16.7978 34.8659C17.0152 34.8957 17.2283 34.7593 17.2544 34.5674C17.2804 34.3755 17.1152 34.1878 16.8978 34.1623ZM18.211 34.9725L18.011 36.2646L17.6675 36.2177L17.9588 33.8637L18.3675 33.9192L18.2545 34.6484L18.6284 34.6996L18.585 35.0237L18.211 34.9725Z" fill="white"/>
<path d="M22.268 35.4203L22.3376 36.0685L21.9941 36.1239L21.8593 35.4843L20.9331 35.6293L20.8853 35.3393L23.1464 34.9853L23.1942 35.2753L22.268 35.4203ZM21.5462 33.561L21.955 33.4971L21.9723 33.7018C22.3333 33.7188 22.6507 33.9278 22.7072 34.2561C22.7681 34.6442 22.4376 34.9853 22.0028 35.0536C21.5679 35.1218 21.1418 34.9001 21.0766 34.512C21.0244 34.1836 21.2636 33.8894 21.5984 33.7615L21.5506 33.561H21.5462ZM21.8288 34.0131C21.5897 34.0514 21.394 34.2391 21.4288 34.4523C21.4636 34.6698 21.7071 34.7892 21.9463 34.7508C22.1898 34.7124 22.3854 34.5248 22.3507 34.3073C22.3159 34.0941 22.068 33.9747 21.8245 34.0088L21.8288 34.0131Z" fill="white"/>
<path d="M25.9727 33.757L24.9465 33.4371L24.3855 34.3454L24.1116 34.226L24.6334 33.2239L24.4986 32.9467L24.9378 32.7847L25.0291 33.0832L26.0901 33.4798L25.9683 33.7527L25.9727 33.757ZM25.5465 34.4222L25.7857 35.1386L25.4596 35.258L25.1595 34.5629L24.2812 34.8913L24.1768 34.6184L26.3162 33.8209L26.4205 34.0938L25.5422 34.4222H25.5465Z" fill="white"/>
<path d="M28.3905 33.1389L28.0948 33.3137L27.2947 32.077L26.3468 32.6442L26.1946 32.3969L27.4904 31.6207L28.3905 33.1346V33.1389ZM29.4602 33.2156L29.1645 33.3905L27.8817 31.3862L28.234 31.1772L29.4602 33.2156Z" fill="white"/>
<path d="M31.5994 30.4009L31.3472 30.6311L30.8689 30.1621L30.6167 30.3923C30.7819 30.6823 30.7124 31.0746 30.4297 31.3305C30.1123 31.6205 29.6166 31.6375 29.3426 31.3518C29.1122 31.1088 29.1122 30.7207 29.3122 30.435L29.1687 30.307L29.4731 30.0299L29.5948 30.1791C29.8557 30.0299 30.1688 30.0213 30.3993 30.1663L30.6471 29.9403L30.2253 29.5096L30.5297 29.2324L31.5951 30.4051L31.5994 30.4009ZM29.6601 30.516C29.4861 30.6738 29.4513 30.951 29.6035 31.113C29.7557 31.2708 30.0427 31.2623 30.2166 31.1002C30.3993 30.9339 30.4254 30.6567 30.2732 30.4989C30.121 30.3369 29.8427 30.3497 29.6601 30.516ZM32.443 31.4627L31.4864 32.3369L30.6471 31.5011L30.9298 31.2452L31.1211 31.4584L31.582 31.0405L31.3777 30.8401L31.6603 30.58L32.4474 31.4627H32.443ZM31.7647 31.2282L31.2907 31.6631L31.5342 31.936L32.0212 31.4925L31.7647 31.2324V31.2282Z" fill="white"/>
<path d="M5.90517 27.7528C5.90517 28.0726 5.63992 28.3328 5.31379 28.3328C4.98766 28.3328 4.72241 28.0726 4.72241 27.7528C4.72241 27.433 4.98766 27.1729 5.31379 27.1729C5.63992 27.1729 5.90517 27.433 5.90517 27.7528Z" fill="white"/>
<path d="M34.0216 27.7528C34.0216 28.0726 33.7564 28.3328 33.4302 28.3328C33.1041 28.3328 32.8389 28.0726 32.8389 27.7528C32.8389 27.433 33.1041 27.1729 33.4302 27.1729C33.7564 27.1729 34.0216 27.433 34.0216 27.7528Z" fill="white"/>
<path d="M56.5721 16.4391H54.6457L54.4762 7.43694H48.2537V5.65869H56.7634L56.5721 16.4433V16.4391ZM61.1161 12.3581L61.003 20.2216H59.0767L58.8854 5.65869H61.2161L61.1596 10.3964H63.3381V12.3623H61.1248L61.1161 12.3581Z" fill="#231F20"/>
<path d="M65.9558 16.2346V14.418H71.4174L71.2652 11.8722H73.5176L73.3654 14.418H78.8226V16.2346H65.9558ZM77.3746 13.1472L72.3957 10.3413L67.4299 13.1685L66.4733 11.8039L71.2086 8.71652L71.1304 7.46279H67.5038V5.66748H77.2789V7.46279H73.6133L73.5567 8.68241L78.3486 11.7869L77.3746 13.1558V13.1472ZM76.0353 23.6675H74.109L73.9742 19.3988H68.1691V17.6035H76.2266L76.0353 23.6675Z" fill="#231F20"/>
<path d="M89.6935 14.8869L86.1061 11.3304L82.7492 15.2409L81.3359 14.2302L85.0016 9.49672L84.9059 8.07242H81.7925V6.25579H84.8842L84.8277 4.79736H87.2323L87.1932 6.25579H90.3022V8.07242H87.2106L87.154 9.43702L90.9328 13.7227L89.6935 14.8827V14.8869ZM86.2974 23.4797L86.1061 17.0234H88.4151L88.2803 21.7014H93.9679V23.4797H86.2974ZM94.581 16.759H92.6547L92.4634 5.65877H94.7724L94.581 16.759Z" fill="#231F20"/>
<path d="M98.6034 8.09361V6.38785H101.886L101.791 4.98486H104.139L104.043 6.38785H107.326V8.09361H106.37C106.944 8.76738 107.287 9.62879 107.287 10.5286C107.287 12.3452 105.874 13.9188 104.139 14.4049L103.965 16.3708H107.552V18.1874H98.4294V16.3708H102.034L101.882 14.4049C100.125 13.9188 98.7121 12.3452 98.7121 10.5286C98.7121 9.62879 99.0773 8.76738 99.6122 8.09361H98.599H98.6034ZM102.991 8.33668C101.786 8.33668 100.738 9.33028 100.738 10.5243C100.738 11.7183 101.786 12.7119 102.991 12.7119C104.195 12.7119 105.282 11.7183 105.282 10.5243C105.282 9.33028 104.213 8.33668 102.991 8.33668ZM110.892 12.2087L110.779 20.2557H108.852L108.661 5.65437H110.97L110.914 10.2045H113.014V12.2087H110.896H110.892Z" fill="#231F20"/>
<path d="M126.667 16.3667L126.476 20.371H124.528L124.354 16.3667H119.106V14.5714H131.912V16.3667H126.663H126.667ZM124.354 4.3667H126.663L126.567 5.62043C128.555 6.06819 130.116 7.64175 130.116 9.6844C130.116 12.098 127.959 13.8592 125.498 13.8592C123.037 13.8592 120.88 12.098 120.88 9.6844C120.88 7.64175 122.463 6.07246 124.428 5.62043L124.35 4.3667H124.354ZM125.502 7.37736C124.145 7.37736 122.906 8.35391 122.906 9.6844C122.906 11.0149 124.145 12.0042 125.502 12.0042C126.859 12.0042 128.133 11.049 128.133 9.6844C128.133 8.31979 126.872 7.37736 125.502 7.37736Z" fill="#231F20"/>
<path d="M142.122 15.7698L141.93 20.4137H139.987L139.817 15.7698H134.569V13.9702H147.375V15.7698H142.126H142.122ZM145.705 12.8657L140.974 8.82308L136.204 12.8657L135.021 11.5907L139.774 6.94674L139.639 5.05762H142.274L142.139 6.96807L146.892 11.5352L145.709 12.8657H145.705Z" fill="#231F20"/>
<path d="M156.062 16.4391H154.132L153.98 7.43694H147.779V5.65869H156.276L156.067 16.4433L156.062 16.4391ZM160.946 20.2216H159.019L158.828 5.65869H161.137L160.946 20.2216Z" fill="#231F20"/>
<path d="M177.208 15.3174H175.278L175.143 11.2364H173.217C172.778 13.2193 170.964 14.6991 168.807 14.6991C166.364 14.6991 164.285 12.7332 164.285 10.3196C164.285 8.28117 165.79 6.53704 167.72 6.06796L167.625 4.88672H169.955L169.877 6.06796C171.521 6.46028 172.856 7.71401 173.217 9.32595H175.108L175.069 5.65431H177.4L177.208 15.3132V15.3174ZM168.812 7.86326C167.477 7.86326 166.255 8.97201 166.255 10.3196C166.255 11.6671 167.477 12.7886 168.812 12.7886C170.147 12.7886 171.39 11.6458 171.39 10.3196C171.39 8.99333 170.208 7.86326 168.812 7.86326ZM176.521 23.5733H169.19L168.999 16.3665H171.156L171.099 18.1063H174.613L174.556 16.3665H176.735L176.526 23.5733H176.521ZM174.669 19.7183H171.043L170.986 21.9443H174.708L174.669 19.7183Z" fill="#231F20"/>
<path d="M54.4892 27.9915C54.4892 27.8466 54.5153 27.7954 54.624 27.7613C54.8197 27.693 55.5285 27.6504 55.9242 27.6504C56.4112 27.6504 57.0591 27.7016 57.52 27.9873C57.9462 28.2645 58.1331 28.6781 58.1331 29.1088C58.1331 29.8252 57.6113 30.2474 57.2026 30.4478C57.1417 30.4819 57.0765 30.5075 57.0069 30.5331C57.0765 30.5502 57.133 30.5587 57.2026 30.5758C58.081 30.789 58.5245 31.4116 58.5245 32.1792C58.5245 33.8466 56.5155 33.8466 55.885 33.8466C55.3024 33.8466 54.7675 33.7869 54.6197 33.7357C54.4979 33.7016 54.4849 33.6589 54.4849 33.45V27.9915H54.4892ZM55.3197 30.3753C55.585 30.3839 55.7894 30.3839 56.0372 30.3668C57.1417 30.2815 57.2765 29.5651 57.2765 29.2623C57.2765 28.1451 56.1981 28.1451 55.9285 28.1451C55.6981 28.1451 55.5024 28.1621 55.3241 28.1877V30.3711L55.3197 30.3753ZM55.3197 33.2964C55.4806 33.3135 55.7198 33.3391 56.0285 33.3391C56.9417 33.3391 57.6418 33.0107 57.6418 32.1579C57.6418 31.7101 57.4635 31.4329 57.333 31.2964C56.9417 30.8487 56.3503 30.8231 55.872 30.8231C55.6415 30.8231 55.5198 30.8316 55.3154 30.8402V33.3007L55.3197 33.2964Z" fill="#231F20"/>
<path d="M60.0029 31.42C60.0725 32.6311 60.6769 33.1897 61.3248 33.1897C61.8379 33.1897 62.2206 32.8955 62.5032 32.4307C62.6249 32.226 62.6467 32.1791 62.751 32.1791C62.8032 32.1791 62.925 32.2047 62.925 32.388C62.925 32.6141 62.5467 33.8976 61.2161 33.8976C60.703 33.8976 60.0116 33.6887 59.6289 32.8955C59.4072 32.4648 59.355 31.9701 59.355 31.565C59.355 30.9424 59.4724 30.4946 59.6463 30.1748C59.7376 29.9915 60.1725 29.2153 61.2248 29.2153C62.5728 29.2153 62.8641 30.4008 62.8641 30.7505C62.8641 30.9936 62.7206 31.0106 62.6162 31.0277L60.0029 31.4158V31.42ZM62.0423 30.678C61.9901 30.1236 61.6161 29.71 61.1291 29.71C60.4377 29.71 60.0855 30.2473 60.0029 30.9978L62.0466 30.678H62.0423Z" fill="#231F20"/>
<path d="M65.6994 31.2753C66.1429 31.5013 66.743 31.7913 66.743 32.6058C66.743 32.9683 66.5995 33.3307 66.3429 33.5653C65.982 33.8851 65.5211 33.9022 65.308 33.9022C64.1644 33.9022 63.8296 33.1772 63.8296 32.9256C63.8296 32.674 64.0079 32.5546 64.1775 32.5546C64.3644 32.5546 64.4688 32.6996 64.521 32.7806C64.5471 32.8233 64.5819 32.883 64.634 32.9768C64.7558 33.1687 64.9341 33.4118 65.3689 33.4118C65.8037 33.4118 66.0299 33.0749 66.0299 32.755C66.0299 32.2305 65.5863 32.0216 65.2124 31.8382C64.5123 31.5013 63.9209 31.2156 63.9209 30.4224C63.9209 29.8083 64.347 29.2241 65.2819 29.2241C66.2168 29.2241 66.6125 29.8211 66.6125 30.0941C66.6125 30.303 66.469 30.4224 66.2951 30.4224C66.0733 30.4224 65.9951 30.2774 65.9212 30.1282C65.8255 29.9619 65.6733 29.6634 65.2645 29.6634C64.8036 29.6634 64.6253 30.0429 64.6253 30.2945C64.6253 30.7806 65.0384 30.9683 65.3428 31.1047L65.7081 31.2796L65.6994 31.2753Z" fill="#231F20"/>
<path d="M68.7995 29.7017V32.5077C68.8082 32.8702 68.8082 32.964 68.9039 33.1303C68.9952 33.3094 69.1605 33.4331 69.417 33.4331C69.4518 33.4331 69.6083 33.4245 69.6388 33.4245C69.791 33.4245 69.8084 33.5439 69.8084 33.5951C69.8084 33.8211 69.3387 33.8808 69.1431 33.8808C68.73 33.8808 68.4256 33.7145 68.2473 33.4842C68.0516 33.2156 68.0429 32.9299 68.0429 32.6655V29.706H67.5907C67.4776 29.706 67.4646 29.6975 67.4646 29.5781C67.4646 29.352 67.4646 29.335 67.5907 29.3265H68.0429V28.8062C68.0429 28.6484 68.069 28.6058 68.1734 28.5034L68.5647 28.1495C68.6517 28.0727 68.6821 28.0557 68.7126 28.0557C68.7995 28.0557 68.8039 28.1708 68.8039 28.2689V29.3265H69.5475C69.6518 29.3265 69.6823 29.335 69.6823 29.4459C69.6823 29.6804 69.6823 29.706 69.5562 29.706H68.8039L68.7995 29.7017Z" fill="#231F20"/>
<path d="M73.9526 30.8787V33.6335C73.9526 33.7956 73.9004 33.7956 73.783 33.7956H73.296C73.1612 33.7956 73.1177 33.7956 73.1177 33.6378V27.8894C73.1177 27.7401 73.1525 27.6975 73.2699 27.689H76.2181C76.3398 27.6975 76.3789 27.6975 76.3789 27.8084C76.3789 27.932 76.3789 28.1026 76.3703 28.1367C76.3703 28.1964 76.3616 28.2604 76.2137 28.2476H73.9482V30.3286H75.8528C75.9746 30.3286 76.0137 30.3372 76.0137 30.4736C76.0137 30.576 76.0137 30.7508 76.005 30.7764C75.9963 30.8617 75.9528 30.8702 75.8484 30.8702H73.9439L73.9526 30.8787Z" fill="#231F20"/>
<path d="M79.5922 32.8915C79.5835 33.2796 79.54 33.497 79.2225 33.6676C78.9008 33.8425 78.3877 33.9022 78.0181 33.9022C77.7876 33.9022 76.5222 33.9022 76.5222 32.7295C76.5222 31.7358 77.4789 31.4501 78.8486 31.045V30.6058C78.8486 30.2689 78.8486 29.6804 78.2094 29.6804C77.7137 29.6804 77.5615 30.0685 77.4919 30.2433C77.431 30.4096 77.3658 30.6143 77.1092 30.6143C76.9918 30.6143 76.7657 30.529 76.7657 30.2518C76.7657 29.7358 77.4049 29.2241 78.3181 29.2241C79.5748 29.2241 79.5835 30.1495 79.5922 30.6058V32.8915ZM78.8486 31.4459C77.918 31.7486 77.3006 31.9448 77.3006 32.61C77.3006 32.6783 77.3006 33.4288 78.1702 33.4288C78.8399 33.4288 78.8486 33.0322 78.8486 32.7977V31.4416V31.4459Z" fill="#231F20"/>
<path d="M80.8665 30.1622C80.8665 29.8679 80.8752 29.7229 81.0795 29.5651C81.3622 29.3562 81.9405 29.2197 82.4362 29.2197C83.3059 29.2197 83.5885 29.5737 83.719 29.74C83.906 29.5438 84.206 29.2197 85.0757 29.2197C86.4671 29.2197 86.4584 30.1536 86.4584 30.6099V33.6334C86.4584 33.7528 86.4237 33.7869 86.3019 33.7954H85.8497C85.741 33.7954 85.6975 33.7784 85.6975 33.6334V30.8189C85.6888 30.3626 85.6801 29.7059 84.8713 29.7059C84.5713 29.7059 84.3843 29.8167 84.2799 29.902C84.0408 30.1195 84.0408 30.3455 84.0408 30.6099V33.6334C84.0408 33.7528 84.0234 33.7954 83.8929 33.7954H83.4494C83.332 33.7954 83.2798 33.7869 83.2798 33.6376V30.7379C83.2798 30.4266 83.2711 29.676 82.458 29.676C81.6448 29.676 81.6231 30.3157 81.6231 30.6099V33.6334C81.6231 33.7698 81.5883 33.7954 81.4535 33.7954H81.0187C80.9056 33.7954 80.8665 33.7698 80.8665 33.6334V30.1622Z" fill="#231F20"/>
<path d="M88.189 28.5544C87.8976 28.5544 87.728 28.3455 87.728 28.1067C87.728 27.8423 87.9237 27.6504 88.1977 27.6504C88.4368 27.6504 88.6325 27.8252 88.6499 28.0811C88.6499 28.3242 88.4803 28.5544 88.189 28.5544ZM88.5629 33.6419C88.5629 33.7869 88.5194 33.7996 88.3933 33.7996H87.9324C87.8063 33.7996 87.8063 33.7655 87.8063 33.6419V29.4883C87.8063 29.3775 87.8063 29.3263 87.9498 29.3263H88.3933C88.5325 29.3263 88.5629 29.3519 88.5629 29.4883V33.6419Z" fill="#231F20"/>
<path d="M89.9282 27.3263C89.9282 27.1941 89.9891 27.1855 90.0978 27.1855H90.5239C90.6544 27.1855 90.6848 27.1941 90.6848 27.3263V33.6376C90.6848 33.774 90.6327 33.7954 90.5239 33.7954H90.0891C89.95 33.7954 89.9282 33.7868 89.9282 33.6376V27.3263Z" fill="#231F20"/>
<path d="M93.6637 34.4095C93.4245 35.0577 93.0462 35.8594 92.133 35.8594C92.0287 35.8594 91.533 35.8594 91.533 35.4543C91.533 35.2581 91.6678 35.0833 91.8982 35.0833C91.9678 35.0833 92.2809 35.16 92.3591 35.16C92.7244 35.16 92.9766 34.8743 93.3071 33.7954L91.6504 29.5737C91.6069 29.4713 91.5982 29.4543 91.5982 29.4287C91.5982 29.3178 91.7112 29.3263 91.7504 29.3263H92.2548C92.3896 29.3263 92.4026 29.3434 92.4505 29.4841L93.655 32.8061L94.7638 29.4841C94.8073 29.3519 94.8334 29.3349 94.8986 29.3263H95.316C95.3856 29.3263 95.4334 29.3434 95.4334 29.4201C95.4334 29.4457 95.4334 29.4628 95.3899 29.5737L93.6506 34.4095H93.6637Z" fill="#231F20"/>
<path d="M99.6686 30.8787V33.6335C99.6686 33.7956 99.6165 33.7956 99.499 33.7956H99.012C98.8772 33.7956 98.8337 33.7956 98.8337 33.6378V27.8894C98.8337 27.7401 98.8685 27.6975 98.9859 27.689H101.934C102.056 27.6975 102.095 27.6975 102.095 27.8084C102.095 27.932 102.095 28.1026 102.086 28.1367C102.086 28.1964 102.078 28.2604 101.93 28.2476H99.6643V30.3286H101.569C101.691 30.3286 101.73 30.3372 101.73 30.4736C101.73 30.576 101.73 30.7508 101.721 30.7764C101.712 30.8617 101.669 30.8702 101.569 30.8702H99.6643L99.6686 30.8787Z" fill="#231F20"/>
<path d="M103.626 33.6504C103.617 33.7869 103.574 33.7954 103.469 33.7954H103.034C102.917 33.7954 102.865 33.7869 102.865 33.6504V30.0428C102.865 29.74 102.9 29.6376 103.087 29.5225C103.343 29.3647 103.891 29.2197 104.443 29.2197C104.861 29.2197 105.322 29.3135 105.322 29.7229C105.322 29.9191 105.182 30.0939 104.969 30.0939C104.813 30.0939 104.756 30.0257 104.613 29.8594C104.5 29.7485 104.391 29.6462 104.143 29.6462C103.639 29.6462 103.63 30.0257 103.621 30.2517V33.6547L103.626 33.6504Z" fill="#231F20"/>
<path d="M106.426 28.5544C106.135 28.5544 105.965 28.3455 105.965 28.1067C105.965 27.8423 106.161 27.6504 106.435 27.6504C106.674 27.6504 106.87 27.8252 106.887 28.0811C106.887 28.3242 106.717 28.5544 106.426 28.5544ZM106.804 33.6419C106.804 33.7869 106.761 33.7996 106.635 33.7996H106.174C106.043 33.7996 106.043 33.7655 106.043 33.6419V29.4883C106.043 29.3775 106.043 29.3263 106.191 29.3263H106.635C106.77 29.3263 106.804 29.3519 106.804 29.4883V33.6419Z" fill="#231F20"/>
<path d="M108.578 31.42C108.648 32.6311 109.252 33.1897 109.905 33.1897C110.418 33.1897 110.8 32.8955 111.083 32.4307C111.205 32.226 111.231 32.1791 111.331 32.1791C111.383 32.1791 111.5 32.2047 111.5 32.388C111.5 32.6141 111.122 33.8976 109.792 33.8976C109.278 33.8976 108.587 33.6887 108.204 32.8955C107.983 32.4648 107.93 31.9701 107.93 31.565C107.93 30.9424 108.048 30.4946 108.222 30.1748C108.313 29.9915 108.748 29.2153 109.8 29.2153C111.148 29.2153 111.44 30.4008 111.44 30.7505C111.44 30.9936 111.296 31.0106 111.192 31.0277L108.578 31.4158V31.42ZM110.622 30.678C110.57 30.1236 110.192 29.71 109.705 29.71C109.013 29.71 108.665 30.2473 108.578 30.9978L110.622 30.678Z" fill="#231F20"/>
<path d="M116.04 33.625C116.04 33.7017 116.031 33.7785 115.936 33.7998H115.466C115.331 33.7998 115.279 33.7828 115.279 33.625V30.7252C115.279 30.3201 115.279 29.6719 114.279 29.6719C113.362 29.6719 113.353 30.2263 113.353 30.4395V33.625C113.353 33.7785 113.292 33.7998 113.175 33.7998H112.757C112.635 33.8083 112.596 33.7828 112.596 33.6378V30.158C112.596 29.8297 112.648 29.6719 112.94 29.5269C113.514 29.2241 114.318 29.2241 114.409 29.2241C116.031 29.2241 116.04 30.141 116.04 30.6484V33.6292V33.625Z" fill="#231F20"/>
<path d="M120.867 32.8825C120.867 33.0446 120.867 33.2024 120.75 33.3644C120.458 33.7781 119.623 33.9017 119.171 33.9017C117.958 33.9017 117.162 33.1256 117.162 31.7013C117.162 30.5201 117.845 29.2237 119.171 29.2237C119.615 29.2237 119.88 29.3687 120.102 29.5094V27.3857C120.102 27.2493 120.119 27.1938 120.267 27.1938H120.702C120.832 27.1938 120.88 27.2109 120.871 27.3687V32.8868L120.867 32.8825ZM120.097 29.987C119.936 29.8506 119.706 29.6672 119.28 29.6672C118.493 29.6672 117.927 30.4433 117.927 31.4881C117.927 32.6906 118.519 33.3602 119.336 33.3602C120.08 33.3602 120.089 32.9295 120.097 32.6779V29.9828V29.987Z" fill="#231F20"/>
<path d="M122.193 27.3263C122.193 27.1941 122.254 27.1855 122.363 27.1855H122.789C122.915 27.1855 122.95 27.1941 122.95 27.3263V33.6376C122.95 33.774 122.898 33.7954 122.789 33.7954H122.354C122.215 33.7954 122.189 33.7868 122.189 33.6376V27.3263H122.193Z" fill="#231F20"/>
<path d="M125.924 34.4095C125.685 35.0577 125.311 35.8594 124.393 35.8594C124.289 35.8594 123.798 35.8594 123.798 35.4543C123.798 35.2581 123.932 35.0833 124.163 35.0833C124.232 35.0833 124.546 35.16 124.624 35.16C124.989 35.16 125.237 34.8743 125.572 33.7954L123.915 29.5737C123.872 29.4713 123.863 29.4543 123.863 29.4287C123.863 29.3178 123.976 29.3263 124.019 29.3263H124.524C124.663 29.3263 124.672 29.3434 124.719 29.4841L125.924 32.8061L127.037 29.4841C127.081 29.3519 127.107 29.3349 127.172 29.3263H127.589C127.659 29.3263 127.711 29.3434 127.711 29.4201C127.711 29.4457 127.711 29.4628 127.668 29.5737L125.924 34.4095Z" fill="#231F20"/>
<path d="M135.921 28.9682L134.034 33.6334C133.956 33.8125 133.947 33.8296 133.855 33.8296C133.751 33.8296 133.734 33.7869 133.669 33.6334L131.755 28.9682V33.642C131.755 33.7869 131.703 33.7997 131.603 33.7997H131.186C131.107 33.7827 131.099 33.7486 131.099 33.6377V27.868C131.099 27.74 131.125 27.7017 131.251 27.7017H131.834C131.96 27.7017 131.986 27.7187 132.038 27.868L133.934 32.3498L135.747 27.8765C135.817 27.7187 135.825 27.7017 135.969 27.7017H136.56C136.682 27.7017 136.73 27.7017 136.73 27.8509V33.6548C136.721 33.7827 136.695 33.7997 136.56 33.7997H136.082C135.947 33.7997 135.93 33.7827 135.93 33.6377V28.9725L135.921 28.9682Z" fill="#231F20"/>
<path d="M140.934 32.8915C140.926 33.2796 140.882 33.497 140.569 33.6676C140.243 33.8425 139.73 33.9022 139.365 33.9022C139.134 33.9022 137.869 33.9022 137.869 32.7295C137.869 31.7358 138.826 31.4501 140.195 31.045V30.6058C140.195 30.2689 140.195 29.6804 139.556 29.6804C139.06 29.6804 138.908 30.0685 138.839 30.2433C138.778 30.4096 138.712 30.6143 138.456 30.6143C138.339 30.6143 138.112 30.529 138.112 30.2518C138.112 29.7358 138.752 29.2241 139.669 29.2241C140.926 29.2241 140.934 30.1495 140.943 30.6058V32.8915H140.934ZM140.191 31.4459C139.26 31.7486 138.643 31.9448 138.643 32.61C138.643 32.6783 138.643 33.4288 139.517 33.4288C140.182 33.4288 140.191 33.0322 140.191 32.7977V31.4416V31.4459Z" fill="#231F20"/>
<path d="M145.661 33.625C145.661 33.7017 145.653 33.7785 145.561 33.7998H145.092C144.953 33.7998 144.905 33.7828 144.905 33.625V30.7252C144.905 30.3201 144.905 29.6719 143.905 29.6719C142.987 29.6719 142.983 30.2263 142.983 30.4395V33.625C142.983 33.7785 142.922 33.7998 142.804 33.7998H142.387C142.265 33.8083 142.226 33.7828 142.226 33.6378V30.158C142.226 29.8297 142.278 29.6719 142.57 29.5269C143.144 29.2241 143.944 29.2241 144.039 29.2241C145.661 29.2241 145.67 30.141 145.67 30.6484V33.6292L145.661 33.625Z" fill="#231F20"/>
<path d="M149.805 32.8915C149.797 33.2796 149.753 33.497 149.436 33.6676C149.114 33.8425 148.601 33.9022 148.231 33.9022C148.001 33.9022 146.735 33.9022 146.735 32.7295C146.735 31.7358 147.692 31.4501 149.057 31.045V30.6058C149.057 30.2689 149.057 29.6804 148.418 29.6804C147.922 29.6804 147.766 30.0685 147.701 30.2433C147.64 30.4096 147.575 30.6143 147.318 30.6143C147.201 30.6143 146.975 30.529 146.975 30.2518C146.975 29.7358 147.618 29.2241 148.531 29.2241C149.788 29.2241 149.797 30.1495 149.805 30.6058V32.8915ZM149.062 31.4459C148.131 31.7486 147.514 31.9448 147.514 32.61C147.514 32.6783 147.514 33.4288 148.388 33.4288C149.053 33.4288 149.062 33.0322 149.062 32.7977V31.4416V31.4459Z" fill="#231F20"/>
<path d="M153.836 29.8678C153.958 30.0426 154.127 30.2729 154.127 30.7889C154.127 31.8422 153.266 32.2558 152.588 32.2558C152.375 32.2558 152.232 32.2217 152.066 32.1876C151.862 32.3795 151.723 32.5586 151.723 32.7335C151.723 33.0106 152.101 33.0362 152.592 33.0618L153.506 33.113C153.884 33.1386 154.871 33.2153 154.871 34.1578C154.871 34.7462 154.245 35.8337 152.366 35.8337C152.019 35.8337 151.766 35.791 151.579 35.7399C151.04 35.5949 150.727 35.2494 150.727 34.8315C150.727 34.3667 151.127 33.9659 151.623 33.6503C151.392 33.5906 150.966 33.484 150.966 33.0703C150.966 32.6993 151.488 32.2601 151.727 32.0512C151.566 31.9573 151.336 31.8166 151.144 31.4371C151.023 31.194 150.975 30.9339 150.975 30.6908C150.975 29.8209 151.605 29.2153 152.514 29.2153C152.823 29.2153 153.001 29.275 153.18 29.3347C153.375 29.4115 153.488 29.4584 153.693 29.4584C153.819 29.4584 154.484 29.3347 154.541 29.3347C154.632 29.3347 154.654 29.5778 154.654 29.6034C154.654 29.6631 154.628 29.6716 154.558 29.6887L153.832 29.8635L153.836 29.8678ZM151.479 34.5458C151.479 35.0917 152.105 35.2964 152.71 35.2964C153.367 35.2964 154.18 34.9168 154.18 34.3539C154.18 33.855 153.606 33.7953 153.332 33.774C153.145 33.7654 152.223 33.7313 152.01 33.7143C151.736 33.9616 151.479 34.1876 151.479 34.5416V34.5458ZM153.006 29.7996C152.888 29.7057 152.723 29.6375 152.527 29.6375C152.145 29.6375 151.684 29.872 151.684 30.597C151.684 31.3731 152.171 31.7782 152.614 31.7782C152.988 31.7782 153.41 31.5437 153.41 30.8443C153.41 30.742 153.401 30.6354 153.384 30.533C153.288 30.0341 153.062 29.8507 153.01 29.7996H153.006Z" fill="#231F20"/>
<path d="M155.936 31.42C156.006 32.6311 156.615 33.1897 157.263 33.1897C157.776 33.1897 158.158 32.8955 158.441 32.4307C158.563 32.226 158.589 32.1791 158.689 32.1791C158.741 32.1791 158.859 32.2047 158.859 32.388C158.859 32.6141 158.48 33.8976 157.15 33.8976C156.637 33.8976 155.941 33.6887 155.558 32.8955C155.336 32.4648 155.284 31.9701 155.284 31.565C155.284 30.9424 155.406 30.4946 155.576 30.1748C155.667 29.9915 156.106 29.2153 157.158 29.2153C158.506 29.2153 158.798 30.4008 158.798 30.7505C158.798 30.9936 158.654 31.0106 158.55 31.0277L155.932 31.4158L155.936 31.42ZM157.985 30.678C157.932 30.1236 157.558 29.71 157.071 29.71C156.38 29.71 156.028 30.2473 155.941 30.9978L157.985 30.678Z" fill="#231F20"/>
<path d="M159.946 30.1622C159.946 29.8679 159.954 29.7229 160.159 29.5651C160.441 29.3562 161.02 29.2197 161.515 29.2197C162.385 29.2197 162.668 29.5737 162.798 29.74C162.985 29.5438 163.285 29.2197 164.155 29.2197C165.546 29.2197 165.537 30.1536 165.537 30.6099V33.6334C165.537 33.7528 165.503 33.7869 165.385 33.7954H164.933C164.82 33.7954 164.781 33.7784 164.781 33.6334V30.8189C164.772 30.3626 164.763 29.7059 163.95 29.7059C163.65 29.7059 163.463 29.8167 163.359 29.902C163.12 30.1195 163.12 30.3455 163.12 30.6099V33.6334C163.12 33.7528 163.102 33.7954 162.976 33.7954H162.533C162.415 33.7954 162.363 33.7869 162.363 33.6376V30.7379C162.363 30.4266 162.354 29.676 161.541 29.676C160.728 29.676 160.702 30.3157 160.702 30.6099V33.6334C160.702 33.7698 160.667 33.7954 160.533 33.7954H160.098C159.985 33.7954 159.941 33.7698 159.941 33.6334V30.1622H159.946Z" fill="#231F20"/>
<path d="M167.303 31.42C167.372 32.6311 167.977 33.1897 168.625 33.1897C169.138 33.1897 169.521 32.8955 169.803 32.4307C169.925 32.226 169.947 32.1791 170.051 32.1791C170.103 32.1791 170.221 32.2047 170.221 32.388C170.221 32.6141 169.842 33.8976 168.512 33.8976C167.999 33.8976 167.307 33.6887 166.925 32.8955C166.703 32.4648 166.651 31.9701 166.651 31.565C166.651 30.9424 166.772 30.4946 166.942 30.1748C167.033 29.9915 167.472 29.2153 168.52 29.2153C169.868 29.2153 170.16 30.4008 170.16 30.7505C170.16 30.9936 170.012 31.0106 169.912 31.0277L167.299 31.4158L167.303 31.42ZM169.347 30.678C169.294 30.1236 168.92 29.71 168.433 29.71C167.742 29.71 167.39 30.2473 167.307 30.9978L169.351 30.678H169.347Z" fill="#231F20"/>
<path d="M174.76 33.625C174.76 33.7017 174.752 33.7785 174.66 33.7998H174.191C174.056 33.7998 174.004 33.7828 174.004 33.625V30.7252C174.004 30.3201 174.004 29.6719 173.004 29.6719C172.09 29.6719 172.082 30.2263 172.082 30.4395V33.625C172.082 33.7785 172.025 33.7998 171.904 33.7998H171.486C171.369 33.8083 171.325 33.7828 171.325 33.6378V30.158C171.325 29.8297 171.377 29.6719 171.664 29.5269C172.238 29.2241 173.038 29.2241 173.134 29.2241C174.756 29.2241 174.765 30.141 174.765 30.6484V33.6292L174.76 33.625Z" fill="#231F20"/>
<path d="M176.991 29.7017V32.5077C177 32.8702 177 32.964 177.096 33.1303C177.187 33.3094 177.352 33.4331 177.609 33.4331C177.643 33.4331 177.796 33.4245 177.83 33.4245C177.983 33.4245 178 33.5439 178 33.5951C178 33.8211 177.53 33.8808 177.335 33.8808C176.926 33.8808 176.617 33.7145 176.439 33.4842C176.243 33.2156 176.235 32.9299 176.235 32.6655V29.706H175.782C175.674 29.706 175.656 29.6975 175.656 29.5781C175.656 29.352 175.656 29.335 175.782 29.3265H176.235V28.8062C176.235 28.6484 176.261 28.6058 176.365 28.5034L176.756 28.1495C176.843 28.0727 176.874 28.0557 176.9 28.0557C176.987 28.0557 176.991 28.1708 176.991 28.2689V29.3265H177.735C177.839 29.3265 177.87 29.335 177.87 29.4459C177.87 29.6804 177.87 29.706 177.743 29.706H176.991V29.7017Z" fill="#231F20"/>
</g>
<defs>
<clipPath id="clip0_82_373">
<rect width="178" height="38" fill="white"/>
</clipPath>
</defs>
</svg>
