<svg width="177" height="43" viewBox="0 0 177 43" fill="none" xmlns="http://www.w3.org/2000/svg">
<g clip-path="url(#clip0_82_472)">
<path d="M73.9978 13.416V13.7006H69.926V13.416L71.229 13.2534C71.229 12.6842 71.2426 12.0879 71.2426 11.5323V7.83264L70.1703 7.9275V7.58871L72.6541 7.01953L72.7898 7.11439L72.7491 8.6051V11.5187C72.7491 12.0744 72.7491 12.6571 72.7627 13.2398L73.9842 13.4025L73.9978 13.416Z" fill="#231F20"/>
<path d="M76.6444 8.22601C76.5629 8.67322 76.2779 8.83585 75.9521 8.83585C75.735 8.83585 75.545 8.74098 75.4364 8.56481C75.4635 7.46711 76.4272 7.00635 77.5266 7.00635C78.9788 7.00635 79.671 7.67039 79.671 8.61902C79.671 9.39147 79.2096 10.0149 77.9473 10.2588C79.3724 10.4756 79.8746 11.1126 79.8746 11.9934C79.8746 13.1047 78.9245 13.8636 77.3637 13.8636C75.9657 13.8636 75.2464 13.2537 75.1514 12.2374C75.2464 11.9392 75.4771 11.8308 75.7214 11.8308C76.0879 11.8308 76.3186 12.007 76.4 12.6168L76.5493 13.5112C76.6579 13.5383 76.7665 13.5519 76.8887 13.5519C77.8387 13.5519 78.3681 13.0369 78.3681 12.0205C78.3681 11.0041 77.8659 10.4892 76.9294 10.4892H76.5765V10.1368H76.8887C77.703 10.1368 78.2323 9.67606 78.2323 8.65967C78.2323 7.7788 77.8252 7.31804 77.1194 7.31804C77.0244 7.31804 76.9294 7.31804 76.8208 7.34514L76.6444 8.23957V8.22601Z" fill="#231F20"/>
<path d="M85.4529 10.4212C85.4529 12.8063 84.3264 13.8498 83.0642 13.8498C81.8019 13.8498 80.689 12.8063 80.689 10.4212C80.689 8.03605 81.8019 6.979 83.0642 6.979C84.3264 6.979 85.4529 8.0225 85.4529 10.4212ZM83.0642 13.5245C83.6071 13.5245 84.0685 12.8605 84.0685 10.4212C84.0685 7.98184 83.6071 7.2907 83.0642 7.2907C82.5213 7.2907 82.0734 7.95474 82.0734 10.4212C82.0734 12.8876 82.5213 13.5245 83.0642 13.5245Z" fill="#231F20"/>
<path d="M89.0904 13.6194C90.6513 13.0773 91.4792 12.2236 91.7507 10.7735C91.4521 10.9903 91.0313 11.153 90.502 11.153C89.3076 11.153 88.439 10.4347 88.439 9.1473C88.439 7.72436 89.5655 6.979 90.8413 6.979C92.4293 6.979 93.3387 8.00894 93.3387 9.77068C93.3387 11.8848 91.6557 13.4297 89.1447 13.8904L89.104 13.6194H89.0904ZM91.7914 10.516C91.8321 10.2179 91.8457 9.91975 91.8457 9.58096C91.8457 7.85987 91.4385 7.2907 90.8549 7.2907C90.3391 7.2907 89.9048 7.77856 89.9048 8.95757C89.9048 10.0688 90.3527 10.7329 91.0856 10.7329C91.3571 10.7329 91.5742 10.6651 91.7914 10.516Z" fill="#231F20"/>
<path d="M98.8492 10.4212C98.8492 12.8063 97.7227 13.8498 96.4604 13.8498C95.1982 13.8498 94.0852 12.8063 94.0852 10.4212C94.0852 8.03605 95.1982 6.979 96.4604 6.979C97.7227 6.979 98.8492 8.0225 98.8492 10.4212ZM96.4604 13.5245C97.0033 13.5245 97.4648 12.8605 97.4648 10.4212C97.4648 7.98184 97.0033 7.2907 96.4604 7.2907C95.9175 7.2907 95.4696 7.95474 95.4696 10.4212C95.4696 12.8876 95.9175 13.5245 96.4604 13.5245Z" fill="#231F20"/>
<path d="M104.414 10.4212C104.414 12.8063 103.287 13.8498 102.025 13.8498C100.763 13.8498 99.6499 12.8063 99.6499 10.4212C99.6499 8.03605 100.763 6.979 102.025 6.979C103.287 6.979 104.414 8.0225 104.414 10.4212ZM102.025 13.5245C102.568 13.5245 103.029 12.8605 103.029 10.4212C103.029 7.98184 102.568 7.2907 102.025 7.2907C101.482 7.2907 101.034 7.95474 101.034 10.4212C101.034 12.8876 101.482 13.5245 102.025 13.5245Z" fill="#231F20"/>
<path d="M109.667 13.416V13.7006H105.595V13.416L106.898 13.2534C106.898 12.6842 106.911 12.0879 106.911 11.5323V7.83264L105.839 7.9275V7.58871L108.323 7.01953L108.459 7.11439L108.418 8.6051V11.5187C108.418 12.0744 108.418 12.6571 108.431 13.2398L109.653 13.4025L109.667 13.416Z" fill="#231F20"/>
<path d="M73.9978 24.3794V24.664H69.926V24.3794L71.229 24.2168C71.229 23.6476 71.2426 23.0513 71.2426 22.4957V18.796L70.1703 18.8909V18.5521L72.6541 17.9829L72.7898 18.0778L72.7491 19.5685V22.4821C72.7491 23.0377 72.7491 23.6205 72.7627 24.2032L73.9842 24.3658L73.9978 24.3794Z" fill="#231F20"/>
<path d="M76.6444 19.1894C76.5629 19.6366 76.2779 19.7992 75.9521 19.7992C75.735 19.7992 75.545 19.7044 75.4364 19.5282C75.4635 18.4305 76.4272 17.9697 77.5266 17.9697C78.9788 17.9697 79.671 18.6338 79.671 19.5824C79.671 20.3549 79.2096 20.9782 77.9473 21.2222C79.3724 21.439 79.8746 22.0759 79.8746 22.9568C79.8746 24.0681 78.9245 24.827 77.3637 24.827C75.9657 24.827 75.2464 24.2171 75.1514 23.2007C75.2464 22.9026 75.4771 22.7942 75.7214 22.7942C76.0879 22.7942 76.3186 22.9704 76.4 23.5802L76.5493 24.4746C76.6579 24.5017 76.7665 24.5153 76.8887 24.5153C77.8387 24.5153 78.3681 24.0003 78.3681 22.9839C78.3681 21.9675 77.8659 21.4525 76.9294 21.4525H76.5765V21.1002H76.8887C77.703 21.1002 78.2323 20.6394 78.2323 19.6231C78.2323 18.7422 77.8252 18.2814 77.1194 18.2814C77.0244 18.2814 76.9294 18.2814 76.8208 18.3085L76.6444 19.2029V19.1894Z" fill="#231F20"/>
<path d="M85.4529 21.3982C85.4529 23.7833 84.3264 24.8268 83.0642 24.8268C81.8019 24.8268 80.689 23.7833 80.689 21.3982C80.689 19.0131 81.8019 17.9561 83.0642 17.9561C84.3264 17.9561 85.4529 18.9995 85.4529 21.3982ZM83.0642 24.5016C83.6071 24.5016 84.0685 23.8376 84.0685 21.3982C84.0685 18.9589 83.6071 18.2677 83.0642 18.2677C82.5213 18.2677 82.0734 18.9318 82.0734 21.3982C82.0734 23.8647 82.5213 24.5016 83.0642 24.5016Z" fill="#231F20"/>
<path d="M92.9587 24.3794V24.664H88.887V24.3794L90.1899 24.2168C90.1899 23.6476 90.2035 23.0513 90.2035 22.4957V18.796L89.1313 18.8909V18.5521L91.6151 17.9829L91.7508 18.0778L91.7101 19.5685V22.4821C91.7101 23.0377 91.7101 23.6205 91.7236 24.2032L92.9452 24.3658L92.9587 24.3794Z" fill="#231F20"/>
<path d="M98.9848 23.1059H97.9804V24.6643H96.6775V23.1059H94.0037V22.3334L96.9625 18.0781H97.9804V22.1572H98.9848V23.1059ZM96.6775 22.1572V19.0539L94.5194 22.1572H96.6775Z" fill="#231F20"/>
<path d="M104.414 21.3982C104.414 23.7833 103.287 24.8268 102.025 24.8268C100.763 24.8268 99.6499 23.7833 99.6499 21.3982C99.6499 19.0131 100.763 17.9561 102.025 17.9561C103.287 17.9561 104.414 18.9995 104.414 21.3982ZM102.025 24.5016C102.568 24.5016 103.029 23.8376 103.029 21.3982C103.029 18.9589 102.568 18.2677 102.025 18.2677C101.482 18.2677 101.034 18.9318 101.034 21.3982C101.034 23.8647 101.482 24.5016 102.025 24.5016Z" fill="#231F20"/>
<path d="M109.979 21.3982C109.979 23.7833 108.852 24.8268 107.59 24.8268C106.328 24.8268 105.215 23.7833 105.215 21.3982C105.215 19.0131 106.328 17.9561 107.59 17.9561C108.852 17.9561 109.979 18.9995 109.979 21.3982ZM107.59 24.5016C108.133 24.5016 108.594 23.8376 108.594 21.3982C108.594 18.9589 108.133 18.2677 107.59 18.2677C107.047 18.2677 106.599 18.9318 106.599 21.3982C106.599 23.8647 107.047 24.5016 107.59 24.5016Z" fill="#231F20"/>
<path d="M115.231 24.3794V24.664H111.159V24.3794L112.462 24.2168C112.462 23.6476 112.476 23.0513 112.476 22.4957V18.796L111.39 18.8909V18.5521L113.874 17.9829L114.01 18.0778L113.969 19.5685V22.4821C113.969 23.0377 113.969 23.6205 113.983 24.2032L115.204 24.3658L115.231 24.3794Z" fill="#231F20"/>
<path d="M73.9978 35.3564V35.641H69.926V35.3564L71.229 35.1938C71.229 34.6246 71.2426 34.0284 71.2426 33.4727V29.7731L70.1703 29.8679V29.5291L72.6541 28.96L72.7898 29.0548L72.7491 30.5455V33.4592C72.7491 34.0148 72.7491 34.5975 72.7627 35.1803L73.9842 35.3429L73.9978 35.3564Z" fill="#231F20"/>
<path d="M76.6444 30.1664C76.5629 30.6137 76.2779 30.7763 75.9521 30.7763C75.735 30.7763 75.545 30.6814 75.4364 30.5052C75.4635 29.4075 76.4272 28.9468 77.5266 28.9468C78.9788 28.9468 79.671 29.6108 79.671 30.5594C79.671 31.3319 79.2096 31.9553 77.9473 32.1992C79.3724 32.416 79.8746 33.053 79.8746 33.9339C79.8746 35.0451 78.9245 35.804 77.3637 35.804C75.9657 35.804 75.2464 35.1942 75.1514 34.1778C75.2464 33.8796 75.4771 33.7712 75.7214 33.7712C76.0879 33.7712 76.3186 33.9474 76.4 34.5572L76.5493 35.4517C76.6579 35.4788 76.7665 35.4923 76.8887 35.4923C77.8387 35.4923 78.3681 34.9773 78.3681 33.961C78.3681 32.9446 77.8659 32.4296 76.9294 32.4296H76.5765V32.0773H76.8887C77.703 32.0773 78.2323 31.6165 78.2323 30.6001C78.2323 29.7192 77.8252 29.2585 77.1194 29.2585C77.0244 29.2585 76.9294 29.2585 76.8208 29.2856L76.6444 30.18V30.1664Z" fill="#231F20"/>
<path d="M85.4529 32.3616C85.4529 34.7467 84.3264 35.7902 83.0642 35.7902C81.8019 35.7902 80.689 34.7467 80.689 32.3616C80.689 29.9765 81.8019 28.9194 83.0642 28.9194C84.3264 28.9194 85.4529 29.9629 85.4529 32.3616ZM83.0642 35.465C83.6071 35.465 84.0685 34.8009 84.0685 32.3616C84.0685 29.9223 83.6071 29.2311 83.0642 29.2311C82.5213 29.2311 82.0734 29.8952 82.0734 32.3616C82.0734 34.828 82.5213 35.465 83.0642 35.465Z" fill="#231F20"/>
<path d="M93.4067 34.0692H92.4023V35.6277H91.0993V34.0692H88.4255V33.2968L91.3844 29.0415H92.4023V33.1206H93.4067V34.0692ZM91.0993 33.1206V30.0172L88.9413 33.1206H91.0993Z" fill="#231F20"/>
<path d="M95.1847 31.8331C95.5783 31.7111 95.9855 31.6704 96.4198 31.6704C97.9671 31.6704 98.9171 32.3751 98.9171 33.6355C98.9171 35.0313 97.777 35.7902 96.2298 35.7902C94.9539 35.7902 94.1667 35.1533 94.0989 34.164C94.2075 33.8929 94.4518 33.7574 94.6961 33.7574C95.0761 33.7574 95.2797 33.9607 95.3476 34.5028L95.4697 35.4107C95.619 35.465 95.7683 35.4785 95.9583 35.4785C96.7862 35.4785 97.3427 34.8551 97.3427 33.8116C97.3427 32.7681 96.8541 32.1719 96.0398 32.1719C95.6597 32.1719 95.334 32.2125 94.9811 32.3209L94.7096 32.1447L94.9268 29.082H98.6593V30.2068H95.2933L95.1711 31.8331H95.1847Z" fill="#231F20"/>
<path d="M104.414 32.3616C104.414 34.7467 103.287 35.7902 102.025 35.7902C100.763 35.7902 99.6499 34.7467 99.6499 32.3616C99.6499 29.9765 100.763 28.9194 102.025 28.9194C103.287 28.9194 104.414 29.9629 104.414 32.3616ZM102.025 35.465C102.568 35.465 103.029 34.8009 103.029 32.3616C103.029 29.9223 102.568 29.2311 102.025 29.2311C101.482 29.2311 101.034 29.8952 101.034 32.3616C101.034 34.828 101.482 35.465 102.025 35.465Z" fill="#231F20"/>
<path d="M109.979 32.3616C109.979 34.7467 108.852 35.7902 107.59 35.7902C106.328 35.7902 105.215 34.7467 105.215 32.3616C105.215 29.9765 106.328 28.9194 107.59 28.9194C108.852 28.9194 109.979 29.9629 109.979 32.3616ZM107.59 35.465C108.133 35.465 108.594 34.8009 108.594 32.3616C108.594 29.9223 108.133 29.2311 107.59 29.2311C107.047 29.2311 106.599 29.8952 106.599 32.3616C106.599 34.828 107.047 35.465 107.59 35.465Z" fill="#231F20"/>
<path d="M115.231 35.3564V35.641H111.159V35.3564L112.462 35.1938C112.462 34.6246 112.476 34.0284 112.476 33.4727V29.7731L111.39 29.8679V29.5291L113.874 28.96L114.01 29.0548L113.969 30.5455V33.4592C113.969 34.0148 113.969 34.5975 113.983 35.1803L115.204 35.3429L115.231 35.3564Z" fill="#231F20"/>
<path d="M123.958 14.3512L123.741 14.5274C122.235 13.1993 121.448 11.7493 121.448 9.83847C121.448 7.92766 122.235 6.47761 123.741 5.16309L123.958 5.35281C122.737 6.93838 122.398 8.15804 122.398 9.85202C122.398 11.546 122.778 12.7928 123.958 14.3648V14.3512Z" fill="#414042"/>
<path d="M131.22 9.05256C131.6 9.05256 132.156 9.14742 132.387 9.22873C132.482 9.26939 132.536 9.3236 132.536 9.44556C132.536 9.67594 132.387 9.87922 132.265 9.93343C132.021 9.90633 131.396 9.89278 131.098 9.89278C130.799 9.89278 129.849 9.89277 128.858 9.90633V10.0554C128.858 10.2993 128.804 10.5975 128.722 10.8279C129.089 10.8279 129.428 10.8143 129.645 10.8007L130.053 10.6517C130.053 10.6517 130.175 10.6246 130.243 10.6517C130.392 10.7194 130.663 10.8414 130.772 10.9227C130.813 10.9498 130.813 10.9905 130.785 11.0582L130.663 11.4648C130.623 11.8713 130.541 12.305 130.446 12.698L130.636 12.7929C130.636 12.7929 130.731 12.8742 130.731 12.9419C130.731 13.1452 130.65 13.3349 130.568 13.4027L127.175 13.4434C127.134 13.5518 127.08 13.6466 126.999 13.7279H126.429C126.347 13.5789 126.293 13.3485 126.279 13.1452L126.13 11.4241C126.022 11.3022 125.804 11.1666 125.614 11.0989L125.696 10.8143C125.696 10.8143 125.736 10.7465 125.791 10.7465C126.157 10.7465 126.822 10.8007 127.189 10.855H127.867C127.84 10.6517 127.827 10.4348 127.827 10.2587V9.90633C127.039 9.90633 126.374 9.91988 126.171 9.94698C125.926 9.96053 125.37 10.0554 125.126 10.1232C124.759 9.98764 124.352 9.7166 124.108 9.47267C124.067 9.44556 124.067 9.39136 124.081 9.3507L124.162 9.18808C124.515 9.25584 124.99 9.28294 125.329 9.29649C125.94 9.29649 130.202 9.25584 130.853 9.20163L131.247 9.02546L131.22 9.05256ZM130.283 5.33936C130.595 5.33936 131.057 5.40711 131.233 5.46132C131.301 5.48843 131.356 5.55618 131.356 5.6375C131.356 5.86788 131.233 6.07115 131.138 6.12536C130.962 6.11181 130.405 6.09826 130.175 6.09826C129.727 6.09826 127.121 6.13891 126.714 6.15247C126.524 6.15247 126.157 6.23378 125.967 6.28798C125.669 6.15247 125.343 5.90853 125.112 5.6917C125.085 5.6646 125.085 5.62394 125.112 5.59684L125.18 5.46132C125.506 5.51553 125.927 5.55618 126.184 5.55618C126.632 5.55618 129.442 5.51553 129.944 5.48843L130.283 5.33936ZM125.302 7.94131C125.614 7.99552 126.049 8.03617 126.293 8.03617H126.727L126.619 7.11465C126.564 6.99268 126.415 6.87071 126.266 6.80295L126.361 6.53192C126.361 6.53192 126.415 6.46416 126.524 6.46416C126.836 6.49126 127.27 6.58613 127.501 6.69454C127.596 6.7352 127.61 6.7894 127.596 6.87071V7.19596L127.609 8.00907C128.071 8.00907 128.573 7.99552 129.007 7.98196L129.035 6.87071C128.967 6.77585 128.817 6.68099 128.655 6.62678L128.722 6.35574C128.722 6.35574 128.777 6.28798 128.872 6.28798C129.184 6.28798 129.659 6.35574 129.903 6.4235C129.985 6.45061 129.998 6.51837 129.998 6.61323L129.958 6.91137L129.863 7.94131H129.971L130.297 7.79224C130.582 7.79224 130.989 7.86 131.166 7.92776C131.233 7.94131 131.288 8.02262 131.288 8.09038C131.288 8.32076 131.166 8.52404 131.071 8.57825C130.908 8.56469 130.419 8.56469 130.202 8.56469C129.795 8.56469 127.229 8.60535 126.822 8.63245C126.632 8.63245 126.266 8.70021 126.076 8.75442C125.777 8.6189 125.438 8.37497 125.234 8.15814C125.207 8.13104 125.207 8.09038 125.221 8.06328L125.289 7.92776L125.302 7.94131ZM127.202 12.7793C127.84 12.7793 128.831 12.7793 129.374 12.7387L129.578 12.6845V11.4919C128.845 11.4919 127.908 11.519 127.202 11.5325V12.7658V12.7793Z" fill="#414042"/>
<path d="M135.97 8.15821C135.197 8.90356 134.219 9.55405 133.174 10.0284C133.106 10.069 133.066 10.069 133.038 10.0284L132.889 9.8793C132.889 9.8793 132.848 9.81154 132.889 9.75733C134.314 8.84936 135.427 7.61614 136.038 6.47778C135.577 6.47778 134.898 6.47778 134.721 6.50489C134.531 6.50489 134.192 6.57265 134.002 6.64041C133.717 6.50489 133.419 6.28806 133.201 6.08478C133.161 6.04412 133.161 6.00347 133.174 5.96281L133.242 5.84085C133.527 5.8815 133.88 5.90861 134.138 5.90861C134.464 5.90861 135.875 5.89505 136.323 5.86795L136.703 5.70533C136.703 5.70533 136.839 5.69178 136.907 5.70533C137.083 5.77309 137.395 5.90861 137.517 5.97637C137.572 6.01702 137.572 6.07123 137.545 6.12544L137.327 6.46423C137.097 6.88434 136.798 7.29089 136.445 7.69745L137.219 8.29373L137.64 8.38859C137.802 8.59187 138.006 8.87646 138.101 9.05263C138.169 9.18815 138.182 9.29657 138.169 9.36433C138.115 9.5134 137.897 9.62181 137.735 9.58116C137.667 9.5676 137.558 9.49984 137.477 9.41853L135.997 8.17176L135.97 8.15821ZM139.228 12.671C139.513 12.671 139.92 12.6981 140.123 12.7523C140.218 12.7658 140.273 12.8471 140.273 12.9285C140.273 13.1588 140.205 13.3215 140.151 13.3757C140.11 13.4163 140.056 13.4434 139.988 13.4434H135.902C135.319 13.457 135.102 13.2402 135.102 12.7658V11.9934C134.979 11.8714 134.789 11.763 134.572 11.6952L134.613 11.4649C134.613 11.4649 134.654 11.3971 134.708 11.3971C135.061 11.3971 135.875 11.4107 136.174 11.4513C136.69 11.4513 138.047 11.4513 138.413 11.4242L138.59 11.3835C138.617 11.2074 138.617 10.8144 138.603 10.6653C138.006 10.6653 136.595 10.6653 136.282 10.6924C136.065 10.6924 135.699 10.7602 135.454 10.8279C135.142 10.6789 134.844 10.462 134.626 10.2587C134.586 10.2181 134.586 10.191 134.599 10.1503L134.667 10.0148C134.939 10.069 135.387 10.1097 135.617 10.1097C136.079 10.1097 138.223 10.0961 138.753 10.069L139.105 9.91995C139.105 9.91995 139.214 9.89285 139.282 9.91995C139.418 9.96061 139.689 10.0826 139.798 10.1368C139.838 10.1774 139.838 10.2316 139.811 10.2859L139.662 10.6111C139.648 10.855 139.553 11.248 139.485 11.4107L139.648 11.492C139.648 11.492 139.73 11.5597 139.73 11.6139C139.73 11.7766 139.662 11.9392 139.608 12.0069L136.133 12.0476V12.671C136.133 12.7929 136.187 12.8471 136.309 12.8471C136.934 12.8471 138.345 12.8471 138.915 12.8336L139.2 12.6845L139.228 12.671ZM138.725 5.75954C138.603 5.55626 138.318 5.35298 138.006 5.24457L138.115 4.91932C138.115 4.91932 138.155 4.85156 138.25 4.85156C138.671 4.86511 139.363 5.00063 139.675 5.1497C139.77 5.19036 139.811 5.27167 139.798 5.39364L139.77 5.93571V7.99559C139.77 8.48346 139.621 9.25591 139.445 9.60826H138.834C138.766 9.33722 138.712 8.57832 138.712 8.25308V5.78664L138.725 5.75954Z" fill="#414042"/>
<path d="M146.543 4.91932C146.543 4.91932 146.584 4.85156 146.679 4.85156C147.113 4.86511 147.792 5.00063 148.118 5.1497C148.213 5.19036 148.24 5.27167 148.24 5.39364L148.199 5.93571V8.45635C148.199 8.95777 148.05 9.83864 147.873 10.2859H147.262C147.222 10.069 147.167 9.52695 147.154 9.10684C146.815 9.10684 146.394 9.10684 146.217 9.13394C146.055 9.1475 145.797 9.21526 145.647 9.25591C145.362 9.12039 145.132 8.93067 144.928 8.74094C144.887 8.70029 144.887 8.65963 144.901 8.61898L144.982 8.48346C145.213 8.52411 145.539 8.53766 145.797 8.53766C146.082 8.53766 146.72 8.53766 147.154 8.49701V7.38576C146.855 7.38576 146.53 7.39931 146.38 7.42641C146.217 7.43996 145.96 7.49417 145.81 7.54838C145.647 7.46707 145.498 7.37221 145.362 7.27734C144.616 8.60542 143.204 9.8793 141.508 10.6653C141.44 10.706 141.399 10.706 141.372 10.6653L141.223 10.5027C141.223 10.5027 141.182 10.4214 141.223 10.3807C142.784 9.32367 143.937 7.90073 144.467 6.5862C144.005 6.5862 143.272 6.5862 143.082 6.6133C142.906 6.6133 142.553 6.68106 142.349 6.74882C142.078 6.62685 141.766 6.41002 141.562 6.2203C141.521 6.17964 141.521 6.13899 141.535 6.09833L141.616 5.97637C141.888 6.01702 142.241 6.04412 142.499 6.04412C142.824 6.04412 144.29 6.03057 144.697 5.98992L145.077 5.81374C145.077 5.81374 145.227 5.78664 145.267 5.81374C145.43 5.8815 145.729 6.05768 145.837 6.12544C145.878 6.16609 145.892 6.2203 145.851 6.27451L145.688 6.59975C145.661 6.68106 145.62 6.74882 145.593 6.84368C145.715 6.84368 145.851 6.84368 145.96 6.84368C146.217 6.84368 146.747 6.84368 147.167 6.81658V5.75954C147.045 5.55626 146.76 5.35298 146.448 5.24457L146.557 4.91932H146.543ZM148.131 11.8579C148.131 12.9556 147.208 13.6332 146.068 13.6332C144.928 13.6332 144.005 12.9556 144.005 11.8579C144.005 10.7602 144.928 10.191 146.068 10.191C147.208 10.191 148.131 10.8279 148.131 11.8579ZM147.059 11.8579C147.059 11.2345 146.625 10.8957 146.068 10.8957C145.512 10.8957 145.077 11.248 145.077 11.8579C145.077 12.4677 145.512 12.8065 146.068 12.8065C146.625 12.8065 147.059 12.4677 147.059 11.8579Z" fill="#414042"/>
<path d="M154.917 4.91932C154.917 4.91932 154.972 4.85156 155.067 4.85156C155.487 4.86511 156.18 5.00063 156.492 5.1497C156.587 5.19036 156.628 5.27167 156.614 5.39364L156.587 5.93571V8.4428C156.587 8.94422 156.438 9.83864 156.248 10.2859H155.637C155.583 10.0148 155.542 9.29657 155.528 8.89001C155.243 8.89001 154.931 8.90356 154.782 8.93067C154.632 8.94422 154.375 8.99843 154.225 9.03908C154.035 8.94422 153.859 8.82225 153.709 8.68673C153.384 9.28302 152.705 9.67602 151.864 9.67602C150.642 9.67602 149.773 8.89001 149.773 7.77876C149.773 6.66751 150.642 5.92216 151.864 5.92216C153.085 5.92216 153.94 6.69461 153.94 7.77876C153.94 7.96849 153.913 8.14466 153.872 8.32083C154.035 8.32083 154.212 8.33439 154.361 8.33439C154.619 8.33439 155.135 8.33439 155.528 8.29373V7.08762C155.379 7.08762 155.23 7.08762 155.148 7.10117C154.999 7.11472 154.741 7.16893 154.578 7.22313C154.307 7.08762 154.09 6.89789 153.913 6.70816C153.872 6.66751 153.872 6.64041 153.886 6.5862L153.967 6.46423C154.185 6.50489 154.483 6.51844 154.727 6.51844C154.904 6.51844 155.216 6.51844 155.528 6.50489V5.78664C155.406 5.58336 155.121 5.38008 154.809 5.27167L154.904 4.94643L154.917 4.91932ZM152.909 7.75166C152.909 7.07406 152.474 6.65396 151.877 6.65396C151.28 6.65396 150.832 7.07406 150.832 7.75166C150.832 8.42925 151.266 8.86291 151.877 8.86291C152.488 8.86291 152.909 8.4428 152.909 7.75166ZM156.492 11.8443C156.492 12.9285 155.555 13.6332 154.415 13.6332C153.275 13.6332 152.339 12.942 152.339 11.8443C152.339 10.7466 153.275 10.1774 154.415 10.1774C155.555 10.1774 156.492 10.8144 156.492 11.8443ZM155.42 11.8443C155.42 11.2345 154.985 10.8821 154.415 10.8821C153.845 10.8821 153.397 11.2345 153.397 11.8443C153.397 12.4541 153.832 12.8065 154.415 12.8065C154.999 12.8065 155.42 12.4541 155.42 11.8443Z" fill="#414042"/>
<path d="M157.727 5.35281L157.931 5.16309C159.451 6.49117 160.238 7.94121 160.238 9.83847C160.238 11.7357 159.451 13.2129 157.931 14.5274L157.727 14.3512C158.949 12.7657 159.288 11.546 159.288 9.83847C159.288 8.13094 158.894 6.89772 157.727 5.33926V5.35281Z" fill="#414042"/>
<path d="M123.958 25.3283L123.741 25.5045C122.235 24.1764 121.448 22.7263 121.448 20.8155C121.448 18.9047 122.235 17.4547 123.741 16.1401L123.958 16.3299C122.737 17.9154 122.398 19.1351 122.398 20.8291C122.398 22.5231 122.778 23.7698 123.958 25.3418V25.3283Z" fill="#414042"/>
<path d="M131.641 19.054C131.912 19.054 132.306 19.054 132.469 19.0946C132.577 19.1217 132.645 19.203 132.659 19.2979C132.672 19.5012 132.618 19.7044 132.55 19.7722C132.496 19.84 132.374 19.8671 132.279 19.8671L130.84 19.8942V20.3549C130.84 21.0596 130.718 22.0218 130.5 22.5639H129.89C129.849 22.347 129.808 21.8185 129.795 21.3442C128.763 21.6153 126.849 21.8863 125.791 21.9676C125.56 21.9811 125.18 22.0625 124.976 22.1438C124.651 21.9811 124.271 21.7101 124.013 21.4662C123.972 21.4255 123.972 21.3984 123.986 21.3442L124.054 21.1951C124.393 21.2629 124.8 21.2765 125.139 21.2765C125.519 21.2765 125.981 21.2358 126.483 21.2087V20.5582C125.669 20.4362 125.085 20.0161 125.085 19.3656C125.085 18.6203 125.899 18.146 126.944 18.146C127.99 18.146 128.79 18.6067 128.79 19.3656C128.79 19.989 128.247 20.4091 127.46 20.5311V21.1138C128.342 21.0325 129.211 20.9241 129.754 20.8157V16.7366C129.632 16.5333 129.347 16.33 129.035 16.2216L129.143 15.8964C129.143 15.8964 129.184 15.8286 129.279 15.8286C129.713 15.8422 130.392 15.9777 130.718 16.1268C130.813 16.1674 130.853 16.2487 130.84 16.3707L130.799 16.9128V19.2843L131.301 19.2572L131.6 19.0675L131.641 19.054ZM128.492 17.1838C128.763 17.1838 129.17 17.2516 129.347 17.3058C129.415 17.3329 129.455 17.4006 129.455 17.4684C129.455 17.6717 129.32 17.8614 129.225 17.9156C129.062 17.902 128.614 17.8885 128.397 17.8885C128.057 17.8885 125.967 17.9291 125.655 17.9563C125.479 17.9563 125.139 18.024 124.963 18.0782C124.691 17.9563 124.406 17.7259 124.216 17.5361C124.176 17.4955 124.176 17.4548 124.189 17.4413L124.257 17.3058C124.529 17.36 124.922 17.3871 125.139 17.3871C125.519 17.3871 127.8 17.3464 128.193 17.3193L128.505 17.1973L128.492 17.1838ZM125.614 16.1268C126.415 16.2758 127.216 16.3165 127.8 16.3029C127.895 16.3029 127.949 16.3165 127.976 16.3978C128.044 16.5333 128.017 16.8314 127.935 16.9128C127.895 16.967 127.84 16.9805 127.772 16.9805C127.365 16.9805 126.714 16.9805 126.334 17.0212C126.239 17.0212 126.184 17.0212 126.13 16.9805C125.94 16.8586 125.696 16.574 125.56 16.3436C125.533 16.3029 125.533 16.2487 125.56 16.2216L125.642 16.1268H125.614ZM130.392 23.5938C130.691 23.5938 131.138 23.6209 131.356 23.6751C131.451 23.7022 131.518 23.77 131.518 23.8513C131.518 24.1223 131.451 24.2985 131.396 24.3527C131.356 24.3934 131.288 24.4069 131.22 24.4069L127.325 24.4476C126.632 24.4476 126.361 24.1765 126.361 23.6209V22.9704C126.212 22.8485 125.967 22.7129 125.737 22.6452L125.804 22.3742C125.804 22.3742 125.859 22.2928 125.94 22.2928C126.32 22.2928 126.999 22.3335 127.297 22.4013C127.406 22.4284 127.46 22.4961 127.46 22.6316V23.106L127.447 23.5938C127.447 23.7429 127.515 23.8242 127.664 23.8242C128.207 23.8242 129.496 23.8242 130.025 23.7971L130.392 23.5803V23.5938ZM126.972 20.0161C127.46 20.0161 127.8 19.7722 127.8 19.3521C127.8 18.932 127.447 18.6881 126.972 18.6881C126.497 18.6881 126.144 18.932 126.144 19.3521C126.144 19.7722 126.497 20.0161 126.972 20.0161Z" fill="#414042"/>
<path d="M138.155 15.8827C138.155 15.8827 138.196 15.8149 138.291 15.8149C138.725 15.8285 139.404 15.964 139.73 16.1131C139.825 16.1537 139.852 16.235 139.852 16.357L139.811 16.8991V19.4197C139.811 19.9211 139.662 20.8156 139.486 21.2492H138.875C138.834 21.0324 138.78 20.4903 138.766 20.0702C138.427 20.0702 138.006 20.0702 137.83 20.0973C137.667 20.1109 137.409 20.1786 137.26 20.2193C136.975 20.0838 136.744 19.894 136.54 19.7043C136.5 19.6637 136.5 19.623 136.513 19.5824L136.595 19.4468C136.825 19.4875 137.151 19.501 137.409 19.501C137.694 19.501 138.332 19.501 138.766 19.4604V18.3491C138.468 18.3491 138.142 18.3627 137.993 18.3898C137.83 18.4033 137.572 18.4576 137.423 18.5118C137.26 18.4304 137.11 18.3356 136.975 18.2407C136.228 19.5688 134.817 20.8427 133.12 21.6287C133.052 21.6693 133.011 21.6693 132.984 21.6287L132.835 21.4661C132.835 21.4661 132.794 21.3847 132.835 21.3441C134.396 20.287 135.55 18.8641 136.079 17.5496C135.617 17.5496 134.884 17.5496 134.694 17.5767C134.518 17.5767 134.165 17.6444 133.962 17.7122C133.69 17.5902 133.378 17.3734 133.174 17.1837C133.134 17.143 133.134 17.1024 133.147 17.0617L133.229 16.9397C133.5 16.9804 133.853 17.0075 134.111 17.0075C134.437 17.0075 135.902 16.994 136.31 16.9533L136.69 16.7771C136.69 16.7771 136.839 16.75 136.88 16.7771C137.042 16.8449 137.341 17.0211 137.45 17.0888C137.49 17.1295 137.504 17.1837 137.463 17.2379L137.3 17.5631C137.273 17.6444 137.232 17.7122 137.205 17.8071C137.328 17.8071 137.463 17.8071 137.572 17.8071C137.83 17.8071 138.359 17.8071 138.78 17.78V16.7229C138.658 16.5196 138.373 16.3164 138.06 16.2079L138.169 15.8827H138.155ZM139.743 22.8212C139.743 23.9189 138.82 24.5965 137.68 24.5965C136.54 24.5965 135.617 23.9189 135.617 22.8212C135.617 21.7235 136.54 21.1544 137.68 21.1544C138.82 21.1544 139.743 21.7913 139.743 22.8212ZM138.671 22.8212C138.671 22.1979 138.237 21.8591 137.68 21.8591C137.124 21.8591 136.69 22.2114 136.69 22.8212C136.69 23.4311 137.124 23.7699 137.68 23.7699C138.237 23.7699 138.671 23.4311 138.671 22.8212Z" fill="#414042"/>
<path d="M146.543 15.8827C146.543 15.8827 146.584 15.8149 146.679 15.8149C147.113 15.8285 147.792 15.964 148.118 16.1131C148.213 16.1537 148.24 16.235 148.24 16.357L148.199 16.8991V19.4197C148.199 19.9211 148.05 20.8156 147.873 21.2492H147.262C147.222 21.0324 147.167 20.4903 147.154 20.0702C146.815 20.0702 146.394 20.0702 146.217 20.0973C146.055 20.1109 145.797 20.1786 145.647 20.2193C145.362 20.0838 145.132 19.894 144.928 19.7043C144.887 19.6637 144.887 19.623 144.901 19.5824L144.982 19.4468C145.213 19.4875 145.539 19.501 145.797 19.501C146.082 19.501 146.72 19.501 147.154 19.4604V18.3491C146.855 18.3491 146.53 18.3627 146.38 18.3898C146.217 18.4033 145.96 18.4576 145.81 18.5118C145.647 18.4304 145.498 18.3356 145.362 18.2407C144.616 19.5688 143.204 20.8427 141.508 21.6287C141.44 21.6693 141.399 21.6693 141.372 21.6287L141.223 21.4661C141.223 21.4661 141.182 21.3847 141.223 21.3441C142.784 20.287 143.937 18.8641 144.467 17.5496C144.005 17.5496 143.272 17.5496 143.082 17.5767C142.906 17.5767 142.553 17.6444 142.349 17.7122C142.078 17.5902 141.766 17.3734 141.562 17.1837C141.521 17.143 141.521 17.1024 141.535 17.0617L141.616 16.9397C141.888 16.9804 142.241 17.0075 142.499 17.0075C142.824 17.0075 144.29 16.994 144.697 16.9533L145.077 16.7771C145.077 16.7771 145.227 16.75 145.267 16.7771C145.43 16.8449 145.729 17.0211 145.837 17.0888C145.878 17.1295 145.892 17.1837 145.851 17.2379L145.688 17.5631C145.661 17.6444 145.62 17.7122 145.593 17.8071C145.715 17.8071 145.851 17.8071 145.96 17.8071C146.217 17.8071 146.747 17.8071 147.167 17.78V16.7229C147.045 16.5196 146.76 16.3164 146.448 16.2079L146.557 15.8827H146.543ZM148.131 22.8212C148.131 23.9189 147.208 24.5965 146.068 24.5965C144.928 24.5965 144.005 23.9189 144.005 22.8212C144.005 21.7235 144.928 21.1544 146.068 21.1544C147.208 21.1544 148.131 21.7913 148.131 22.8212ZM147.059 22.8212C147.059 22.1979 146.625 21.8591 146.068 21.8591C145.512 21.8591 145.077 22.2114 145.077 22.8212C145.077 23.4311 145.512 23.7699 146.068 23.7699C146.625 23.7699 147.059 23.4311 147.059 22.8212Z" fill="#414042"/>
<path d="M154.917 15.8827C154.917 15.8827 154.972 15.8149 155.067 15.8149C155.487 15.8285 156.18 15.964 156.492 16.1131C156.587 16.1537 156.628 16.235 156.614 16.357L156.587 16.8991V19.4062C156.587 19.9076 156.438 20.802 156.248 21.2492H155.637C155.583 20.9782 155.542 20.2599 155.528 19.8534C155.243 19.8534 154.931 19.8669 154.782 19.894C154.632 19.9076 154.375 19.9618 154.225 20.0025C154.035 19.9076 153.859 19.7856 153.709 19.6501C153.384 20.2464 152.705 20.6394 151.864 20.6394C150.642 20.6394 149.773 19.8534 149.773 18.7421C149.773 17.6309 150.642 16.8855 151.864 16.8855C153.085 16.8855 153.94 17.658 153.94 18.7421C153.94 18.9319 153.913 19.108 153.872 19.2842C154.035 19.2842 154.212 19.2978 154.361 19.2978C154.619 19.2978 155.135 19.2978 155.528 19.2571V18.051C155.379 18.051 155.23 18.051 155.148 18.0645C154.999 18.0781 154.741 18.1323 154.578 18.1865C154.307 18.051 154.09 17.8613 153.913 17.6715C153.872 17.6309 153.872 17.6038 153.886 17.5496L153.967 17.4276C154.185 17.4683 154.483 17.4818 154.727 17.4818C154.904 17.4818 155.216 17.4818 155.528 17.4683V16.75C155.406 16.5467 155.121 16.3435 154.809 16.235L154.904 15.9098L154.917 15.8827ZM152.909 18.7286C152.909 18.051 152.474 17.6309 151.877 17.6309C151.28 17.6309 150.832 18.051 150.832 18.7286C150.832 19.4062 151.266 19.8398 151.877 19.8398C152.488 19.8398 152.909 19.4197 152.909 18.7286ZM156.492 22.8077C156.492 23.8918 155.555 24.5965 154.415 24.5965C153.275 24.5965 152.339 23.9054 152.339 22.8077C152.339 21.71 153.275 21.1408 154.415 21.1408C155.555 21.1408 156.492 21.7778 156.492 22.8077ZM155.42 22.8077C155.42 22.1979 154.985 21.8455 154.415 21.8455C153.845 21.8455 153.397 22.1979 153.397 22.8077C153.397 23.4175 153.832 23.7699 154.415 23.7699C154.999 23.7699 155.42 23.4175 155.42 22.8077Z" fill="#414042"/>
<path d="M157.727 16.3299L157.931 16.1401C159.451 17.4682 160.238 18.9183 160.238 20.8155C160.238 22.7128 159.451 24.1899 157.931 25.5045L157.727 25.3283C158.949 23.7427 159.288 22.5231 159.288 20.8155C159.288 19.108 158.894 17.8883 157.727 16.3163V16.3299Z" fill="#414042"/>
<path d="M123.958 36.2917L123.741 36.4678C122.235 35.1398 121.448 33.6897 121.448 31.7789C121.448 29.8681 122.235 28.418 123.741 27.1035L123.958 27.2932C122.737 28.8788 122.398 30.0985 122.398 31.7925C122.398 33.4864 122.778 34.7332 123.958 36.3052V36.2917Z" fill="#414042"/>
<path d="M126.496 31.8196C125.248 31.8196 124.365 31.02 124.365 29.8817C124.365 28.7433 125.248 27.9709 126.496 27.9709C127.745 27.9709 128.614 28.7433 128.614 29.8817C128.614 31.02 127.731 31.8196 126.496 31.8196ZM126.496 31.0336C127.121 31.0336 127.582 30.5999 127.582 29.8817C127.582 29.1634 127.134 28.7162 126.496 28.7162C125.858 28.7162 125.411 29.1634 125.411 29.8817C125.411 30.5999 125.858 31.0336 126.496 31.0336ZM130.365 34.4893C130.677 34.4893 131.125 34.5164 131.328 34.5571C131.437 34.5842 131.505 34.6519 131.505 34.7468C131.505 35.0043 131.41 35.1805 131.355 35.2482C131.315 35.2889 131.26 35.3024 131.192 35.3024L127.365 35.3295C126.673 35.3295 126.415 35.0585 126.415 34.5029V33.3645C126.266 33.2426 126.021 33.107 125.777 33.0257L125.845 32.7547C125.845 32.7547 125.899 32.6734 125.981 32.6734C126.361 32.6734 127.053 32.7276 127.338 32.7953C127.446 32.8224 127.501 32.8902 127.501 33.0122V33.5V34.4622C127.501 34.6113 127.569 34.6926 127.718 34.6926C128.247 34.6926 129.496 34.6926 130.012 34.6655L130.378 34.4758L130.365 34.4893ZM131.64 29.7733C131.912 29.7733 132.305 29.7733 132.468 29.8139C132.577 29.841 132.645 29.9223 132.658 30.0172C132.672 30.234 132.618 30.4238 132.55 30.4915C132.495 30.5593 132.373 30.5864 132.278 30.5864L130.84 30.627V31.1014C130.84 31.8061 130.717 32.7682 130.5 33.3103H129.89C129.822 32.958 129.781 31.8738 129.781 31.4131V27.6863C129.659 27.483 129.374 27.2797 129.062 27.1713L129.17 26.8461C129.17 26.8461 129.211 26.7783 129.306 26.7783C129.74 26.7919 130.419 26.9274 130.745 27.0765C130.84 27.1171 130.88 27.1984 130.867 27.3204L130.826 27.8625V29.9766L131.328 29.9495L131.627 29.7597L131.64 29.7733Z" fill="#414042"/>
<path d="M135.631 30.6949C134.912 31.4403 134.016 32.1043 133.025 32.5922C132.957 32.6328 132.903 32.6328 132.876 32.6057L132.726 32.4567C132.726 32.4567 132.686 32.3889 132.726 32.3347C134.165 31.2912 135.278 29.8954 135.834 28.6486C135.373 28.6486 134.708 28.6486 134.532 28.6621C134.355 28.6621 134.002 28.7299 133.812 28.8112C133.527 28.6757 133.229 28.4453 133.011 28.242C132.971 28.2014 132.971 28.1607 132.984 28.1201L133.052 27.9981C133.337 28.0388 133.69 28.0659 133.948 28.0659C134.274 28.0659 135.672 28.0523 136.119 28.0252L136.5 27.8626C136.5 27.8626 136.649 27.8355 136.717 27.8626C136.88 27.9303 137.205 28.0659 137.327 28.1336C137.368 28.1743 137.382 28.2285 137.341 28.2827L137.124 28.6215C136.88 29.15 136.513 29.6921 136.092 30.2071L136.947 30.9931L137.355 31.115C137.517 31.3048 137.707 31.63 137.775 31.8062C137.843 31.9552 137.843 32.0501 137.816 32.1314C137.748 32.2805 137.504 32.3889 137.341 32.3347C137.26 32.3076 137.165 32.2263 137.097 32.1585L135.644 30.7085L135.631 30.6949ZM139.255 34.503C139.567 34.503 140.028 34.5301 140.232 34.5707C140.327 34.5979 140.395 34.6656 140.395 34.7605C140.395 35.018 140.313 35.1941 140.246 35.2619C140.205 35.3025 140.137 35.3161 140.069 35.3161L136.16 35.3432C135.468 35.3432 135.21 35.0722 135.21 34.5165V33.324C135.061 33.202 134.817 33.0665 134.572 32.9852L134.64 32.7141C134.64 32.7141 134.694 32.6328 134.776 32.6328C135.156 32.6328 135.848 32.687 136.133 32.7548C136.242 32.7819 136.296 32.8497 136.296 32.9716V33.4595V34.4894C136.296 34.6521 136.364 34.7334 136.513 34.7334C137.056 34.7334 138.359 34.7334 138.888 34.7063L139.255 34.503ZM137.015 29.6921C137.232 29.7327 137.517 29.7327 137.762 29.7327C137.979 29.7327 138.413 29.7327 138.766 29.7192V27.7C138.644 27.4967 138.359 27.2934 138.047 27.185L138.142 26.8598C138.142 26.8598 138.196 26.792 138.291 26.792C138.712 26.8055 139.404 26.9411 139.716 27.0901C139.811 27.1308 139.852 27.2121 139.838 27.3341L139.811 27.8761V31.1421C139.811 31.8604 139.676 32.809 139.458 33.3511H138.848C138.78 32.9987 138.739 31.901 138.739 31.4538V30.3155C138.508 30.3155 138.278 30.329 138.155 30.3561C138.006 30.3561 137.748 30.4374 137.599 30.5052C137.341 30.3561 137.11 30.1528 136.934 29.9631C136.893 29.9225 136.893 29.8818 136.92 29.8412L137.002 29.7192L137.015 29.6921Z" fill="#414042"/>
<path d="M147.982 33.3512C148.362 33.3647 148.918 33.4461 149.149 33.5274C149.244 33.5545 149.298 33.6222 149.298 33.7306C149.298 33.961 149.149 34.1643 149.027 34.2185C148.783 34.1914 148.158 34.1779 147.86 34.1779C147.222 34.1779 143.435 34.2185 142.892 34.2456C142.648 34.2592 142.091 34.3676 141.847 34.4353C141.481 34.2998 141.074 34.0288 140.829 33.7849C140.788 33.7442 140.788 33.69 140.802 33.6629L140.884 33.5138C141.236 33.568 141.711 33.6087 142.051 33.6087C142.336 33.6087 143.394 33.6087 144.535 33.5951V31.9011C144.168 31.9011 143.829 31.9011 143.571 31.9147C143.517 32.0638 143.435 32.1857 143.354 32.2399H142.757C142.675 32.0502 142.634 31.7656 142.634 31.5759L142.594 28.5674C142.499 28.4454 142.241 28.2693 142.024 28.1879L142.105 27.8898C142.105 27.8898 142.146 27.8356 142.241 27.8356C142.567 27.8356 143.299 27.9034 143.544 27.9711C143.639 27.9982 143.679 28.0524 143.679 28.1744V28.6623L143.666 29.2992L146.557 29.2721V28.1744C146.435 28.0253 146.204 27.8762 145.96 27.7814L146.082 27.4832C146.082 27.4832 146.123 27.4155 146.204 27.429C146.557 27.4426 147.249 27.5781 147.507 27.7001C147.588 27.7407 147.629 27.7949 147.629 27.8898V28.3235L147.588 30.3427C147.588 30.6408 147.52 31.0338 147.466 31.2371L147.711 31.332C147.711 31.332 147.778 31.3862 147.778 31.4404C147.778 31.6166 147.724 31.8063 147.67 31.8605C147.208 31.8605 146.394 31.8605 145.58 31.8605V33.5545C146.516 33.5545 147.33 33.5138 147.588 33.5003L147.982 33.3241V33.3512ZM143.666 29.9768V31.2642L146.557 31.2371V29.9361L143.666 29.9768Z" fill="#414042"/>
<path d="M155.528 30.4103C155.189 30.4103 154.782 30.4103 154.592 30.4374C154.429 30.451 154.171 30.5187 154.022 30.573C153.723 30.4239 153.479 30.2477 153.275 30.058C152.474 31.1421 151.266 32.1179 149.855 32.7684C149.787 32.7955 149.733 32.809 149.719 32.7684L149.57 32.6057C149.57 32.6057 149.529 32.538 149.57 32.4838C151.131 31.3996 152.298 29.936 152.814 28.6215C152.352 28.6215 151.619 28.635 151.429 28.6621C151.239 28.6621 150.886 28.7299 150.696 28.7841C150.411 28.6621 150.113 28.4453 149.909 28.2556C149.868 28.2149 149.868 28.1743 149.882 28.1336L149.95 28.0117C150.221 28.0523 150.574 28.0794 150.832 28.0794C151.171 28.0794 152.637 28.0659 153.044 28.0252L153.424 27.849C153.424 27.849 153.574 27.8219 153.628 27.849C153.791 27.9303 154.076 28.093 154.185 28.1607C154.225 28.2014 154.239 28.2556 154.212 28.3098L154.035 28.635C153.9 29.028 153.682 29.4346 153.424 29.8141C153.642 29.8412 153.913 29.8547 154.13 29.8547C154.429 29.8547 155.067 29.8547 155.501 29.8141V27.7C155.379 27.4967 155.094 27.2934 154.782 27.185L154.89 26.8598C154.89 26.8598 154.931 26.792 155.026 26.792C155.447 26.8055 156.139 26.9411 156.451 27.0901C156.546 27.1308 156.587 27.2121 156.573 27.3341L156.546 27.8761V31.1286C156.546 31.8333 156.424 32.7955 156.193 33.3375H155.596C155.528 32.9852 155.474 31.901 155.474 31.4403V30.4103H155.528ZM156.044 34.4623C156.356 34.4623 156.818 34.4894 157.021 34.5436C157.116 34.5572 157.184 34.6385 157.184 34.7198C157.184 34.9773 157.103 35.1535 157.035 35.2212C156.994 35.2619 156.94 35.2754 156.858 35.2754L152.99 35.3161C152.298 35.3161 152.026 35.0451 152.026 34.4894V33.3511C151.877 33.2291 151.633 33.0936 151.389 33.0123L151.456 32.7413C151.456 32.7413 151.511 32.6735 151.592 32.6735C151.972 32.6735 152.664 32.7141 152.949 32.7819C153.058 32.809 153.112 32.8768 153.112 32.9987V33.4866L153.099 34.4759C153.099 34.625 153.167 34.7063 153.329 34.7063C153.872 34.7063 155.135 34.7063 155.664 34.6792L156.03 34.4759L156.044 34.4623Z" fill="#414042"/>
<path d="M163.319 26.8598C163.319 26.8598 163.36 26.792 163.455 26.792C163.889 26.8055 164.568 26.9411 164.893 27.0901C164.988 27.1308 165.016 27.2121 165.016 27.3341L164.975 27.8761V30.3968C164.975 30.8982 164.826 31.7791 164.649 32.2263H164.038C163.998 32.0095 163.943 31.4674 163.93 31.0473C163.59 31.0473 163.17 31.0473 162.993 31.0744C162.83 31.0879 162.573 31.1557 162.423 31.1963C162.138 31.0608 161.907 30.8711 161.704 30.6814C161.663 30.6407 161.663 30.6001 161.677 30.5594L161.758 30.4239C161.989 30.4645 162.315 30.4781 162.573 30.4781C162.858 30.4781 163.495 30.4781 163.93 30.4374V29.3262C163.631 29.3262 163.305 29.3397 163.156 29.3668C162.993 29.3804 162.735 29.4346 162.586 29.4888C162.423 29.4075 162.274 29.3126 162.138 29.2178C161.392 30.5459 159.98 31.8197 158.284 32.6057C158.216 32.6464 158.175 32.6464 158.148 32.6057L157.999 32.4431C157.999 32.4431 157.958 32.3618 157.999 32.3211C159.559 31.2641 160.713 29.8412 161.242 28.5266C160.781 28.5266 160.048 28.5266 159.858 28.5537C159.682 28.5537 159.329 28.6215 159.125 28.6892C158.854 28.5673 158.541 28.3505 158.338 28.1607C158.297 28.1201 158.297 28.0794 158.311 28.0388L158.392 27.9168C158.664 27.9575 159.03 27.9846 159.274 27.9846C159.6 27.9846 161.066 27.971 161.473 27.9303L161.853 27.7542C161.853 27.7542 162.002 27.7271 162.043 27.7542C162.206 27.8219 162.505 27.9981 162.613 28.0659C162.654 28.1065 162.668 28.1607 162.627 28.2149L162.464 28.5402C162.437 28.6215 162.396 28.6892 162.369 28.7841C162.491 28.7841 162.627 28.7841 162.735 28.7841C162.993 28.7841 163.523 28.7841 163.943 28.757V27.7C163.821 27.4967 163.536 27.2934 163.224 27.185L163.333 26.8598H163.319ZM164.893 33.7983C164.893 34.896 163.97 35.5736 162.83 35.5736C161.69 35.5736 160.767 34.896 160.767 33.7983C160.767 32.7006 161.69 32.1314 162.83 32.1314C163.97 32.1314 164.893 32.7684 164.893 33.7983ZM163.821 33.7983C163.821 33.1749 163.387 32.8361 162.83 32.8361C162.274 32.8361 161.84 33.1885 161.84 33.7983C161.84 34.4081 162.274 34.7469 162.83 34.7469C163.387 34.7469 163.821 34.4081 163.821 33.7983Z" fill="#414042"/>
<path d="M171.693 26.8598C171.693 26.8598 171.747 26.792 171.842 26.792C172.263 26.8055 172.955 26.9411 173.268 27.0901C173.363 27.1308 173.403 27.2121 173.39 27.3341L173.363 27.8761V30.3832C173.363 30.8846 173.213 31.7791 173.023 32.2263H172.412C172.358 31.9552 172.317 31.237 172.304 30.8304C172.019 30.8304 171.707 30.844 171.557 30.8711C171.408 30.8846 171.15 30.9389 171.001 30.9795C170.811 30.8846 170.634 30.7627 170.485 30.6272C170.159 31.2234 169.481 31.6164 168.639 31.6164C167.418 31.6164 166.549 30.8304 166.549 29.7192C166.549 28.6079 167.418 27.8626 168.639 27.8626C169.861 27.8626 170.716 28.635 170.716 29.7192C170.716 29.9089 170.689 30.0851 170.648 30.2613C170.811 30.2613 170.987 30.2748 171.137 30.2748C171.394 30.2748 171.91 30.2748 172.304 30.2342V29.028C172.155 29.028 172.005 29.028 171.924 29.0416C171.775 29.0551 171.517 29.1094 171.354 29.1636C171.082 29.028 170.865 28.8383 170.689 28.6486C170.648 28.6079 170.648 28.5808 170.662 28.5266L170.743 28.4047C170.96 28.4453 171.259 28.4589 171.503 28.4589C171.68 28.4589 171.992 28.4589 172.304 28.4453V27.7271C172.182 27.5238 171.897 27.3205 171.584 27.2121L171.68 26.8869L171.693 26.8598ZM169.684 29.6921C169.684 29.0145 169.25 28.5944 168.653 28.5944C168.056 28.5944 167.608 29.0145 167.608 29.6921C167.608 30.3697 168.042 30.8033 168.653 30.8033C169.264 30.8033 169.684 30.3832 169.684 29.6921ZM173.268 33.7847C173.268 34.8689 172.331 35.5736 171.191 35.5736C170.051 35.5736 169.114 34.8824 169.114 33.7847C169.114 32.687 170.051 32.1179 171.191 32.1179C172.331 32.1179 173.268 32.7548 173.268 33.7847ZM172.195 33.7847C172.195 33.1749 171.761 32.8226 171.191 32.8226C170.621 32.8226 170.173 33.1749 170.173 33.7847C170.173 34.3946 170.607 34.7469 171.191 34.7469C171.775 34.7469 172.195 34.3946 172.195 33.7847Z" fill="#414042"/>
<path d="M174.489 27.2932L174.693 27.1035C176.213 28.4316 177 29.8816 177 31.7789C177 33.6762 176.213 35.1533 174.693 36.4678L174.489 36.2917C175.711 34.7061 176.05 33.4864 176.05 31.7789C176.05 30.0714 175.656 28.8382 174.489 27.2797V27.2932Z" fill="#414042"/>
<path d="M10.4644 10.4895L8.86279 8.45671L9.1071 8.26699L9.90788 9.28338L10.0436 7.57584L10.3829 7.31836L10.2472 8.7413L12.0252 9.33758L11.6995 9.58152L10.2201 9.06655L10.1658 9.62217L10.7222 10.3133L10.4779 10.503L10.4644 10.4895Z" fill="#004990"/>
<path d="M11.8215 8.33472C11.6315 8.03657 11.5637 7.77909 11.618 7.54871C11.6722 7.35898 11.7808 7.20991 11.9573 7.1015C12.1609 6.97953 12.3644 6.95243 12.5816 7.02019C12.7988 7.08795 12.9888 7.23702 13.1517 7.4945C13.2738 7.69778 13.3552 7.87395 13.3688 8.02302C13.396 8.17209 13.3688 8.32116 13.3009 8.44313C13.2331 8.57865 13.1381 8.67351 13.0159 8.75482C12.8123 8.87679 12.6087 8.90389 12.3916 8.83613C12.1744 8.76837 11.9844 8.60575 11.8215 8.34827V8.33472ZM12.0794 8.18565C12.2151 8.38892 12.3509 8.51089 12.4866 8.5651C12.6359 8.6193 12.7716 8.60575 12.8802 8.52444C13.0024 8.45668 13.0566 8.34827 13.0838 8.1992C13.0974 8.05013 13.0431 7.8604 12.9073 7.65712C12.7852 7.4674 12.6495 7.33188 12.5002 7.29122C12.3509 7.23702 12.2287 7.25057 12.1066 7.31833C11.9844 7.39964 11.9165 7.50805 11.903 7.65712C11.8894 7.80619 11.9437 7.98237 12.0658 8.18565H12.0794Z" fill="#004990"/>
<path d="M14.2239 7.99596L13.3281 6.35618L13.5589 6.23422L13.6946 6.47815C13.6946 6.34263 13.6946 6.23422 13.7353 6.16646C13.7624 6.0987 13.8032 6.05804 13.871 6.01739C13.9525 5.97673 14.061 5.94963 14.1832 5.97673L14.2375 6.27487C14.1561 6.27487 14.0746 6.27487 14.0203 6.31553C13.966 6.34263 13.9253 6.39684 13.9117 6.45105C13.8846 6.5188 13.8846 6.57301 13.8982 6.65432C13.9117 6.76274 13.966 6.8847 14.0339 6.99312L14.5089 7.84688L14.2511 7.9824L14.2239 7.99596Z" fill="#004990"/>
<path d="M16.2734 6.32862L16.5584 6.24731C16.5991 6.43703 16.5855 6.61321 16.5041 6.76228C16.4362 6.91135 16.3141 7.03331 16.1241 7.11463C15.8933 7.22304 15.6762 7.22304 15.4726 7.12818C15.269 7.03331 15.1061 6.84359 14.9704 6.57255C14.8347 6.28796 14.794 6.03048 14.8618 5.8272C14.9297 5.61037 15.0654 5.4613 15.269 5.35289C15.4726 5.25802 15.6898 5.25802 15.8798 5.35289C16.0834 5.44775 16.2462 5.63747 16.382 5.92206C16.382 5.92206 16.3955 5.96272 16.4091 6.00337L15.2554 6.5319C15.3504 6.70807 15.4726 6.83004 15.5947 6.88424C15.7305 6.93845 15.8662 6.93845 15.9884 6.88424C16.0834 6.84359 16.1648 6.77583 16.2055 6.69452C16.2462 6.61321 16.2598 6.49124 16.2462 6.35572L16.2734 6.32862ZM15.1876 6.26086L16.0698 5.86786C15.9884 5.73234 15.9069 5.63747 15.8255 5.59682C15.6898 5.52906 15.554 5.51551 15.4183 5.59682C15.2961 5.65103 15.2147 5.74589 15.1604 5.86786C15.1197 5.98982 15.1333 6.13889 15.1876 6.28796V6.26086Z" fill="#004990"/>
<path d="M18.3636 5.90877C18.2957 6.04429 18.2279 6.13915 18.1464 6.20691C18.065 6.27467 17.9836 6.34243 17.875 6.38308C17.6985 6.45084 17.5492 6.45084 17.4135 6.38308C17.2778 6.32888 17.1963 6.22046 17.1421 6.07139C17.1149 5.99008 17.0878 5.90877 17.1013 5.81391C17.1013 5.73259 17.1285 5.65128 17.1692 5.59708C17.2099 5.52932 17.2642 5.47511 17.3321 5.43445C17.3728 5.3938 17.4542 5.35314 17.5628 5.29894C17.7664 5.19052 17.9293 5.09566 18.0107 5.0279C17.9836 4.98724 17.9836 4.96014 17.9836 4.94659C17.9293 4.82462 17.875 4.74331 17.8071 4.71621C17.7121 4.67555 17.6035 4.67555 17.4542 4.72976C17.3185 4.77041 17.2371 4.82462 17.1963 4.90593C17.1556 4.97369 17.1421 5.08211 17.1692 5.21762L16.8706 5.28538C16.8706 5.14987 16.8706 5.0279 16.8842 4.93304C16.8977 4.83817 16.9656 4.75686 17.0606 4.67555C17.1421 4.59424 17.2642 4.52648 17.3999 4.47227C17.5357 4.43162 17.6442 4.39096 17.7528 4.40451C17.8614 4.40451 17.9293 4.43162 17.9971 4.47227C18.0514 4.51293 18.1193 4.56714 18.16 4.6349C18.1871 4.6891 18.2279 4.77041 18.2822 4.90593L18.4315 5.29894C18.54 5.56997 18.6079 5.74615 18.6486 5.81391C18.6893 5.88166 18.73 5.94942 18.7979 6.00363L18.5129 6.11205C18.5129 6.11205 18.4179 5.99008 18.3772 5.90877H18.3636ZM18.0921 5.25828C18.0107 5.33959 17.875 5.43445 17.685 5.54287C17.5764 5.59708 17.5085 5.65128 17.4678 5.69194C17.4271 5.73259 17.3999 5.77325 17.3999 5.82746C17.3999 5.88166 17.3999 5.92232 17.3999 5.97653C17.4271 6.05784 17.4814 6.11205 17.5628 6.13915C17.6307 6.16625 17.7257 6.16625 17.8343 6.13915C17.9428 6.09849 18.0243 6.04429 18.0921 5.96298C18.1464 5.88166 18.1871 5.80035 18.1871 5.69194C18.1871 5.61063 18.16 5.50221 18.1193 5.38025L18.0786 5.27183L18.0921 5.25828Z" fill="#004990"/>
<path d="M20.1687 5.55621L20.3723 2.84584L20.698 2.75098L22.2996 5.00058L21.9603 5.08189L21.4852 4.39075L20.5352 4.63468L20.4944 5.44779L20.1823 5.5291L20.1687 5.55621ZM20.5487 4.36365L21.3359 4.16037L20.9152 3.53698C20.7795 3.34726 20.6845 3.19819 20.603 3.06267C20.6166 3.22529 20.603 3.40147 20.603 3.57764L20.5623 4.36365H20.5487Z" fill="#004990"/>
<path d="M23.7655 4.02505H24.0506C24.0641 4.22833 24.0099 4.4045 23.9148 4.55357C23.8198 4.70264 23.6705 4.78396 23.4805 4.82461C23.2634 4.86527 23.0598 4.82461 22.8969 4.68909C22.7205 4.55357 22.6119 4.33675 22.544 4.0386C22.5033 3.83533 22.4897 3.65915 22.5304 3.49653C22.5576 3.33391 22.6255 3.19839 22.734 3.11708C22.8426 3.02222 22.9783 2.95446 23.1141 2.92735C23.2905 2.8867 23.4534 2.92735 23.5891 2.99511C23.7248 3.07642 23.8334 3.19839 23.9013 3.38812L23.6298 3.48298C23.5755 3.36101 23.5077 3.2797 23.4398 3.22549C23.3584 3.17129 23.2634 3.15773 23.1819 3.18484C23.0462 3.21194 22.9376 3.29325 22.8698 3.41522C22.8019 3.53719 22.7883 3.72691 22.8426 3.97085C22.8833 4.21478 22.9648 4.3774 23.0733 4.47226C23.1819 4.56713 23.3177 4.60778 23.4398 4.58068C23.5484 4.56713 23.6298 4.49937 23.6977 4.41806C23.752 4.32319 23.7791 4.20123 23.7655 4.0386V4.02505Z" fill="#004990"/>
<path d="M25.7199 3.72669H26.0049C26.0049 3.94352 25.9506 4.11969 25.842 4.25521C25.7334 4.39073 25.5841 4.47204 25.4077 4.49914C25.1769 4.52625 24.9869 4.47204 24.8241 4.32297C24.6612 4.18745 24.5526 3.94352 24.5119 3.64538C24.4712 3.4421 24.4847 3.26593 24.5255 3.1033C24.5662 2.95423 24.634 2.81872 24.7562 2.72385C24.8648 2.62899 25.0005 2.57478 25.1362 2.56123C25.3262 2.53413 25.4755 2.56123 25.6113 2.65609C25.747 2.75096 25.842 2.88648 25.8963 3.06265L25.6248 3.14396C25.5841 3.02199 25.5163 2.94068 25.4484 2.88648C25.367 2.83227 25.2991 2.81872 25.1905 2.81872C25.0412 2.84582 24.9326 2.91358 24.8648 3.03555C24.7969 3.15751 24.7698 3.34724 24.8105 3.59117C24.8376 3.8351 24.9191 4.01128 25.0141 4.11969C25.1227 4.21456 25.2448 4.25521 25.3805 4.24166C25.4891 4.22811 25.5841 4.1739 25.652 4.09259C25.7198 4.01128 25.747 3.87576 25.7334 3.72669H25.7199Z" fill="#004990"/>
<path d="M26.6428 4.32305L26.4663 2.46645H26.7242L26.7513 2.72393C26.8056 2.58841 26.8599 2.5071 26.9142 2.45289C26.9685 2.39869 27.0228 2.38513 27.0906 2.37158C27.1857 2.37158 27.2942 2.38513 27.3892 2.43934L27.3214 2.73748C27.2535 2.71038 27.1721 2.68327 27.1042 2.69683C27.0364 2.69683 26.9821 2.72393 26.9413 2.77814C26.8871 2.83234 26.8735 2.88655 26.8463 2.95431C26.8192 3.06273 26.8192 3.19824 26.8463 3.32021L26.9278 4.29594L26.6428 4.32305Z" fill="#004990"/>
<path d="M29.1945 3.53718L29.4795 3.56428C29.4524 3.76756 29.3709 3.91663 29.2488 4.02504C29.1266 4.13346 28.9637 4.20122 28.7602 4.20122C28.5159 4.21477 28.3123 4.14701 28.163 3.98439C28.0001 3.82177 27.9187 3.59138 27.9051 3.29324C27.8915 2.98155 27.9458 2.73762 28.0951 2.56144C28.2308 2.38527 28.4208 2.29041 28.6516 2.27686C28.8823 2.27686 29.0723 2.34461 29.2216 2.50724C29.3709 2.66986 29.4524 2.90024 29.4795 3.21193V3.29324L28.2037 3.361C28.2308 3.56428 28.2851 3.71335 28.3937 3.82177C28.5023 3.93018 28.6244 3.97084 28.7602 3.97084C28.8687 3.97084 28.9637 3.93018 29.0316 3.86242C29.0995 3.79466 29.1538 3.6998 29.1945 3.56428V3.53718ZM28.1901 3.07641L29.1673 3.03576C29.1402 2.87314 29.0995 2.76472 29.0316 2.68341C28.923 2.56144 28.8145 2.50724 28.6652 2.52079C28.5294 2.52079 28.4073 2.58855 28.3258 2.68341C28.2308 2.77827 28.1901 2.91379 28.1901 3.07641Z" fill="#004990"/>
<path d="M31.2846 4.11989V3.87596C31.176 4.06568 31.0132 4.147 30.8096 4.147C30.6739 4.147 30.5381 4.10634 30.4295 4.02503C30.321 3.94372 30.226 3.82175 30.1717 3.68623C30.1038 3.53716 30.0767 3.37454 30.0767 3.18481C30.0767 2.99509 30.1038 2.83247 30.1717 2.6834C30.226 2.53433 30.321 2.41236 30.4295 2.3446C30.5517 2.26329 30.6739 2.22263 30.8232 2.22263C30.9317 2.22263 31.0132 2.24974 31.0946 2.29039C31.176 2.33105 31.2303 2.39881 31.2846 2.48012V1.55859H31.5832V4.13344H31.2982L31.2846 4.11989ZM30.3753 3.18481C30.3753 3.42875 30.4295 3.60492 30.511 3.72689C30.606 3.84886 30.7146 3.90306 30.8367 3.90306C30.9589 3.90306 31.0675 3.84886 31.1625 3.74044C31.2575 3.61847 31.2982 3.45585 31.2982 3.22547C31.2982 2.98154 31.2575 2.77826 31.1625 2.66985C31.081 2.54788 30.9589 2.49367 30.8367 2.49367C30.7146 2.49367 30.606 2.54788 30.511 2.65629C30.4295 2.76471 30.3753 2.95443 30.3753 3.19837V3.18481Z" fill="#004990"/>
<path d="M32.3433 4.16079L32.4383 2.29063H32.7233L32.6283 4.16079H32.3433ZM32.4518 1.95184V1.58594L32.764 1.59949V1.95184L32.4518 1.93829V1.95184Z" fill="#004990"/>
<path d="M34.0399 3.98447V4.26906C34.0399 4.26906 33.9041 4.28261 33.8363 4.26906C33.7413 4.26906 33.6463 4.24195 33.592 4.2013C33.5377 4.16064 33.5105 4.10644 33.4834 4.05223C33.4698 3.99802 33.4698 3.87605 33.4834 3.67278L33.5648 2.60218H33.3477L33.3748 2.3447H33.592L33.6327 1.89749L33.9313 1.73486L33.877 2.38535L34.162 2.41246V2.65639L33.8498 2.62929L33.7548 3.69988C33.7548 3.79474 33.7548 3.84895 33.7548 3.87605C33.7548 3.90316 33.782 3.93026 33.8091 3.94381C33.8227 3.95737 33.8634 3.97092 33.9041 3.97092C33.9313 3.97092 33.9856 3.97092 34.0399 3.97092V3.98447Z" fill="#004990"/>
<path d="M35.75 4.22809C35.6279 4.3094 35.5193 4.37716 35.4107 4.40427C35.3021 4.41782 35.1936 4.43137 35.085 4.40427C34.895 4.39071 34.7592 4.32296 34.6778 4.20099C34.5964 4.09257 34.5556 3.95706 34.5692 3.80799C34.5828 3.71312 34.6099 3.63181 34.6507 3.56405C34.705 3.49629 34.7592 3.44209 34.8271 3.40143C34.895 3.36077 34.9628 3.34722 35.0443 3.32012C35.0986 3.32012 35.1936 3.32012 35.3157 3.30657C35.56 3.30657 35.7229 3.29302 35.845 3.26591C35.845 3.22526 35.845 3.19815 35.845 3.19815C35.8722 3.06263 35.845 2.96777 35.8043 2.91356C35.7365 2.83225 35.6279 2.7916 35.4922 2.76449C35.3564 2.75094 35.2479 2.76449 35.18 2.80515C35.1121 2.8458 35.0578 2.94067 35.0035 3.06263L34.7185 2.98132C34.7592 2.8458 34.8135 2.75094 34.8814 2.66963C34.9493 2.60187 35.0443 2.54766 35.1528 2.52056C35.275 2.4799 35.3972 2.4799 35.5464 2.49346C35.6957 2.52056 35.8043 2.54766 35.8993 2.58832C35.9808 2.64253 36.0486 2.68318 36.0894 2.75094C36.1165 2.8187 36.1436 2.88646 36.1572 2.98132C36.1572 3.03553 36.1572 3.13039 36.1301 3.26591L36.0758 3.67247C36.0486 3.97061 36.0215 4.16033 36.0215 4.22809C36.0215 4.3094 36.0351 4.37716 36.0622 4.45847L35.7636 4.41782C35.7636 4.41782 35.7229 4.26875 35.7365 4.17389L35.75 4.22809ZM35.8179 3.5234C35.7093 3.56405 35.5464 3.5776 35.3293 3.5776C35.2071 3.5776 35.1257 3.5776 35.0714 3.61826C35.0171 3.63181 34.9764 3.65892 34.9493 3.69957C34.9085 3.74023 34.895 3.79443 34.8814 3.84864C34.8814 3.92995 34.8814 4.01126 34.9493 4.06547C35.0035 4.13323 35.085 4.17389 35.1936 4.18744C35.3021 4.18744 35.3972 4.18744 35.5057 4.14678C35.6007 4.10613 35.6686 4.03837 35.7365 3.9435C35.7636 3.87574 35.8043 3.78088 35.8179 3.64536V3.5234Z" fill="#004990"/>
<path d="M37.4195 4.43173V4.71632C37.3245 4.71632 37.2566 4.71632 37.1887 4.71632C37.0802 4.71632 37.0123 4.66212 36.958 4.62146C36.9037 4.58081 36.8766 4.5266 36.863 4.45884C36.8494 4.40463 36.863 4.26911 36.8901 4.07939L37.0802 3.02234L36.863 2.98169L36.9037 2.73775L37.1209 2.76486L37.2023 2.31765L37.528 2.18213L37.4195 2.81907L37.7045 2.85972L37.6638 3.10365L37.3652 3.04945L37.1752 4.12004C37.1616 4.20135 37.1616 4.26911 37.1616 4.29622C37.1616 4.32332 37.1887 4.33687 37.2023 4.36398C37.2159 4.39108 37.2566 4.39108 37.2973 4.40463C37.3245 4.40463 37.3652 4.40463 37.4195 4.43173Z" fill="#004990"/>
<path d="M37.976 4.83791L38.356 3.00841L38.641 3.07617L38.2474 4.89211L37.9624 4.83791H37.976ZM38.4239 2.65606L38.5053 2.30371L38.7903 2.35792L38.7089 2.71027L38.4239 2.65606Z" fill="#004990"/>
<path d="M39.116 4.10648C39.211 3.76768 39.3467 3.55085 39.5639 3.42888C39.7403 3.33402 39.9303 3.30692 40.1339 3.36112C40.3511 3.41533 40.5139 3.5373 40.6225 3.74058C40.7175 3.94385 40.7311 4.18779 40.6632 4.47237C40.5954 4.70276 40.5275 4.87893 40.4189 4.98735C40.3239 5.10931 40.2018 5.19062 40.0525 5.23128C39.9168 5.27193 39.781 5.27193 39.6317 5.23128C39.401 5.17707 39.2381 5.04155 39.1431 4.85183C39.0481 4.64855 39.0345 4.40462 39.116 4.10648ZM39.401 4.18779C39.3467 4.41817 39.3467 4.59434 39.401 4.74341C39.4689 4.87893 39.5639 4.96024 39.6996 5.0009C39.8353 5.04155 39.971 5.0009 40.0796 4.90603C40.2018 4.81117 40.2968 4.64855 40.3646 4.40462C40.4189 4.18779 40.4189 3.99806 40.3646 3.86254C40.2968 3.72702 40.2018 3.63216 40.0661 3.60506C39.9303 3.5644 39.7946 3.60506 39.6724 3.68637C39.5503 3.76768 39.4689 3.94385 39.401 4.17423V4.18779Z" fill="#004990"/>
<path d="M41.0569 5.56973L41.6269 3.79443L41.8848 3.87574L41.8034 4.13323C41.9798 3.97061 42.1834 3.92995 42.4141 3.99771C42.5092 4.02482 42.5906 4.07902 42.6584 4.14678C42.7263 4.21454 42.767 4.2823 42.7942 4.35006C42.8213 4.43137 42.8213 4.51268 42.8077 4.60754C42.8077 4.66175 42.767 4.75661 42.7263 4.90568L42.3734 5.98983L42.102 5.90852L42.4549 4.82437C42.4956 4.70241 42.5227 4.60754 42.5227 4.53978C42.5227 4.47203 42.4956 4.40427 42.4549 4.36361C42.4006 4.3094 42.3599 4.26875 42.2784 4.2552C42.1563 4.21454 42.0477 4.22809 41.9391 4.2823C41.8305 4.33651 41.7355 4.47203 41.6677 4.70241L41.3419 5.66459L41.0705 5.56973H41.0569Z" fill="#004990"/>
<path d="M44.2466 6.69457L45.3324 4.3501L46.1467 4.716C46.3096 4.78376 46.4318 4.86507 46.5132 4.95993C46.5946 5.05479 46.6354 5.16321 46.6489 5.28517C46.6489 5.40714 46.6489 5.52911 46.5811 5.63752C46.5403 5.74594 46.4589 5.82725 46.3775 5.88146C46.2825 5.94922 46.1739 5.98987 46.0517 5.98987C46.1603 6.08473 46.2282 6.2067 46.2553 6.34222C46.2825 6.46418 46.2553 6.61326 46.201 6.73522C46.1603 6.84364 46.0789 6.9385 45.9974 7.01981C45.9024 7.08757 45.821 7.14178 45.7396 7.16888C45.6581 7.19598 45.5631 7.19598 45.4545 7.16888C45.346 7.15533 45.2238 7.11467 45.0881 7.04691L44.2602 6.68101L44.2466 6.69457ZM44.6538 6.53194L45.1831 6.77588C45.2781 6.81653 45.346 6.84364 45.3867 6.85719C45.4545 6.87074 45.5224 6.87074 45.5767 6.85719C45.631 6.85719 45.6853 6.81653 45.7531 6.77588C45.8074 6.72167 45.8481 6.66746 45.8753 6.5997C45.916 6.51839 45.9296 6.42353 45.916 6.34222C45.916 6.26091 45.8753 6.19315 45.8074 6.12539C45.7531 6.07118 45.6446 6.01697 45.5088 5.94922L45.0202 5.73239L44.6402 6.53194H44.6538ZM45.1559 5.46135L45.6174 5.67818C45.7396 5.73239 45.8346 5.75949 45.9024 5.77304C45.9839 5.77304 46.0517 5.77304 46.1196 5.73239C46.1739 5.69173 46.2282 5.63752 46.2689 5.55621C46.3096 5.4749 46.3232 5.40714 46.3096 5.32583C46.3096 5.25807 46.2689 5.19031 46.2282 5.14966C46.1739 5.09545 46.0653 5.04124 45.916 4.95993L45.4817 4.7702L45.1559 5.4749V5.46135Z" fill="#004990"/>
<path d="M46.8525 6.85726C47.0289 6.55912 47.2325 6.38295 47.4633 6.31519C47.6533 6.26098 47.8569 6.28809 48.0333 6.3965C48.2369 6.51847 48.359 6.66754 48.3998 6.89792C48.4541 7.11475 48.3998 7.34513 48.2505 7.60262C48.1283 7.81944 48.0062 7.96851 47.884 8.04983C47.7618 8.14469 47.6261 8.1989 47.4768 8.1989C47.3275 8.1989 47.1918 8.17179 47.0561 8.10403C46.8525 7.98207 46.7303 7.81944 46.676 7.60262C46.6353 7.38579 46.6896 7.14185 46.8525 6.87082V6.85726ZM47.1104 7.00633C47.0018 7.22316 46.9475 7.39934 46.9611 7.54841C46.9882 7.69748 47.0561 7.80589 47.1918 7.87365C47.314 7.94141 47.4497 7.94141 47.5854 7.8872C47.7347 7.81944 47.8569 7.69748 47.979 7.48065C48.1012 7.27737 48.1419 7.1012 48.1147 6.95213C48.0876 6.80306 48.0197 6.69464 47.8976 6.62688C47.7754 6.55912 47.6397 6.54557 47.4904 6.61333C47.3547 6.66754 47.2189 6.80306 47.0968 7.00633H47.1104Z" fill="#004990"/>
<path d="M49.3771 9.18835C49.2278 9.21545 49.1056 9.21545 48.997 9.18835C48.8884 9.16124 48.7934 9.12059 48.6984 9.06638C48.5491 8.95797 48.4541 8.836 48.427 8.70048C48.3998 8.56496 48.427 8.42944 48.522 8.29393C48.5763 8.22617 48.6441 8.17196 48.712 8.11775C48.7799 8.0771 48.8613 8.04999 48.9292 8.04999C49.0106 8.04999 49.092 8.04999 49.1599 8.0771C49.2142 8.09065 49.2956 8.1313 49.4042 8.18551C49.6078 8.29393 49.7707 8.36169 49.8928 8.38879C49.92 8.34813 49.9471 8.32103 49.9471 8.32103C50.0285 8.21261 50.0557 8.11775 50.0421 8.04999C50.015 7.95513 49.9471 7.86027 49.8249 7.77896C49.7164 7.69764 49.6214 7.67054 49.5263 7.67054C49.4449 7.67054 49.3499 7.72475 49.2413 7.81961L49.0242 7.62989C49.1192 7.53502 49.2142 7.46726 49.3092 7.44016C49.4042 7.3995 49.5128 7.3995 49.6349 7.44016C49.7571 7.45371 49.8657 7.52147 50.0014 7.60278C50.1235 7.68409 50.205 7.7654 50.2593 7.84672C50.3136 7.92803 50.3407 7.99579 50.3407 8.0771C50.3407 8.14486 50.3407 8.22617 50.3 8.30748C50.2728 8.36169 50.2186 8.443 50.1507 8.55141L49.9064 8.90376C49.7299 9.14769 49.6349 9.29676 49.5942 9.36452C49.5671 9.44583 49.5399 9.51359 49.5263 9.5949L49.282 9.43228C49.2956 9.36452 49.3228 9.28321 49.3635 9.2019L49.3771 9.18835ZM49.7571 8.60562C49.6485 8.57851 49.4856 8.52431 49.2956 8.443C49.187 8.38879 49.1056 8.36169 49.0513 8.34813C48.997 8.34813 48.9563 8.34813 48.902 8.37524C48.8613 8.38879 48.8206 8.42944 48.7934 8.4701C48.7391 8.53786 48.7256 8.60562 48.7391 8.68693C48.7527 8.76824 48.807 8.836 48.902 8.90376C48.997 8.95797 49.1056 8.99862 49.2006 8.99862C49.3092 8.99862 49.4042 8.98507 49.4856 8.93086C49.5535 8.89021 49.6214 8.8089 49.7028 8.68693L49.7707 8.59207L49.7571 8.60562Z" fill="#004990"/>
<path d="M50.0557 9.97446L51.25 8.52441L51.4536 8.68704L51.2772 8.90387C51.4129 8.83611 51.5215 8.809 51.5758 8.809C51.6437 8.809 51.7115 8.83611 51.7658 8.87676C51.8472 8.93097 51.888 9.02583 51.9287 9.13425L51.6708 9.29687C51.6437 9.21556 51.6029 9.16135 51.5486 9.1207C51.4944 9.08004 51.4401 9.06649 51.3722 9.06649C51.3043 9.06649 51.2365 9.09359 51.1822 9.13425C51.0872 9.20201 50.9922 9.28332 50.9107 9.39173L50.2864 10.1506L50.0557 9.97446Z" fill="#004990"/>
<path d="M51.9421 11.6004L52.1186 11.4242C51.9014 11.4784 51.725 11.4377 51.5757 11.3022C51.4807 11.2074 51.4128 11.0989 51.3856 10.9634C51.3585 10.8279 51.3857 10.6924 51.4399 10.5298C51.4942 10.3807 51.5892 10.2316 51.725 10.0961C51.8607 9.96058 51.9964 9.85217 52.1457 9.78441C52.295 9.71665 52.4307 9.68954 52.58 9.70309C52.7158 9.71665 52.8379 9.77085 52.9329 9.86572C53.0144 9.93348 53.0551 10.0148 53.0958 10.1097C53.1229 10.191 53.1229 10.2858 53.1094 10.3671L53.7473 9.70309L53.9509 9.89282L52.1457 11.763L51.9557 11.5868L51.9421 11.6004ZM51.9421 10.2994C51.7657 10.4756 51.6842 10.6382 51.6571 10.7737C51.6571 10.9228 51.6842 11.0447 51.7793 11.126C51.8607 11.2073 51.9828 11.248 52.1321 11.2209C52.2814 11.2073 52.4307 11.1125 52.58 10.9363C52.7701 10.7466 52.8651 10.584 52.8786 10.4349C52.8786 10.2858 52.8515 10.1639 52.7565 10.0825C52.6615 10.0012 52.5393 9.96058 52.4036 9.98768C52.2543 10.0148 52.105 10.1097 51.9285 10.2858L51.9421 10.2994Z" fill="#004990"/>
<path d="M0 21.4932C0 33.3511 13.654 43 30.4433 43C47.2326 43 60.8866 33.3511 60.8866 21.4932C60.8866 9.63536 47.2326 0 30.4433 0C13.654 0 0 9.64891 0 21.4932ZM0.407177 21.4932C0.407177 9.86574 13.8847 0.406555 30.4433 0.406555C47.0018 0.406555 60.4794 9.86574 60.4794 21.4932C60.4794 33.1207 47.0018 42.5934 30.4433 42.5934C13.8847 42.5934 0.407177 33.1343 0.407177 21.4932Z" fill="#004990"/>
<path d="M27.5115 6.11194C27.5794 6.11194 27.6472 6.08484 27.7151 6.07129C15.6083 6.8844 6.06683 12.9014 5.0896 20.3956H7.04405C7.92627 12.9963 16.5313 7.03347 27.5115 6.09839V6.11194Z" fill="#004990"/>
<path d="M26.8058 6.26125C26.9686 6.22059 27.1179 6.19349 27.2808 6.15283C17.4407 7.23698 9.78574 13.1185 8.99854 20.3958H11.0073C11.7131 13.3218 18.2686 7.57578 26.8058 6.26125Z" fill="#004990"/>
<path d="M12.853 20.4093H14.7396C15.2418 13.9044 19.6936 8.49724 25.7063 6.58643C18.6892 8.33461 13.4502 13.796 12.853 20.4093Z" fill="#004990"/>
<path d="M33.5649 37.1866C33.4971 37.2002 33.4292 37.2137 33.3613 37.2273C41.2199 36.6987 47.9926 33.9748 52.0508 30.0854H50.4085C46.7303 33.9071 40.6362 36.5903 33.5649 37.1866Z" fill="#004990"/>
<path d="M56.0411 22.3472H54.0866C53.9373 24.6781 53.0144 26.8735 51.4807 28.8521H53.218C54.8739 26.887 55.8782 24.6916 56.0275 22.3472H56.0411Z" fill="#004990"/>
<path d="M34.2707 37.0375C34.1214 37.0782 33.9585 37.1189 33.7957 37.146C40.0798 36.4548 45.4681 33.7987 48.7526 30.0854H47.0561C44.2058 33.636 39.6454 36.2109 34.2707 37.0375Z" fill="#004990"/>
<path d="M52.1186 22.3472H50.0963C49.9741 24.6781 49.2005 26.8735 47.9382 28.8521H49.7298C51.1278 26.887 51.9693 24.6916 52.1186 22.3472Z" fill="#004990"/>
<path d="M35.3701 36.7394C39.5912 35.6824 43.1879 33.2701 45.4953 30.0854H43.948C41.98 33.2024 38.9533 35.5875 35.3701 36.7394Z" fill="#004990"/>
<path d="M48.2504 22.3472H46.3774C46.2688 24.6781 45.658 26.8735 44.6672 28.8521H46.3095C47.4632 26.887 48.1554 24.6916 48.264 22.3472H48.2504Z" fill="#004990"/>
<path d="M6.98985 22.347H5.0354C5.5783 30.0987 15.3098 36.3868 27.7152 37.227C27.6473 37.227 27.5795 37.1999 27.5116 37.1863C16.2599 36.2241 7.49204 30.0038 6.98985 22.3335V22.347Z" fill="#ED1C2E"/>
<path d="M25.7066 36.7256C19.5175 34.747 14.9842 29.0823 14.6992 22.3335H12.8262C13.1655 29.2043 18.4995 34.9232 25.7201 36.7256H25.7066Z" fill="#ED1C2E"/>
<path d="M10.9665 22.3472H8.95776C9.09349 24.6645 9.93499 26.8599 11.3058 28.7978H13.0974C11.8352 26.8464 11.0887 24.6645 10.9665 22.3472Z" fill="#ED1C2E"/>
<path d="M27.2809 37.1455C27.118 37.1048 26.9551 37.0777 26.8058 37.037C21.4718 36.2104 16.9114 33.6626 14.0747 30.1392H12.3782C15.6627 33.8253 21.0375 36.4679 27.2944 37.1455H27.2809Z" fill="#ED1C2E"/>
<path d="M53.001 14.189H51.2637C52.7974 16.0591 53.7475 18.1597 54.0189 20.3957H55.9734C55.6883 18.1597 54.6432 16.0591 52.9874 14.189H53.001Z" fill="#ED1C2E"/>
<path d="M51.6572 12.8473C47.5582 9.16123 40.9755 6.58638 33.3613 6.08496C33.4292 6.08496 33.4835 6.11206 33.5649 6.12562C40.4055 6.70835 46.3231 9.24254 50.0285 12.8609H51.6572V12.8473Z" fill="#ED1C2E"/>
<path d="M51.9287 19.4338C51.9287 19.4338 51.9016 19.3118 51.888 19.2576C51.4944 17.4145 50.6665 15.6663 49.4721 14.0943H49.4585C48.5899 12.9153 47.409 11.7092 45.8482 10.598C42.6586 8.28059 38.4919 6.66792 33.8093 6.1665C33.9722 6.20716 34.1215 6.23426 34.2844 6.27492C38.1254 6.8712 41.5593 8.3619 44.2466 10.4624C44.2466 10.4624 44.3009 10.5031 44.3688 10.5573C45.2103 11.2349 45.9975 11.9667 46.6761 12.7663C48.0741 14.4196 49.635 16.9673 50.0829 20.423H52.0916C52.0916 20.423 52.0644 20.1249 51.9694 19.6099C51.9694 19.5557 51.9559 19.5151 51.9423 19.4609L51.9287 19.4338Z" fill="#ED1C2E"/>
<path d="M44.5181 14.189C45.5224 16.0727 46.1603 18.1732 46.3368 20.3957H48.2098C48.0062 18.1597 47.2869 16.0591 46.1332 14.189H44.5181Z" fill="#ED1C2E"/>
<path d="M35.3701 6.57275C38.804 7.67045 41.7221 9.90651 43.7037 12.8473H45.2238C42.9165 9.83875 39.4419 7.58914 35.3837 6.57275H35.3701Z" fill="#ED1C2E"/>
<path d="M42.2784 21.6966L41.8577 21.3849L42.2648 21.0325C42.5499 20.7886 42.8756 20.3956 42.8756 19.8942C42.8756 18.9049 41.6812 18.0918 40.2697 18.0918H35.3835V25.3149H36.9037H40.0797C41.7355 25.3149 43.1335 24.3256 43.1335 23.1737C43.1335 22.6452 42.8213 22.1167 42.2784 21.7101V21.6966ZM37.4873 20.626V18.7423H39.306C40.0389 18.7423 40.6226 19.2437 40.6226 19.8806C40.6226 20.5176 40.0661 21.0054 39.306 21.0054H37.4873V20.6124V20.626ZM39.2246 24.6373H37.4873V21.683H39.2246C40.2018 21.683 40.9754 22.3335 40.9754 23.1602C40.9754 23.9868 40.2018 24.6373 39.2246 24.6373Z" fill="#004990"/>
<path d="M18.8115 25.3149H20.9017V18.0918H18.8115V25.3149Z" fill="#004990"/>
<path d="M29.9411 18.0918C29.7646 18.4712 26.6293 25.193 26.6293 25.193L23.2226 21.3578C23.2226 21.3578 25.3128 18.9998 26.1272 18.0918H24.7156C24.5392 18.2951 21.0103 22.2658 20.9832 22.2793C20.9967 22.3064 23.5212 25.1252 23.6841 25.3149H27.4301L30.0361 19.6909L31.5833 23.0111H29.1131L29.4932 23.8649H31.9769L32.6556 25.3285H34.8679C34.8679 25.3285 31.6783 18.4848 31.5019 18.1053H29.9411V18.0918Z" fill="#004990"/>
<path d="M15.7848 38.7989L14.0068 37.9994L14.3462 37.2405L14.6855 37.3895L14.4683 37.8639L15.907 38.5144L15.7713 38.7989H15.7848ZM15.2555 36.468C15.4455 36.5493 15.5813 36.6577 15.6627 36.7797C15.7441 36.9017 15.7441 37.0372 15.6898 37.1592C15.6355 37.2947 15.527 37.376 15.3777 37.4031C15.2284 37.4302 15.0655 37.4031 14.8755 37.3082C14.6855 37.2134 14.5497 37.1185 14.4683 36.983C14.3869 36.861 14.3869 36.7255 14.4412 36.59C14.509 36.4545 14.604 36.3732 14.7533 36.3461C14.9026 36.319 15.0655 36.3461 15.2555 36.4409V36.468ZM16.0427 36.7255L14.509 36.0344L14.6312 35.7769L16.1649 36.468L16.0427 36.7255ZM14.9976 37.0643C15.0791 37.105 15.1605 37.1185 15.2419 37.1321C15.3234 37.1321 15.3641 37.105 15.4048 37.0508C15.432 36.983 15.4184 36.9288 15.3641 36.8746C15.3098 36.8204 15.2419 36.7797 15.1469 36.7391C15.0519 36.6984 14.9705 36.6713 14.9026 36.6713C14.8212 36.6713 14.7669 36.6984 14.7398 36.7526C14.7126 36.8204 14.7398 36.8746 14.7805 36.9288C14.8348 36.983 14.9026 37.0236 14.9976 37.0643ZM15.7984 36.1699L15.1334 35.8717L15.2555 35.6143L15.9206 35.9124L15.812 36.1699H15.7984ZM16.6399 37.6877L16.3142 37.5386L15.9884 38.2569L15.6491 38.1078L16.5449 36.1292L16.8842 36.2783L16.4499 37.2405L16.7756 37.3895L16.6399 37.6877Z" fill="#004990"/>
<path d="M20.3994 38.5144C20.4537 38.4466 20.508 38.3517 20.5487 38.2569C20.5895 38.1485 20.6166 38.0671 20.6437 37.9858L19.0965 37.5386L19.1915 37.2134L21.1324 37.7826C21.0781 37.9587 21.0238 38.1214 20.9559 38.2704C20.888 38.4195 20.8338 38.5415 20.7795 38.6363L21.2274 38.7718L21.1324 39.0971L20.0194 38.7718L19.9108 39.1513L20.6573 39.3681L20.3587 40.4116L20.0058 40.3032L20.2094 39.585L18.6621 39.1377L18.7572 38.826L19.5715 39.0564L19.6801 38.677L18.5671 38.3517L18.6621 38.0265L20.4402 38.5415L20.3994 38.5144Z" fill="#004990"/>
<path d="M24.1591 38.5416C24.3763 38.5823 24.5527 38.6772 24.6477 38.8262C24.7563 38.9753 24.797 39.1515 24.7699 39.3276C24.7427 39.5038 24.6477 39.6529 24.4984 39.7613C24.3491 39.8697 24.1591 39.9104 23.9419 39.8697C23.7248 39.8426 23.5619 39.7477 23.4533 39.6122C23.3312 39.4632 23.2905 39.3005 23.3176 39.1108C23.3448 38.9346 23.4262 38.7856 23.5755 38.6636C23.7112 38.5416 23.9148 38.501 24.1591 38.5416ZM25.3263 41.2927L23.3448 40.981L23.4941 40.0594L23.8605 40.1136L23.7655 40.7099L25.3806 40.9674L25.3263 41.2927ZM23.9962 39.5445C24.1048 39.558 24.1998 39.5445 24.2813 39.4903C24.3627 39.4361 24.4034 39.3683 24.417 39.2734C24.417 39.1921 24.417 39.0973 24.3491 39.0159C24.2948 38.9346 24.2134 38.8804 24.1048 38.8669C23.9691 38.8533 23.8741 38.8669 23.8062 38.9346C23.7384 39.0024 23.6976 39.0702 23.6841 39.165C23.6841 39.2463 23.6841 39.3276 23.7384 39.409C23.7791 39.4903 23.8741 39.5309 24.0098 39.558L23.9962 39.5445ZM25.3128 40.6151L24.9463 40.5609L25.2721 38.501L25.6385 38.5552L25.3128 40.6151Z" fill="#004990"/>
<path d="M29.0317 39.8562C29.0317 39.8562 29.1539 39.9646 29.2353 40.0189C29.3167 40.0866 29.4117 40.1408 29.5068 40.1815L29.2624 40.4525C29.2624 40.4525 29.1267 40.3712 29.0453 40.317C28.9638 40.2628 28.896 40.2086 28.8281 40.1544C28.7874 40.1137 28.7467 40.0731 28.6924 40.0189C28.6517 39.9646 28.611 39.9104 28.5702 39.8427C28.5431 39.9104 28.5024 39.9646 28.4481 40.0189C28.3938 40.0731 28.3395 40.1273 28.2988 40.1679C28.2445 40.2221 28.1902 40.2628 28.1223 40.3034C28.0545 40.3577 27.973 40.3983 27.8916 40.4254L27.593 40.1679C27.7016 40.1273 27.8102 40.0731 27.8916 40.0053C27.9866 39.9511 28.0545 39.8833 28.1088 39.8291C28.1495 39.7885 28.1902 39.7343 28.2445 39.653C28.2988 39.5716 28.3531 39.4632 28.3667 39.3277L27.8102 39.3006V38.9754L29.3439 39.0296V39.3548L28.7603 39.3277C28.7603 39.4497 28.801 39.5445 28.8417 39.6259C28.896 39.7072 28.9367 39.7749 29.0046 39.8291L29.0317 39.8562ZM29.0724 40.5474C29.3167 40.5474 29.5475 40.6016 29.7646 40.6693C29.9818 40.7371 30.0904 40.8997 30.0768 41.1301C30.0768 41.3605 29.9546 41.5096 29.7239 41.5638C29.4932 41.618 29.2624 41.6451 29.0317 41.6315C28.7874 41.6315 28.5702 41.5773 28.3531 41.5096C28.1359 41.4418 28.0273 41.2792 28.0409 41.0488C28.0409 40.8184 28.1631 40.6693 28.3802 40.6151C28.5974 40.5609 28.8281 40.5338 29.0724 40.5474ZM29.0317 41.3198C29.2082 41.3198 29.3575 41.3198 29.4932 41.3063C29.6289 41.2927 29.6968 41.225 29.6968 41.1166C29.6968 41.0081 29.6425 40.9404 29.5068 40.9133C29.371 40.8862 29.2217 40.8726 29.0453 40.8591C28.8688 40.8591 28.7195 40.8591 28.5974 40.8726C28.4617 40.8862 28.3938 40.9539 28.3938 41.0623C28.3938 41.1708 28.4481 41.2385 28.5838 41.2656C28.7195 41.2927 28.8553 41.3063 29.0317 41.3198ZM30.0768 40.5609H29.7103L29.7375 39.924H29.2624V39.5716H29.7375L29.7646 38.8398H30.1311L30.0632 40.5609H30.0768Z" fill="#004990"/>
<path d="M33.7686 40.4252C33.8229 40.493 33.9179 40.5743 34.0265 40.642C34.135 40.7233 34.2436 40.7775 34.3386 40.8317L34.0943 41.1434C34.0129 41.1028 33.9179 41.0486 33.8229 40.9673C33.7279 40.8995 33.6464 40.8317 33.5921 40.7775C33.5378 40.7233 33.4835 40.6556 33.4293 40.5878C33.3614 40.5065 33.3207 40.4387 33.2935 40.371C33.2664 40.4387 33.2392 40.5201 33.1985 40.5878C33.1578 40.6691 33.1171 40.7369 33.0628 40.7911C33.0085 40.8724 32.9406 40.9537 32.8592 41.0486C32.7778 41.1434 32.6963 41.2248 32.6285 41.279L32.3027 41.0486C32.3977 40.9808 32.4928 40.8995 32.6013 40.7775C32.7099 40.6556 32.8049 40.5472 32.8728 40.4387C32.9406 40.3439 32.9814 40.2219 33.0221 40.0728C33.0628 39.9238 33.0764 39.7612 33.0628 39.585V39.4359L32.4385 39.4901L32.4113 39.1513L34.0265 39.0294L34.0536 39.3546L33.4293 39.4088V39.5443C33.4564 39.7883 33.4971 39.978 33.5786 40.0864C33.6464 40.2084 33.7143 40.3032 33.7957 40.3981L33.7686 40.4252ZM34.8272 41.4551L34.4608 41.4822L34.2436 38.677L34.6101 38.6499L34.8272 41.4551Z" fill="#004990"/>
<path d="M38.8989 39.4631C38.8311 39.4767 38.7225 39.5038 38.5868 39.5444C38.451 39.5851 38.3425 39.6122 38.2475 39.6393L38.356 40.1543L37.9896 40.222L37.8946 39.7342C37.786 39.7748 37.6503 39.8155 37.4874 39.8561C37.3245 39.8968 37.1752 39.9374 37.0531 39.9781L36.9309 39.6664C37.0259 39.6529 37.1888 39.6122 37.4195 39.5444C37.6638 39.4902 37.8674 39.436 38.0303 39.3818C38.1796 39.3412 38.3017 39.3005 38.4103 39.2734C38.5189 39.2463 38.6411 39.2056 38.7768 39.1514L38.8718 39.4496L38.8989 39.4631ZM37.7317 38.2706C37.9081 38.2299 38.071 38.2435 38.2339 38.2977C38.3967 38.3519 38.4918 38.4603 38.5325 38.6365C38.5732 38.8126 38.5325 38.9482 38.3967 39.0566C38.261 39.165 38.1117 39.2327 37.9353 39.2734C37.7588 39.3141 37.596 39.3005 37.4331 39.2598C37.2702 39.2192 37.1752 39.0972 37.1345 38.9211C37.0938 38.7449 37.1345 38.6094 37.2702 38.4874C37.4059 38.379 37.5552 38.3112 37.7317 38.2706ZM37.8674 39.0024C37.9624 38.9888 38.0439 38.9482 38.1117 38.894C38.1796 38.8397 38.2067 38.772 38.1932 38.7042C38.1796 38.6229 38.1253 38.5823 38.0439 38.5687C37.9624 38.5552 37.8674 38.5552 37.7724 38.5687C37.6774 38.5823 37.596 38.6229 37.5145 38.6771C37.4467 38.7313 37.4195 38.7991 37.4331 38.8668C37.4467 38.9482 37.501 38.9888 37.5824 39.0159C37.6638 39.0295 37.7588 39.0295 37.8538 39.0159L37.8674 39.0024ZM39.6997 40.5744L37.7317 40.9674L37.5552 40.073L37.9217 40.0052L38.0439 40.5744L39.6454 40.2491L39.7133 40.5744H39.6997ZM39.4826 40.0459L39.1161 40.1136L39.0618 39.8697L38.5189 39.9781L38.4646 39.68L39.0075 39.5715L38.6818 37.9589L39.0482 37.8911L39.4826 40.0459Z" fill="#004990"/>
<path d="M42.1427 37.6878C42.197 37.8504 42.292 37.9859 42.4549 38.0808C42.6177 38.1757 42.767 38.2434 42.8892 38.2705L42.7127 38.5958C42.6042 38.5551 42.482 38.5009 42.3734 38.4331C42.2513 38.3654 42.1563 38.2976 42.0884 38.2299C42.0748 38.3247 42.0341 38.4331 41.9934 38.5687C41.9527 38.6906 41.8848 38.8261 41.8034 38.9481L41.4233 38.8397C41.5726 38.6229 41.6812 38.3925 41.7355 38.1892C41.7898 37.9724 41.7627 37.7013 41.6405 37.3625L42.007 37.2677C42.0205 37.3354 42.0477 37.4032 42.0613 37.471C42.0748 37.5387 42.102 37.6065 42.1291 37.6878H42.1427ZM44.3822 39.1514L42.4141 39.829L42.0884 38.8804L42.4413 38.7584L42.6584 39.3953L44.2736 38.8397L44.3822 39.1514ZM43.4999 38.6635L43.1606 38.7719L42.862 37.8911L42.5091 38.013L42.4006 37.7013L42.7535 37.5794L42.5363 36.956L42.8756 36.8476L43.4999 38.6771V38.6635ZM44.0836 38.5551L43.7442 38.6771L43.052 36.685L43.3914 36.563L44.0836 38.5551Z" fill="#004990"/>
<path d="M47.8976 37.0509C47.8161 37.1187 47.6533 37.2271 47.3682 37.3897C47.0968 37.5523 46.7982 37.7149 46.4589 37.8911L45.5088 36.0616L46.771 35.4111L46.9203 35.7093L45.9838 36.1971L46.201 36.6037L46.9746 36.1971L47.1239 36.4817L46.3503 36.8883L46.6353 37.4439C46.7982 37.3626 46.9882 37.2542 47.2054 37.1322C47.4225 37.0102 47.5854 36.9018 47.7076 36.807L47.8976 37.078V37.0509ZM48.6983 37.1864L48.3726 37.349L47.7483 36.1565L47.2732 36.4004L47.1239 36.1023L47.599 35.8583L47.0696 34.8555L47.3954 34.6929L48.6983 37.1864Z" fill="#004990"/>
</g>
<defs>
<clipPath id="clip0_82_472">
<rect width="177" height="43" fill="white"/>
</clipPath>
</defs>
</svg>
