<svg width="21" height="22" viewBox="0 0 21 22" fill="none" xmlns="http://www.w3.org/2000/svg">
<path d="M10.5748 21.0663C9.15807 21.0663 7.82633 20.7929 6.57954 20.246C5.33276 19.6992 4.24222 18.947 3.30792 17.9892C2.37361 17.0315 1.63974 15.9136 1.10632 14.6356C0.572874 13.3575 0.306152 11.9924 0.306152 10.5402C0.306152 9.07248 0.572874 7.70238 1.10632 6.4299C1.63974 5.15742 2.37361 4.04153 3.30792 3.08221C4.24222 2.12289 5.33276 1.36936 6.57954 0.821616C7.82633 0.273872 9.15807 0 10.5748 0C12.0066 0 13.3432 0.273942 14.5845 0.821824C15.8259 1.36971 16.9145 2.12344 17.8503 3.08304C18.7862 4.04261 19.5213 5.1588 20.0557 6.43162C20.59 7.70444 20.8572 9.07161 20.8572 10.5331C20.8572 11.9901 20.59 13.3575 20.0557 14.6356C19.5213 15.9136 18.7862 17.0315 17.8503 17.9892C16.9145 18.947 15.8259 19.6992 14.5845 20.246C13.3432 20.7929 12.0066 21.0663 10.5748 21.0663ZM10.5817 19.664C11.0094 19.2296 11.4078 18.5224 11.7769 17.5426C12.146 16.5628 12.4301 15.478 12.6292 14.2881H8.53965C8.74617 15.5121 9.03212 16.6121 9.3975 17.5881C9.76288 18.5641 10.1576 19.2561 10.5817 19.664ZM8.8606 19.4921C8.47936 18.8745 8.13607 18.1149 7.83072 17.2134C7.52535 16.3119 7.29331 15.3368 7.1346 14.2881H2.4747C3.08467 15.6813 3.95281 16.8281 5.07913 17.7285C6.20545 18.6288 7.46594 19.2167 8.8606 19.4921ZM12.3027 19.4921C13.6937 19.2205 14.9533 18.6335 16.0814 17.7313C17.2096 16.8291 18.0805 15.6813 18.6942 14.2881H14.0343C13.8349 15.3444 13.5825 16.3233 13.2771 17.2248C12.9717 18.1263 12.6469 18.882 12.3027 19.4921ZM2.02058 12.8688H6.99735C6.94406 12.4423 6.91075 12.0267 6.89743 11.6219C6.88409 11.217 6.87742 10.8344 6.87742 10.4739C6.87742 10.1135 6.88409 9.74074 6.89743 9.35562C6.91075 8.97052 6.94406 8.58447 6.99735 8.19746H2.02058C1.8999 8.58978 1.81476 8.98163 1.76516 9.37302C1.71556 9.76439 1.69076 10.1511 1.69076 10.5331C1.69076 10.9152 1.71556 11.3019 1.76516 11.6932C1.81476 12.0846 1.8999 12.4765 2.02058 12.8688ZM8.42527 12.8688H12.7436C12.7991 12.4226 12.8345 12.0124 12.8496 11.6381C12.8648 11.2637 12.8724 10.8954 12.8724 10.5331C12.8724 10.1708 12.8648 9.79759 12.8496 9.41342C12.8345 9.02925 12.7991 8.62393 12.7436 8.19746H8.42527C8.36604 8.62393 8.32885 9.02925 8.31368 9.41342C8.2985 9.79759 8.29091 10.1708 8.29091 10.5331C8.29091 10.8954 8.2985 11.2687 8.31368 11.6528C8.32885 12.037 8.36604 12.4423 8.42527 12.8688ZM14.166 12.8688H19.1483C19.2653 12.4765 19.3486 12.0846 19.3982 11.6932C19.4478 11.3019 19.4726 10.9152 19.4726 10.5331C19.4726 10.1511 19.4478 9.75946 19.3982 9.35822C19.3486 8.95697 19.2653 8.57005 19.1483 8.19746H14.166C14.2193 8.62393 14.2526 9.03958 14.2659 9.4444C14.2792 9.84925 14.2859 10.2319 14.2859 10.5923C14.2859 10.9528 14.2792 11.3255 14.2659 11.7106C14.2526 12.0957 14.2193 12.4818 14.166 12.8688ZM14.0343 6.77814H18.6942C18.0768 5.37355 17.2133 4.22677 16.1036 3.33781C14.9939 2.44885 13.727 1.85716 12.3027 1.56274C12.684 2.21836 13.0245 2.99123 13.3243 3.88133C13.6241 4.77144 13.8608 5.73704 14.0343 6.77814ZM8.53965 6.77814H12.6292C12.419 5.56554 12.1257 4.46079 11.7492 3.46391C11.3727 2.46701 10.9835 1.77979 10.5817 1.40225C10.1798 1.77979 9.79064 2.46701 9.41415 3.46391C9.03767 4.46079 8.74617 5.56554 8.53965 6.77814ZM2.4747 6.77814H7.1346C7.30441 5.73704 7.53922 4.77144 7.83903 3.88133C8.13884 2.99123 8.47936 2.21836 8.8606 1.56274C7.43262 1.86094 6.16474 2.45453 5.05693 3.34349C3.94913 4.23246 3.08838 5.37734 2.4747 6.77814Z" fill="black"/>
</svg>
