<svg width="137" height="48" viewBox="0 0 137 48" fill="none" xmlns="http://www.w3.org/2000/svg">
<path d="M48.9367 14.9617C48.8402 14.7775 48.6954 14.6519 48.5022 14.5766C48.5022 14.5766 43.9723 12.7093 43.924 12.6925C43.9079 12.6339 42.9343 7.66847 42.9343 7.66847C42.8941 7.45914 42.8056 7.29167 42.6446 7.15769C42.4918 7.02372 42.3228 6.95673 42.1136 6.95673C42.1136 6.95673 37.2376 6.81438 37.1893 6.81438C37.1572 6.77252 34.6065 2.45183 34.6065 2.45183C34.5019 2.26761 34.3571 2.14201 34.164 2.07502C33.9789 1.99966 33.7939 1.99966 33.6008 2.07502C33.6008 2.07502 28.9742 3.67435 28.9259 3.69947C28.8857 3.6576 25.0638 0.50919 25.0638 0.50919C24.9029 0.375215 24.7258 0.308228 24.5247 0.308228C24.3235 0.308228 24.1465 0.375215 23.9936 0.50919C23.9936 0.50919 20.1717 3.6576 20.1315 3.69947C20.0752 3.67435 15.4567 2.07502 15.4567 2.07502C15.2636 2.00803 15.0785 2.00803 14.8854 2.07502C14.7003 2.14201 14.5555 2.26761 14.4509 2.45183C14.4509 2.45183 11.8922 6.77252 11.8681 6.81438C11.8118 6.81438 6.94383 6.95673 6.94383 6.95673C6.74268 6.95673 6.56567 7.02372 6.41279 7.15769C6.25991 7.29167 6.16336 7.45914 6.12313 7.66847C6.12313 7.66847 5.1415 12.6339 5.1254 12.6925C5.07713 12.7093 0.547139 14.5849 0.547139 14.5849C0.354031 14.6603 0.217246 14.7859 0.112646 14.9617C0.0321846 15.1041 0 15.2381 0 15.3888C0 15.439 0 15.4893 0.0160923 15.5395L0.860939 21.5098L15.0705 26.9106C15.0705 26.9106 22.6017 29.6487 22.8672 29.7492C22.6017 29.8413 17.4763 31.6667 17.4763 31.6667C17.4602 31.6667 17.0176 31.8007 16.8567 32.1524C16.8165 32.2361 16.7923 32.3199 16.7923 32.4203C16.7923 32.5041 16.8084 32.6045 16.8487 32.6967C17.4521 34.2541 18.482 35.5855 19.8338 36.5484C21.2177 37.5281 22.843 38.0473 24.5327 38.0473C26.2224 38.0473 27.8478 37.5281 29.2317 36.5484C30.5835 35.5939 31.6134 34.2625 32.2168 32.6967C32.257 32.6045 32.2731 32.5041 32.2731 32.4203C32.2731 32.3282 32.257 32.2361 32.2168 32.1524C32.0559 31.8091 31.6134 31.6751 31.5892 31.6667C31.5892 31.6667 26.4638 29.8497 26.1983 29.7492C26.4638 29.6487 33.995 26.9106 33.995 26.9106L48.2045 21.5098L49.0494 15.5395C49.0574 15.4893 49.0655 15.439 49.0655 15.3888C49.0655 15.2381 49.0252 15.0957 48.9528 14.9617H48.9367ZM33.5847 3.87531C33.6893 4.01766 36.5537 7.67685 36.5939 7.73546C36.5617 7.80245 30.0524 19.7178 29.9961 19.8183C29.9156 19.7513 28.4914 18.6377 28.4351 18.5958C28.4593 18.5204 33.5203 4.05115 33.5847 3.87531ZM29.0547 20.5468C29.0144 20.6222 25.6029 26.8436 25.3293 27.3293C25.4259 26.7766 26.6489 19.7262 26.665 19.6425C26.7374 19.6425 27.7432 19.609 27.7432 19.609C27.896 19.609 28.1213 19.6927 28.234 19.7932C28.234 19.7932 28.9903 20.4798 29.0466 20.5301L29.0547 20.5468ZM24.581 2.20062C24.7258 2.29273 28.6202 4.72103 28.6765 4.75452C28.6604 4.82151 26.4638 18.3446 26.4477 18.4618C26.3431 18.4283 24.6373 17.8841 24.573 17.8673V2.20062H24.581ZM24.2672 19.0731C24.412 19.0145 24.6534 19.0145 24.7983 19.0731C24.7983 19.0731 25.7316 19.4499 25.804 19.475C25.7879 19.5587 24.6293 26.6175 24.5327 27.1786C24.4442 26.6175 23.2775 19.5587 23.2614 19.475C23.3339 19.4499 24.2672 19.0647 24.2672 19.0647V19.0731ZM23.7281 27.3293C23.4626 26.8353 20.043 20.6138 20.0028 20.5468C20.0591 20.4966 20.8074 19.8099 20.8074 19.8099C20.92 19.7095 21.1534 19.6174 21.3062 19.6257C21.3062 19.6257 22.312 19.6509 22.3844 19.6592C22.4005 19.7346 23.6235 26.785 23.7201 27.346L23.7281 27.3293ZM20.2522 4.77964C20.2602 4.84663 22.6499 18.3362 22.666 18.4535C22.5614 18.4535 20.7832 18.5539 20.7108 18.5539C20.6867 18.4869 15.6256 4.00928 15.5613 3.84182C15.7302 3.87531 20.1878 4.77127 20.2522 4.77964ZM12.3428 7.80245C12.383 7.86106 19.0453 19.6927 19.1016 19.7848C19.005 19.8267 17.3636 20.5552 17.3073 20.5803C17.259 20.5217 7.7404 8.72353 7.62776 8.58118C7.79673 8.54768 12.2784 7.80245 12.3348 7.79407L12.3428 7.80245ZM14.7647 23.7036C14.7003 23.6617 1.8828 15.9665 1.72992 15.8744C1.8828 15.7823 5.84151 13.4964 5.90588 13.4629C5.95416 13.5131 16.1084 22.2466 16.1969 22.322C16.1165 22.3973 14.813 23.6617 14.7647 23.712V23.7036ZM15.4486 25.6965C15.4567 25.6211 15.6095 24.5912 15.6095 24.5912C15.6337 24.4321 15.7544 24.2144 15.8751 24.1139C15.8751 24.1139 16.6555 23.4608 16.7119 23.4105C16.7762 23.4608 22.0706 28.041 22.489 28.4011C21.9821 28.2001 15.521 25.7216 15.4486 25.6965ZM17.2912 22.7072C17.3314 22.6402 17.8061 21.7191 17.8061 21.7191C17.8786 21.5767 18.0717 21.4176 18.2085 21.3674C18.2085 21.3674 19.1579 21.0325 19.2303 21.0073C19.2705 21.0827 22.7384 27.2707 23.012 27.7563C22.5936 27.3879 17.3475 22.7574 17.2831 22.7072H17.2912ZM18.7234 34.0699C18.5625 33.8438 18.4418 33.668 18.2809 33.3749C18.1199 33.0902 18.0395 32.8976 17.9268 32.638C18.0154 32.5962 22.0706 30.9969 22.5856 30.7875C22.1591 31.1559 18.7958 33.9945 18.7234 34.0615V34.0699ZM19.8981 35.3762C19.6568 35.1584 19.5119 35.0077 19.3269 34.8068C19.3993 34.7398 22.6821 31.7923 23.0925 31.4072C22.8109 31.9012 20.5901 35.7781 20.5418 35.8618C20.3085 35.7027 20.1476 35.5855 19.8981 35.3678V35.3762ZM22.0626 36.674C21.7649 36.5652 21.5718 36.4647 21.3384 36.3391C21.3867 36.2554 23.4948 32.3199 23.7684 31.8174C23.6638 32.3785 22.8511 36.808 22.827 36.9085C22.5695 36.8415 22.3683 36.7829 22.0626 36.674ZM24.5247 37.1346C24.2028 37.1346 24.0017 37.1095 23.7362 37.0843C23.7523 36.9755 24.4442 32.5208 24.5247 31.9598C24.6132 32.5208 25.3052 36.9755 25.3132 37.0843C25.0477 37.1178 24.8465 37.1346 24.5247 37.1346ZM26.9949 36.674C26.6972 36.7829 26.496 36.8415 26.2305 36.9085C26.2144 36.808 25.4017 32.3785 25.2971 31.8174C25.5626 32.3199 27.6788 36.2554 27.7271 36.3391C27.4857 36.4647 27.3006 36.5568 27.0029 36.674H26.9949ZM31.1145 32.638C31.0099 32.8976 30.9294 33.0902 30.7685 33.3749C30.6076 33.668 30.4869 33.8354 30.326 34.0699C30.2536 34.0029 26.8903 31.1559 26.4638 30.7959C26.9788 30.9969 31.034 32.6045 31.1145 32.6464V32.638ZM29.7306 34.8068C29.5455 35.0161 29.4007 35.1584 29.1593 35.3762C28.9098 35.5939 28.7489 35.7111 28.5236 35.8702C28.4754 35.7865 26.2466 31.9096 25.965 31.4155C26.3834 31.7923 29.6581 34.7398 29.7386 34.8068H29.7306ZM26.0374 27.7563C26.3109 27.2623 29.7788 21.0743 29.8191 21.0073C29.8915 21.0325 30.8409 21.3674 30.8409 21.3674C30.9858 21.4176 31.1708 21.5767 31.2432 21.7191C31.2432 21.7191 31.726 22.6318 31.7582 22.7072C31.7019 22.7658 26.4477 27.3879 26.0293 27.7563H26.0374ZM26.5604 28.4095C26.9788 28.0494 32.2731 23.4691 32.3295 23.4189C32.3858 23.4691 33.1743 24.1223 33.1743 24.1223C33.295 24.2227 33.4157 24.4405 33.4398 24.5996C33.4398 24.5996 33.5927 25.6295 33.6008 25.7048C33.5283 25.73 27.0673 28.2169 26.5604 28.4095ZM32.9007 22.3555C32.8444 22.2634 31.8708 20.7143 31.8306 20.6557C31.8789 20.5887 41.3894 8.79889 41.5101 8.65654C41.5665 8.82401 43.0469 13.287 43.063 13.354C43.0148 13.4043 32.9812 22.2885 32.8927 22.3638L32.9007 22.3555ZM47.2953 20.932C47.2309 20.9571 34.8881 25.7383 34.7835 25.7802C34.7594 25.6714 34.3571 23.8627 34.341 23.7957C34.4054 23.7622 47.2229 16.0587 47.3758 15.9665C47.3758 16.1424 47.2953 20.865 47.2953 20.932Z" fill="#ED1C24"/>
<path d="M5.1655 44.9218C4.51376 44.6622 4.40112 44.478 4.40112 44.1933C4.40112 43.9337 4.61032 43.6658 5.07699 43.6658C5.50344 43.6658 5.76092 43.8249 5.8092 43.85L5.95403 43.9505L6.15518 43.3141L6.19541 43.2136L6.09886 43.155C5.98621 43.088 5.65632 42.9205 5.09309 42.9205C4.19996 42.9205 3.58041 43.4732 3.58041 44.2687C3.58041 44.8967 3.97467 45.3488 4.79538 45.6586C5.39079 45.8931 5.51149 46.1192 5.51149 46.4123C5.51149 46.8058 5.22987 47.0403 4.7471 47.0403C4.41721 47.0403 4.08732 46.9398 3.83789 46.7723L3.69306 46.6718L3.49995 47.3166L3.45972 47.4171L3.54822 47.4757C3.81375 47.6599 4.30456 47.7939 4.71492 47.7939C5.9138 47.7939 6.3322 47.0235 6.3322 46.362C6.3322 45.7005 5.98621 45.2651 5.1655 44.9302V44.9218Z" fill="#ED1C24"/>
<path d="M9.28492 42.9123H8.44812V47.7773H9.28492V42.9123Z" fill="#ED1C24"/>
<path d="M14.4186 44.9804C14.4186 45.4577 14.4267 45.8596 14.4508 46.2532C14.2979 45.9517 14.129 45.6503 13.9198 45.307L12.5117 42.9708L12.4715 42.9122H11.6427V47.7771H12.4393V45.6754C12.4393 45.1395 12.4393 44.7376 12.4232 44.3608C12.5761 44.6706 12.7692 45.0055 12.9945 45.374L14.3945 47.7018L14.4347 47.7688H15.2152V42.9038H14.4186V44.972V44.9804Z" fill="#ED1C24"/>
<path d="M19.407 43.6659C19.8174 43.6659 20.0829 43.7748 20.2036 43.8417L20.3404 43.9087L20.5255 43.2975L20.5657 43.1886L20.4611 43.1216C20.3404 43.063 19.9864 42.9123 19.3829 42.9123C17.9668 42.9123 17.0173 43.9087 17.0173 45.3825C17.0173 46.8562 17.8944 47.7773 19.2622 47.7773C19.8335 47.7773 20.2599 47.6517 20.445 47.5512L20.5335 47.5009L20.3645 46.7641L20.2197 46.8394C20.0105 46.9483 19.6887 47.0153 19.3749 47.0153C18.4335 47.0153 17.8702 46.3956 17.8702 45.3657C17.8702 44.3358 18.4576 43.6659 19.407 43.6659Z" fill="#ED1C24"/>
<path d="M23.2929 45.6169H24.9986V44.8549H23.2929V43.6826H25.1032V42.9123H22.4561V47.7773H25.1998V47.0069H23.2929V45.6169Z" fill="#ED1C24"/>
<path d="M29.489 43.4314L29.4005 43.4733L29.5293 44.0176L29.5695 44.1934L30.2615 43.8082V47.7773H31.058V42.9123H30.4546L29.489 43.4314Z" fill="#ED1C24"/>
<path d="M35.4759 45.1815C35.9828 44.8549 36.0552 44.3944 36.0552 44.1432C36.0552 43.5487 35.6207 42.9123 34.6713 42.9123C33.8264 42.9123 33.2229 43.4649 33.2229 44.2353C33.2229 44.6372 33.4321 44.9889 33.7942 45.2317C33.3275 45.5081 33.0701 45.9351 33.0701 46.4459C33.0701 47.2246 33.7299 47.7856 34.631 47.7856C35.5322 47.7856 36.2161 47.1827 36.2161 46.3538C36.2161 45.8597 35.9586 45.4494 35.4839 45.1899L35.4759 45.1815ZM34.6471 47.0655C34.4299 47.0655 34.2287 46.9818 34.1 46.8394C33.9873 46.7138 33.923 46.5464 33.931 46.3621C33.931 45.9937 34.1643 45.709 34.5667 45.5834C35.1299 45.7593 35.3713 46.0021 35.3713 46.4124C35.3713 46.8227 35.0816 47.0739 34.6471 47.0739V47.0655ZM34.7276 44.8633C34.2529 44.7293 34.0437 44.52 34.0517 44.1934C34.0517 43.9255 34.2126 43.6157 34.6632 43.6157H34.6713C35.2103 43.6157 35.2506 44.0678 35.2506 44.2018C35.2506 44.4949 35.0655 44.7293 34.7276 44.8633Z" fill="#ED1C24"/>
<path d="M39.3054 42.9123C38.4123 42.9123 37.7123 43.6575 37.7123 44.6121C37.7123 45.4829 38.2996 46.1193 39.1043 46.1193C39.402 46.1193 39.6675 46.044 39.8928 45.8849C39.7962 46.1779 39.6595 46.4208 39.4744 46.5882C39.2571 46.8143 38.9755 46.9483 38.6617 46.9818C38.4606 47.0069 38.3318 47.0153 38.2192 47.0069H38.0824V47.7689H38.2111C38.2111 47.7689 38.2353 47.7689 38.2514 47.7689C38.3801 47.7689 38.5652 47.7521 38.7583 47.7354C39.2571 47.6768 39.7319 47.4423 40.0698 47.099C40.4238 46.7473 40.8422 46.0774 40.8422 44.9135C40.8422 43.6743 40.2549 42.9123 39.2974 42.9123H39.3054ZM39.9733 44.9973C39.8204 45.2401 39.5468 45.3908 39.2411 45.3908C38.8307 45.3908 38.5491 45.0643 38.5491 44.587C38.5491 44.0427 38.8468 43.6492 39.2571 43.6492C39.4422 43.6492 39.5951 43.7078 39.7158 43.8334C39.9089 44.0343 40.0054 44.3944 40.0054 44.8549C40.0054 44.9135 39.9974 44.9554 39.9733 45.0057V44.9973Z" fill="#ED1C24"/>
<path d="M42.4349 43.6994H44.5189L42.7005 47.5763L42.6119 47.7773H43.5131L45.4683 43.5152L45.4844 43.4817V42.9123H42.4349V43.6994Z" fill="#ED1C24"/>
<path d="M75.8307 23.2887C75.2846 23.2296 74.9836 23.2 74.9836 23.2C74.9836 23.2 74.3816 23.1704 74.201 23.1704L71.5994 23.2634C71.5994 23.2634 70.3266 23.3141 70.146 22.8154L69.9611 21.3574C69.9611 21.3574 69.8966 20.8503 70.9286 21.1207C70.9286 21.1207 72.1971 21.2687 73.3495 21.2391C73.3495 21.2391 74.3171 21.5053 75.0438 21.387C75.0438 21.387 76.2564 21.4208 76.3768 20.7319C76.3768 20.7319 76.6176 20.136 76.3166 19.8149C76.3166 19.8149 76.2564 19.3965 75.0438 18.8893C75.0438 18.8893 74.201 18.9823 73.8355 18.8302C73.8355 18.8302 73.3495 18.8302 72.7475 18.9232L69.7848 19.0119C69.7848 19.0119 69.1785 19.312 68.6366 19.0711L67.9701 19.0457C67.9701 19.0457 67.4283 19.1894 67.0026 18.957L66.6973 18.7457C66.6973 18.7457 66.2157 18.2385 66.8177 17.8835L72.8077 17.7356C72.8077 17.7356 73.5903 17.761 73.7753 17.8582L75.0438 17.9427L75.9511 17.8582C75.9511 17.8582 76.5531 17.7652 76.7982 17.051C76.7982 17.051 76.9831 16.5734 76.6778 15.9226C76.6778 15.9226 76.8627 15.3563 74.9234 14.9675C74.9234 14.9675 74.0161 14.8534 73.3495 14.7308C73.3495 14.7308 72.9238 14.883 72.5024 14.9421C72.5024 14.9421 71.8359 15.2464 71.1737 15.2464L67.1832 15.3014C67.1832 15.3014 66.2759 15.3267 65.9147 15.1534C65.9147 15.1534 65.6094 15.0647 65.1278 15.0013C65.1278 15.0013 64.7666 14.9421 64.4656 14.8534L63.6184 14.9675C63.6184 14.9675 63.3776 14.9126 62.5348 15.4408C62.5348 15.4408 61.9887 15.5634 61.7436 16.0367C61.7436 16.0367 61.563 16.1846 61.7436 16.958L62.2897 17.3468L62.8272 17.7356C62.8272 17.7356 62.7713 18.2723 62.9519 19.7219C62.9519 19.7219 63.068 20.7657 63.9796 20.9686L64.8268 21.1207H67.7938L67.553 21.387C67.553 21.387 67.2477 21.5349 67.553 21.8941L67.9142 22.3717C67.9142 22.3717 68.0346 22.6675 67.7938 22.7816C67.7938 22.7816 67.854 23.0225 67.6132 23.1112L67.3724 23.2887L63.799 23.1408L63.2572 22.9295L62.7111 22.9929L62.4703 23.3521L62.2252 23.4451C62.2252 23.4451 61.9242 23.7114 61.9844 23.9522C61.9844 23.9522 62.1048 24.6326 62.2897 24.6665C62.2897 24.6665 62.4101 25.0848 63.0121 25.2032L67.3681 25.1102C67.3681 25.1102 67.9701 24.9031 68.3356 24.9031H69.9654L71.78 25.0848C71.78 25.0848 72.9883 25.3469 73.4742 25.3764C73.4742 25.3764 74.3816 25.5878 74.9836 25.5878C74.9836 25.5878 76.2564 25.6173 76.2564 25.5286C76.2564 25.5286 76.7982 25.4948 76.9186 24.9031C76.9186 24.9031 76.9831 24.2438 76.7982 23.9818C76.7982 23.9818 76.4327 23.3817 75.8264 23.2972L75.8307 23.2887Z" fill="#231F20"/>
<path d="M72.6869 27.8062C72.6869 27.8062 72.502 27.392 71.599 27.0624C71.599 27.0624 71.3539 26.7962 70.6917 26.6778C70.6917 26.6778 70.2058 26.6187 70.0252 26.2594L69.8446 25.9636C69.8446 25.9636 69.7844 25.7819 69.3028 25.4311C69.3028 25.4311 68.5159 25.2536 68.0901 25.3677C68.0901 25.3677 67.4279 25.4311 67.4838 25.9678C67.4838 25.9678 67.544 26.5299 67.4236 26.6821C67.4236 26.6821 67.1828 27.0075 66.9979 27.092C66.9979 27.092 66.6324 27.2695 66.3314 27.7175C66.3314 27.7175 65.91 28.0767 65.8455 28.5162C65.8455 28.5162 65.4241 29.1712 65.7251 30.0376C65.7251 30.0376 65.7853 30.1813 66.0261 30.8955C66.0261 30.8955 66.2067 31.6689 67.0538 32.1422L67.6558 32.5606L68.3783 33.0043C68.3783 33.0043 68.503 33.1818 69.105 33.2114L70.137 33.1522C70.137 33.1522 70.9239 33.0043 71.5259 32.438C71.5259 32.438 72.3128 31.9013 72.3128 31.728C72.3128 31.728 72.6138 31.4618 73.0997 30.8363C73.0997 30.8363 73.4008 30.5701 73.3406 30.2151C73.3406 30.2151 73.461 28.8754 73.2202 28.643C73.2202 28.643 73.0395 28.2246 72.6783 27.8062H72.6869ZM70.6917 29.4713L70.4466 29.8009C70.0854 30.0714 69.965 30.1221 69.965 30.1221C69.5436 30.6926 68.9975 30.0672 68.9975 30.0672C68.5159 29.8559 68.3352 29.353 68.3352 29.353C68.0901 28.9346 68.3352 28.5458 68.3352 28.5458C68.5159 28.0429 69.1781 27.8654 69.1781 27.8654H69.7844L70.0854 28.1612C70.3907 28.2204 70.6315 28.7233 70.6315 28.7233C70.8766 28.9642 70.696 29.4671 70.696 29.4671L70.6917 29.4713Z" fill="#231F20"/>
<path d="M97.4549 20.0216C97.4549 20.0216 97.627 19.6962 96.4788 19.7258C96.4788 19.7258 95.7435 19.7554 95.679 19.6032C95.679 19.6032 95.1372 19.7596 95.077 18.8045C95.077 18.534 95.1372 17.2324 95.1372 17.2324C95.1372 17.2324 95.3221 16.907 95.1372 16.6957C95.1372 16.6957 94.9523 16.3998 94.9523 15.8673C94.9523 15.8673 94.9523 15.0644 94.1052 15.0644C94.1052 15.0644 93.7096 14.8573 92.9227 14.9122C92.9227 14.9122 92.5012 15.0644 92.5614 15.4194C92.5614 15.4194 92.5614 15.8082 92.1959 16.197C92.1959 16.197 92.0153 16.759 92.2561 16.9365C92.2561 16.9365 92.5571 18.3312 92.4969 19.0454C92.4969 19.0454 92.5571 19.2229 92.4969 19.3708C92.4969 19.3708 92.3722 20.0554 92.5571 21.3655L92.7979 24.066C92.7979 24.066 92.8581 24.2731 92.7979 24.6281L92.8581 27.0962C92.8581 27.0962 92.9098 28.0132 92.1787 27.654C92.1787 27.654 91.6971 27.4554 89.3966 27.6329L87.3454 27.6033C87.3454 27.6033 86.3134 27.5737 86.4983 26.9187C86.4983 26.9187 86.3779 26.0269 86.6789 26.0565C86.6789 26.0565 87.3454 25.6973 87.5862 25.3423L87.9474 24.9577C87.9474 24.9577 88.313 24.3957 88.4334 23.9773C88.4334 23.9773 88.6097 23.3518 88.4334 22.7601C88.4334 22.7601 88.3087 22.4559 87.8872 21.9234C87.8872 21.9234 87.526 21.45 87.1003 21.2092C87.1003 21.2092 86.6187 20.7316 86.3736 20.6724C86.3736 20.6724 85.5867 20.0216 86.494 19.8737L87.0358 19.9329L87.6378 19.9033C87.6378 19.9033 88.0635 19.9033 88.1238 19.8779C88.1238 19.8779 88.485 19.9625 88.8505 19.7596C88.8505 19.7596 89.2117 19.6666 89.4525 19.3116C89.4525 19.3116 89.7578 19.2229 89.7578 18.8932C89.7578 18.8932 89.7578 18.2635 89.5772 17.9381C89.5772 17.9381 89.3364 17.4352 88.6699 17.3423C88.6699 17.3423 88.3689 17.1605 87.3411 17.1605C87.3411 17.1605 86.5542 17.3423 86.7391 16.3871C86.7391 16.3871 86.795 15.8547 86.4338 15.618C86.4338 15.618 86.193 15.4109 85.6469 15.3179C85.6469 15.3179 84.559 15.0517 84.0172 15.3179C84.0172 15.3179 83.4109 15.4405 83.4109 16.0279L83.3507 16.5055C83.3507 16.5055 83.656 17.0422 83.3507 17.2197C83.3507 17.2197 82.8088 17.2493 82.2627 17.2789C82.2627 17.2789 81.6607 17.2789 81.2995 17.4014C81.2995 17.4014 80.633 17.6634 80.633 17.9043C80.633 17.9043 80.3277 18.1833 80.5728 18.8679C80.5728 18.8679 80.5728 19.4891 81.2393 19.5483C81.2393 19.5483 81.4199 19.7258 82.1466 19.7554L83.4797 19.8399C83.4797 19.8399 83.8409 20.0512 83.4195 20.3174C83.4195 20.3174 82.9937 20.3766 82.5121 20.9429C82.5121 20.9429 82.3315 21.0274 81.8499 21.7755L81.4844 22.5784C81.4844 22.5784 81.2436 23.2631 81.4844 23.6519C81.4844 23.6519 81.5446 24.7802 82.4519 25.5198C82.4519 25.5198 83.0582 26.0819 83.4195 26.2932C83.4195 26.2932 84.0258 27.2779 83.4195 27.5737C83.4195 27.5737 82.5723 27.692 81.7854 27.692C81.7854 27.692 81.1791 27.8146 81.0587 28.3471C81.0587 28.3471 80.9383 28.7317 81.0587 28.8838C81.0587 28.8838 81.1791 29.784 81.9058 29.9065C82.0262 29.9319 82.7529 30.1094 82.7529 30.1094L83.355 30.0502L84.0215 29.8685L87.7066 29.7502L89.5815 29.8431L91.6369 29.8685C91.6369 29.8685 92.2389 29.7333 92.5399 30.0587C92.5399 30.0587 92.7979 30.0967 92.7377 30.8109C92.7377 30.8109 92.7979 31.2842 92.613 31.5251C92.613 31.5251 92.4926 31.7872 92.613 31.9985C92.613 31.9985 92.8538 32.831 93.2753 32.9198C93.2753 32.9198 94.6427 33.279 95.1888 32.7718C95.1888 32.7718 95.55 32.6535 95.4296 31.9689L95.1888 25.1056C95.1888 25.1056 95.1888 24.2689 95.3092 24.2139L95.3737 22.8109C95.3737 22.8109 95.249 22.2192 95.8553 22.2192C95.8553 22.2192 96.7669 22.1896 97.012 21.9825C97.012 21.9825 97.6269 21.9487 97.6872 21.0908C97.6872 21.0908 97.8678 20.4062 97.4463 20.0216H97.4549ZM85.6555 23.5335C85.4749 24.066 84.8686 24.1548 84.8686 24.1548C84.2666 24.0956 84.2064 23.7702 84.2064 23.7702C83.9656 23.6223 83.9656 22.8785 83.9656 22.8785C84.2064 22.2615 84.7525 22.2277 84.7525 22.2277C85.1137 22.2277 85.3545 22.3798 85.3545 22.3798C85.72 22.6165 85.72 23.0602 85.72 23.0602L85.6555 23.542V23.5335Z" fill="#231F20"/>
<path d="M102.358 23.4323C102.358 23.4323 102.973 24.0958 104.336 24.1634C104.336 24.1634 104.895 24.2226 105.27 24.1888L105.764 24.0958L106.013 24.0028C106.013 24.0028 105.953 24.0662 106.572 23.7281L106.693 23.5464L106.878 23.4281L107.067 23.3309L107.252 23.2379L107.316 23.1787C107.316 23.1787 107.441 22.9336 107.751 22.904C107.751 22.904 108.989 21.8391 109.114 21.0445C109.114 21.0445 109.423 19.3964 108.929 18.792C108.929 18.792 108.74 17.6002 108.185 17.2664L107.626 16.5057C107.626 16.5057 107.381 16.2901 106.947 16.0535L106.452 15.7154C106.452 15.7154 106.018 15.4703 105.519 15.3224C105.519 15.3224 104.655 15.2252 103.352 15.5041C103.352 15.5041 102.487 15.745 101.928 16.3873C101.928 16.3873 100.935 17.0255 100.625 18.3652C100.625 18.3652 100.256 19.671 100.69 21.2009C100.69 21.2009 100.935 22.6293 102.363 23.4238L102.358 23.4323ZM103.283 18.7962C103.657 17.8834 104.771 17.9721 104.771 17.9721L105.695 18.1835C106.319 18.4624 106.499 19.0118 106.499 19.0118C106.938 19.6753 106.564 20.4064 106.564 20.4064C106.564 20.8375 106.13 21.2051 106.13 21.2051C105.76 21.4418 105.141 21.5939 105.141 21.5939C104.706 21.7503 104.147 21.408 104.147 21.408C103.279 21.0192 103.279 20.6262 103.279 20.6262C102.909 19.5823 103.279 18.7962 103.279 18.7962H103.283Z" fill="#231F20"/>
<path d="M117.232 20.9599C117.232 20.9599 117.232 20.5922 115.994 20.6556L114.755 20.7148C114.755 20.7148 114.132 20.7401 114.132 20.4063C114.132 20.4063 113.951 19.9245 114.321 19.7681C114.321 19.7681 114.196 19.5864 115.559 19.7681C115.559 19.7681 117.172 20.0724 117.297 19.5568C117.297 19.5568 117.606 19.4934 117.606 18.6989C117.606 18.6989 117.856 17.9678 117.482 17.7269C117.482 17.7269 117.176 17.1183 116.308 17.1479L114.446 17.1775C114.446 17.1775 113.891 17.3001 113.891 16.3872C113.891 16.3872 113.951 15.6223 113.517 15.411C113.517 15.411 112.713 14.7728 112.214 15.0433C112.214 15.0433 111.53 15.1701 111.47 16.0829L111.53 19.8907V20.588C111.53 20.588 111.655 21.1374 111.655 21.5008C111.655 21.5008 111.345 21.7459 111.655 22.4771L111.784 23.3899C111.784 23.3899 111.784 24.0914 112.648 24.1548C112.648 24.1548 113.951 24.307 113.826 23.5421C113.826 23.5421 113.826 22.8109 114.325 22.9631L116.742 22.8447C116.742 22.8447 117.735 22.8785 117.55 21.8685C117.55 21.8685 117.735 21.167 117.241 20.9557L117.232 20.9599Z" fill="#231F20"/>
<path d="M115.435 27.8696C115.435 27.8696 115.559 27.0498 114.566 26.6229C114.566 26.6229 114.072 26.382 113.203 26.289L110.352 26.4412C110.352 26.4412 110.042 26.5342 109.548 26.475L108.555 26.5088C108.555 26.5088 108.12 26.475 107.501 26.5384L104.899 26.4454C104.899 26.4454 104.156 26.5384 103.906 26.1749L103.532 25.9594L102.913 26.0228C102.913 26.0228 102.109 26.2341 101.799 27.0878C101.799 27.0878 101.365 27.5104 101.924 28.0894C101.924 28.0894 101.859 28.55 103.162 28.6979L105.145 28.5796C105.145 28.5796 105.884 28.55 107.376 28.3683L109.733 28.2753H111.096C111.096 28.2753 112.029 28.3049 112.029 29.2178L112.154 31.6562C112.154 31.6562 112.029 32.9959 113.457 32.9663C113.457 32.9663 113.951 32.9959 114.755 32.8734C114.755 32.8734 115.499 32.7846 115.499 31.838C115.499 31.838 115.684 31.1956 115.559 29.8305C115.559 29.8305 115.499 28.4866 115.435 27.8738V27.8696Z" fill="#231F20"/>
<path d="M130.304 20.7951C130.304 20.7951 131.086 20.7317 131.675 20.7655C131.675 20.7655 132.389 20.6345 132.78 20.8965C132.78 20.8965 133.301 21.1543 134.019 21.1205L135.064 21.0528C135.064 21.0528 136.044 20.9261 136.044 20.5077C136.044 20.2837 135.98 20.2541 135.98 20.2837C136.044 20.0555 136.044 19.5145 135.588 19.2567C135.588 19.2567 135.197 18.7792 133.894 18.9017H133.043C133.043 18.9017 132.458 18.9017 132.587 18.4834C132.587 18.4834 132.458 17.9382 133.107 17.972H135.193C135.193 17.972 136.044 18.0058 136.173 17.655C136.173 17.655 136.302 17.4944 136.371 17.0127C136.371 17.0127 136.371 16.0491 135.653 15.9857C135.653 15.9857 135.717 15.7617 134.346 15.542C134.346 15.542 133.761 15.6645 133.107 15.3814L131.938 15.28C131.938 15.28 131.675 15.542 131.151 15.5716L127.887 15.7026L126.064 15.6392C126.064 15.6392 125.604 15.5716 125.543 15.3814L124.954 15.187C124.954 15.187 124.757 15.0222 124.172 15.1194L123.454 15.3476C123.454 15.3476 122.473 15.4406 121.17 15.6645C121.17 15.6645 120.512 15.7913 120.512 16.4379C120.512 16.4379 120.383 16.6957 120.646 17.2071C120.646 17.2071 120.646 17.8452 121.622 17.8156H123.454C123.454 17.8156 124.172 17.9086 123.583 19.0919L122.017 19.1595C122.017 19.1595 121.428 18.999 121.364 19.7005C121.364 19.7005 121.166 20.1823 121.493 20.6302C121.493 20.6302 121.557 21.0824 122.146 21.0486H123.32C123.32 21.0486 124.038 21.1162 124.301 21.1458H125.083C125.083 21.1458 125.475 21.0486 125.733 21.0148C125.733 21.0148 126.124 20.8542 126.317 20.757C126.317 20.757 129.452 20.4358 130.299 20.7866L130.304 20.7951ZM129.844 18.458C129.844 18.9017 129.581 18.9017 129.581 18.9017L127.689 18.9694C126.455 18.9694 126.709 18.813 126.644 18.7454C126.188 18.327 126.644 17.8156 126.644 17.8156C127.165 17.6889 127.491 17.655 127.491 17.655C127.625 17.748 128.467 17.7142 128.467 17.7142L129.775 17.748C129.904 17.972 129.839 18.458 129.839 18.458H129.844Z" fill="#231F20"/>
<path d="M126.455 31.9562L129.388 31.859C129.388 31.859 131.086 31.8886 131.275 32.2732C131.275 32.2732 131.671 32.4972 132.385 32.5986L133.43 32.7888C133.43 32.7888 134.341 32.5986 134.475 32.3704C134.475 32.3704 135.188 32.0492 135.317 31.6942C135.317 31.6942 135.511 31.3773 135.511 31.149L135.575 30.3841L135.704 28.6514C135.704 28.6514 135.833 28.14 135.769 27.3033C135.769 27.3033 135.769 26.6609 134.466 26.6017C134.466 26.6017 132.961 26.5383 132.307 26.5045L129.633 26.4116L128.979 26.3778C128.979 26.3778 128.261 26.027 128.781 25.7354C128.781 25.7354 129.044 25.765 128.979 25.1564C128.979 25.1564 128.85 24.3872 129.112 24.3872L129.439 24.3577L133.223 24.4549C133.223 24.4549 134.07 24.4549 134.264 24.5478L134.526 24.645L135.115 24.6789C135.115 24.6789 135.636 24.7127 135.7 24.159C135.7 24.159 135.765 23.7449 135.898 23.6139C135.898 23.6139 136.031 23.1955 135.833 23.1701C135.833 23.1701 135.769 22.6883 134.986 22.8151L133.486 22.5869L129.117 22.4306C129.117 22.4306 128.399 22.6883 127.809 22.4601H126.7C126.7 22.4601 126.442 22.5573 125.72 22.5869C125.72 22.5869 124.937 22.6883 124.09 22.4601L122.52 22.3925H121.673C121.673 22.3925 120.822 22.4601 120.762 23.1701C120.762 23.1701 120.564 23.5843 120.891 23.9689C120.891 23.9689 120.891 24.4211 121.54 24.4211L123.694 24.3281L126.24 24.3534C126.24 24.3534 126.562 24.0999 126.631 24.6112C126.631 24.6112 126.631 24.9028 126.829 25.41C126.894 25.5072 126.958 26.1834 126.958 26.1834L125.655 26.2467C125.655 26.2467 125.001 26.5341 124.412 26.2721C124.412 26.2721 124.288 25.8284 123.367 25.8875C123.367 25.8875 122.847 25.6973 122.52 25.9551C122.52 25.9551 121.742 26.2467 121.742 26.7877V27.8104C121.742 27.8738 122.391 28.2288 122.52 28.7444C122.52 28.7444 122.654 29.3445 122.585 29.9573L122.649 30.8574C122.649 30.8574 122.585 31.6604 122.907 31.7576C122.907 31.7576 123.036 32.4 123.754 32.6536C123.754 32.6536 124.017 32.7169 124.537 32.848L124.799 32.8141L125.517 32.5944C125.517 32.5944 125.973 32.0408 126.433 31.952L126.455 31.9562ZM130.303 28.3978C131.477 28.3006 131.74 28.5246 131.74 28.5246C132.067 28.6218 132.131 29.1966 132.131 29.1966C132.196 29.9995 131.477 29.877 131.477 29.877L129.977 29.7164L126.257 29.7756C125.539 29.839 125.603 29.3318 125.603 29.3318C125.474 28.5289 125.668 28.5289 125.668 28.5289L130.299 28.4021L130.303 28.3978Z" fill="#231F20"/>
</svg>
