<svg width="18" height="18" viewBox="0 0 18 18" fill="none" xmlns="http://www.w3.org/2000/svg">
<path d="M13.6575 12.8753L17.3061 16.6154L16.1013 17.8504L12.4527 14.1103C11.1408 15.1862 9.47702 15.8299 7.66749 15.8299C3.43504 15.8299 0 12.3087 0 7.97014C0 3.63157 3.43504 0.110413 7.66749 0.110413C11.8999 0.110413 15.335 3.63157 15.335 7.97014C15.335 9.82503 14.7071 11.5305 13.6575 12.8753ZM11.9483 12.2273C12.99 11.1268 13.6311 9.62557 13.6311 7.97014C13.6311 4.59264 10.9624 1.85702 7.66749 1.85702C4.3726 1.85702 1.70389 4.59264 1.70389 7.97014C1.70389 11.3476 4.3726 14.0833 7.66749 14.0833C9.28243 14.0833 10.7469 13.4261 11.8205 12.3582L11.9483 12.2273Z" fill="black"/>
</svg>
